<?xml version="1.0" encoding="us-ascii" standalone="no"?><svg xmlns="http://www.w3.org/2000/svg" xmlns:xlink="http://www.w3.org/1999/xlink" contentStyleType="text/css" height="244.7917px" preserveAspectRatio="none" style="width:458px;height:244px;" version="1.1" viewBox="0 0 458 244" width="458.3333px" zoomAndPan="magnify"><defs><linearGradient id="gt3nmt8fqulne0" x1="50%" x2="50%" y1="0%" y2="100%"><stop offset="0%" stop-color="#B8B8B8"/><stop offset="100%" stop-color="#6B6B6B"/></linearGradient><linearGradient id="gt3nmt8fqulne1" x1="50%" x2="50%" y1="0%" y2="100%"><stop offset="0%" stop-color="#7C9AB9"/><stop offset="100%" stop-color="#304D6D"/></linearGradient></defs><g><g id="cluster_##3"><rect fill="url(#gt3nmt8fqulne0)" height="216.1979" rx="4.1667" ry="4.1667" style="stroke:#446E9B;stroke-width:2.0833333333333335;" width="369.7917" x="77.0833" y="17.7083"/></g><g id="elem_reg"><ellipse cx="151.0374" cy="68.9255" fill="url(#gt3nmt8fqulne1)" rx="57.6311" ry="20.7797" style="stroke:#304D6D;stroke-width:2.0833333333333335;"/><text fill="#FFFFFF" font-family="Verdana" font-size="12.5" lengthAdjust="spacing" textLength="54.1667" x="123.9541" y="71.1695">Registro</text></g><g id="elem_pago"><ellipse cx="166.6616" cy="196.4567" fill="url(#gt3nmt8fqulne1)" rx="73.0991" ry="20.7797" style="stroke:#304D6D;stroke-width:2.0833333333333335;"/><text fill="#FFFFFF" font-family="Verdana" font-size="12.5" lengthAdjust="spacing" textLength="76.0417" x="128.6408" y="198.7008">Pago Cuota</text></g><g id="elem_entcar"><ellipse cx="337.4953" cy="68.9303" fill="url(#gt3nmt8fqulne1)" rx="92.5682" ry="21.0136" style="stroke:#304D6D;stroke-width:2.0833333333333335;"/><text fill="#FFFFFF" font-family="Verdana" font-size="12.5" lengthAdjust="spacing" textLength="105.2083" x="284.8911" y="71.1744">Entregar Carnet</text></g><!--entity cli--><g id="elem_cli"><ellipse cx="34.375" cy="34.0417" fill="url(#gt3nmt8fqulne1)" rx="8.3333" ry="8.3333" style="stroke:#304D6D;stroke-width:1.0416666666666667;"/><path d="M34.375,42.375 L34.375,70.5 M20.8333,50.7083 L47.9167,50.7083 M34.375,70.5 L20.8333,86.125 M34.375,70.5 L47.9167,86.125 " fill="none" style="stroke:#304D6D;stroke-width:1.0416666666666667;"/><text fill="#FFFFFF" font-family="Verdana" font-size="12.5" lengthAdjust="spacing" textLength="35.4167" x="16.6667" y="105.0194">Socio</text></g><!--link cli to reg--><g id="link_cli_reg"><path d="M57.6146,68.9271 C69.4167,68.9271 74.9688,68.9271 86.7708,68.9271 " fill="none" id="cli-to-reg" style="stroke:#446E9B;stroke-width:3.125;"/><polygon fill="#446E9B" points="93.0208,68.9271,83.6458,64.7604,87.8125,68.9271,83.6458,73.0938,93.0208,68.9271" style="stroke:#446E9B;stroke-width:3.125;"/></g><!--link reg to pago--><g id="link_reg_pago"><path d="M153.5521,90.125 C156.4688,113.5313 160.4765,145.7251 163.3931,169.1106 " fill="none" id="reg-to-pago" style="stroke:#446E9B;stroke-width:3.125;"/><polygon fill="#446E9B" points="164.1667,175.3125,167.141,165.4939,163.5221,170.1442,158.8718,166.5253,164.1667,175.3125" style="stroke:#446E9B;stroke-width:3.125;"/></g><!--reverse link reg to entcar--><g id="link_reg_entcar"><path d="M215.1979,68.9271 C227.0833,68.9271 232.7188,68.9271 244.6042,68.9271 " fill="none" id="reg-backto-entcar" style="stroke:#446E9B;stroke-width:3.125;stroke-dasharray:7.0,7.0;"/><polygon fill="#446E9B" points="208.9479,68.9271,218.3229,73.0938,214.1563,68.9271,218.3229,64.7604,208.9479,68.9271" style="stroke:#446E9B;stroke-width:3.125;"/></g><!--link cli to pago--><g id="link_cli_pago"><path d="M57.6667,93.9479 C63.9167,100.2604 70.7083,107.0313 77.0833,113.1771 C100.0417,135.3021 122.4376,155.7566 140.7605,172.2462 " fill="none" id="cli-to-pago" style="stroke:#446E9B;stroke-width:3.125;"/><polygon fill="#446E9B" points="145.4063,176.4271,141.2249,167.0586,141.5348,172.943,135.6504,173.2529,145.4063,176.4271" style="stroke:#446E9B;stroke-width:3.125;"/></g><!--SRC=[JKtD2i8m3BxdAUAjFNGFCCJBy2xw1B64MgZjoE9f-EvsPg0v1Bx_WpxuoRZC5BdG7M2yjPZRYBHWB1b0E2hLL1XNm7xkoYalAirl5YUSlF4NIWsdLrCoPUvubyvLkuy49vBAQZfNZIGUtW2kBtaC4avxuVTZsB3L674SPFW5_rFcWWy0]--></g></svg>