<?xml version="1.0" encoding="us-ascii" standalone="no"?><svg xmlns="http://www.w3.org/2000/svg" xmlns:xlink="http://www.w3.org/1999/xlink" contentStyleType="text/css" height="253.125px" preserveAspectRatio="none" style="width:467px;height:253px;" version="1.1" viewBox="0 0 467 253" width="467.7083px" zoomAndPan="magnify"><defs><linearGradient id="gqjm433vy478z0" x1="50%" x2="50%" y1="0%" y2="100%"><stop offset="0%" stop-color="#B8B8B8"/><stop offset="100%" stop-color="#6B6B6B"/></linearGradient><linearGradient id="gqjm433vy478z1" x1="50%" x2="50%" y1="0%" y2="100%"><stop offset="0%" stop-color="#7C9AB9"/><stop offset="100%" stop-color="#304D6D"/></linearGradient></defs><g><g id="cluster_##3"><rect fill="url(#gqjm433vy478z0)" height="224.7396" rx="4.1667" ry="4.1667" style="stroke:#446E9B;stroke-width:2.0833333333333335;" width="369.7917" x="86.9792" y="17.7083"/></g><g id="elem_reg"><ellipse cx="160.9332" cy="68.9255" fill="url(#gqjm433vy478z1)" rx="57.6311" ry="20.7797" style="stroke:#304D6D;stroke-width:2.0833333333333335;"/><text fill="#FFFFFF" font-family="Verdana" font-size="12.5" lengthAdjust="spacing" textLength="54.1667" x="133.8499" y="71.1695">Registro</text></g><g id="elem_pago"><ellipse cx="216.1435" cy="200.7245" fill="url(#gqjm433vy478z1)" rx="112.7372" ry="25.0474" style="stroke:#304D6D;stroke-width:2.0833333333333335;"/><text fill="#FFFFFF" font-family="Verdana" font-size="12.5" lengthAdjust="spacing" textLength="157.2917" x="137.4977" y="202.9686">Pago[Cuota o actividad]</text></g><g id="elem_entcar"><ellipse cx="347.3911" cy="68.9303" fill="url(#gqjm433vy478z1)" rx="92.5682" ry="21.0136" style="stroke:#304D6D;stroke-width:2.0833333333333335;"/><text fill="#FFFFFF" font-family="Verdana" font-size="12.5" lengthAdjust="spacing" textLength="105.2083" x="294.787" y="71.1744">Entregar Carnet</text></g><!--entity cli--><g id="elem_cli"><ellipse cx="39.0625" cy="34.0521" fill="url(#gqjm433vy478z1)" rx="8.3333" ry="8.3333" style="stroke:#304D6D;stroke-width:1.0416666666666667;"/><path d="M39.0625,42.3854 L39.0625,70.5104 M25.5208,50.7188 L52.6042,50.7188 M39.0625,70.5104 L25.5208,86.1354 M39.0625,70.5104 L52.6042,86.1354 " fill="none" style="stroke:#304D6D;stroke-width:1.0416666666666667;"/><text fill="#FFFFFF" font-family="Verdana" font-size="12.5" lengthAdjust="spacing" textLength="44.7917" x="16.6667" y="105.0299">Cliente</text></g><!--link cli to reg--><g id="link_cli_reg"><path d="M67.1458,68.9271 C79.1146,68.9271 84.8333,68.9271 96.8021,68.9271 " fill="none" id="cli-to-reg" style="stroke:#446E9B;stroke-width:3.125;"/><polygon fill="#446E9B" points="103.0521,68.9271,93.6771,64.7604,97.8438,68.9271,93.6771,73.0937,103.0521,68.9271" style="stroke:#446E9B;stroke-width:3.125;"/></g><!--link reg to pago--><g id="link_reg_pago"><path d="M169.4479,89.9583 C179.2396,112.9792 192.8967,145.0615 203.3967,169.7385 " fill="none" id="reg-to-pago" style="stroke:#446E9B;stroke-width:3.125;"/><polygon fill="#446E9B" points="205.8438,175.4896,206.0072,165.2317,203.8045,170.697,198.3392,168.4944,205.8438,175.4896" style="stroke:#446E9B;stroke-width:3.125;"/></g><!--reverse link reg to entcar--><g id="link_reg_entcar"><path d="M225.0938,68.9271 C236.9792,68.9271 242.6146,68.9271 254.5,68.9271 " fill="none" id="reg-backto-entcar" style="stroke:#446E9B;stroke-width:3.125;stroke-dasharray:7.0,7.0;"/><polygon fill="#446E9B" points="218.8438,68.9271,228.2188,73.0937,224.0521,68.9271,228.2188,64.7604,218.8438,68.9271" style="stroke:#446E9B;stroke-width:3.125;"/></g><!--link cli to pago--><g id="link_cli_pago"><path d="M66.8542,96.2604 C73.3125,102.0208 80.2604,107.9583 86.9792,113.1875 C116.6771,136.3333 147.0863,156.5905 173.4196,173.2885 " fill="none" id="cli-to-pago" style="stroke:#446E9B;stroke-width:3.125;"/><polygon fill="#446E9B" points="178.6979,176.6354,173.0118,168.0961,174.2993,173.8463,168.5492,175.1338,178.6979,176.6354" style="stroke:#446E9B;stroke-width:3.125;"/></g><!--SRC=[JOsn3i8m34HtVuNPcY7zW0gnLEo85J6Or0gHGb8vBWlYtqb99V1WoNVlV3kzyuEnpEGuqWrW66FWf3mW5NGn00WxfUGZumkmJdTc7ufADYlI2NlJz1FvV1cNh8GPoMbuXeccQyFcQcxSCMaDaU18abYRNpiTYO4tG5Th3LgnX-txTwDTx_Qc2VjU-b_mFzKe-000]--></g></svg>