<?xml version="1.0" encoding="us-ascii" standalone="no"?><svg xmlns="http://www.w3.org/2000/svg" xmlns:xlink="http://www.w3.org/1999/xlink" contentStyleType="text/css" height="246.875px" preserveAspectRatio="none" style="width:334px;height:246px;" version="1.1" viewBox="0 0 334 246" width="334.375px" zoomAndPan="magnify"><defs><linearGradient id="g19sxv6u9k5i1i0" x1="50%" x2="50%" y1="0%" y2="100%"><stop offset="0%" stop-color="#B8B8B8"/><stop offset="100%" stop-color="#6B6B6B"/></linearGradient><linearGradient id="g19sxv6u9k5i1i1" x1="50%" x2="50%" y1="0%" y2="100%"><stop offset="0%" stop-color="#7C9AB9"/><stop offset="100%" stop-color="#304D6D"/></linearGradient></defs><g><g id="cluster_##3"><rect fill="url(#g19sxv6u9k5i1i0)" height="218.1146" rx="4.1667" ry="4.1667" style="stroke:#446E9B;stroke-width:2.0833333333333335;" width="227.0833" x="96.3542" y="17.7083"/></g><g id="elem_reg"><ellipse cx="191.1416" cy="68.6963" fill="url(#g19sxv6u9k5i1i1)" rx="57.6311" ry="20.7797" style="stroke:#304D6D;stroke-width:2.0833333333333335;"/><text fill="#FFFFFF" font-family="Verdana" font-size="12.5" lengthAdjust="spacing" textLength="54.1667" x="164.0582" y="70.9404">Registro</text></g><g id="elem_pago"><ellipse cx="209.8925" cy="197.2993" fill="url(#g19sxv6u9k5i1i1)" rx="96.7571" ry="21.8514" style="stroke:#304D6D;stroke-width:2.0833333333333335;"/><text fill="#FFFFFF" font-family="Verdana" font-size="12.5" lengthAdjust="spacing" textLength="116.6667" x="151.5591" y="199.5434">Pago de Actividad</text></g><!--entity cli--><g id="elem_cli"><ellipse cx="45.3125" cy="33.8229" fill="url(#g19sxv6u9k5i1i1)" rx="8.3333" ry="8.3333" style="stroke:#304D6D;stroke-width:1.0416666666666667;"/><path d="M45.3125,42.1563 L45.3125,70.2813 M31.7708,50.4896 L58.8542,50.4896 M45.3125,70.2813 L31.7708,85.9063 M45.3125,70.2813 L58.8542,85.9063 " fill="none" style="stroke:#304D6D;stroke-width:1.0416666666666667;"/><text fill="#FFFFFF" font-family="Verdana" font-size="12.5" lengthAdjust="spacing" textLength="57.2917" x="16.6667" y="104.8007">No Socio</text></g><!--link cli to reg--><g id="link_cli_reg"><path d="M79.4896,68.6979 C97.375,68.6979 109.0104,68.6979 126.8854,68.6979 " fill="none" id="cli-to-reg" style="stroke:#446E9B;stroke-width:3.125;"/><polygon fill="#446E9B" points="133.1354,68.6979,123.7604,64.5312,127.9271,68.6979,123.7604,72.8646,133.1354,68.6979" style="stroke:#446E9B;stroke-width:3.125;"/></g><!--link reg to pago--><g id="link_reg_pago"><path d="M194.1146,89.7917 C197.5625,113.0625 202.313,145.0988 205.8339,168.8592 " fill="none" id="reg-to-pago" style="stroke:#446E9B;stroke-width:3.125;"/><polygon fill="#446E9B" points="206.75,175.0417,209.4975,165.1572,205.9866,169.8896,201.2541,166.3787,206.75,175.0417" style="stroke:#446E9B;stroke-width:3.125;"/></g><!--link cli to pago--><g id="link_cli_pago"><path d="M79.6354,99.3542 C85.1771,103.9792 90.8854,108.6354 96.3542,112.9583 C124.7708,135.3646 153.1816,156.0803 176.4004,172.6324 " fill="none" id="cli-to-pago" style="stroke:#446E9B;stroke-width:3.125;"/><polygon fill="#446E9B" points="181.4896,176.2604,176.2744,167.4256,177.2486,173.2371,171.4371,174.2113,181.4896,176.2604" style="stroke:#446E9B;stroke-width:3.125;"/></g><!--SRC=[JOn12a8n34JtESMuQnUzm5y8Na14Jn3JK0lLVDhYHhox_TQ5MGpCuqrs_QPtHLjPjF2LQ3aQBYRP5d23b4nKLJe_Kb6y2EFSMLDklPhV55Sr-SbFd0nHSP2UdpbodC8wiAStaHllF48D-z_gcmXRdzA_CGbz0000]--></g></svg>