<?xml version="1.0" encoding="us-ascii" standalone="no"?><svg xmlns="http://www.w3.org/2000/svg" xmlns:xlink="http://www.w3.org/1999/xlink" contentStyleType="text/css" height="823.9583px" preserveAspectRatio="none" style="width:665px;height:823px;" version="1.1" viewBox="0 0 665 823" width="665.625px" zoomAndPan="magnify"><defs><linearGradient id="gr59xbfcufeba0" x1="50%" x2="50%" y1="0%" y2="100%"><stop offset="0%" stop-color="#7C9AB9"/><stop offset="100%" stop-color="#304D6D"/></linearGradient><linearGradient id="gr59xbfcufeba1" x1="50%" x2="50%" y1="0%" y2="100%"><stop offset="0%" stop-color="#7C9AB9"/><stop offset="100%" stop-color="#446E9B"/></linearGradient></defs><g><!--class Persona--><g id="elem_Persona"><rect codeLine="4" fill="url(#gr59xbfcufeba0)" height="122.1029" id="Persona" rx="4.1667" ry="4.1667" style="stroke:#304D6D;stroke-width:1.0416666666666667;" width="126.0417" x="474.4792" y="17.7083"/><rect fill="url(#gr59xbfcufeba1)" height="34.1715" rx="4.1667" ry="4.1667" style="stroke:url(#gr59xbfcufeba1);stroke-width:1.0416666666666667;" width="126.0417" x="474.4792" y="17.7083"/><rect fill="url(#gr59xbfcufeba1)" height="4.1667" style="stroke:url(#gr59xbfcufeba1);stroke-width:1.0416666666666667;" width="126.0417" x="474.4792" y="47.7132"/><rect codeLine="4" fill="none" height="122.1029" id="Persona" rx="4.1667" ry="4.1667" style="stroke:#304D6D;stroke-width:1.0416666666666667;" width="126.0417" x="474.4792" y="17.7083"/><ellipse cx="505" cy="34.7941" fill="none" rx="10.4167" ry="10.4167" style="stroke:#304D6D;stroke-width:1.0416666666666667;"/><path d="M506.9043,39.2212 Q506.4811,39.4328 506.0091,39.5467 Q505.5371,39.6606 505.0326,39.6606 Q503.1771,39.6606 502.2005,38.4562 Q501.2402,37.2355 501.2402,34.9406 Q501.2402,32.6294 502.2005,31.425 Q503.1771,30.2043 505.0326,30.2043 Q505.5371,30.2043 506.0091,30.3182 Q506.4974,30.4159 506.9043,30.6437 L506.9043,32.6457 Q506.4486,32.2225 506.0091,32.0272 Q505.5697,31.8156 505.1139,31.8156 Q504.1211,31.8156 503.6165,32.6131 Q503.112,33.3944 503.112,34.9406 Q503.112,36.4705 503.6165,37.2518 Q504.1211,38.033 505.1139,38.033 Q505.5697,38.033 506.0091,37.8377 Q506.4486,37.6424 506.9043,37.2192 L506.9043,39.2212 Z " fill="#FFFFFF"/><text fill="#EEEEEE" font-family="Verdana" font-size="11.4583" lengthAdjust="spacing" textLength="48.9583" x="527.2917" y="38.7609">Persona</text><line style="stroke:#304D6D;stroke-width:1.0416666666666667;" x1="475.5208" x2="599.4792" y1="51.8799" y2="51.8799"/><rect fill="none" height="6.25" style="stroke:#304D6D;stroke-width:1.0416666666666667;" width="6.25" x="482.8125" y="66.3615"/><text fill="#EEEEEE" font-family="Verdana" font-size="11.4583" lengthAdjust="spacing" textLength="89.5833" x="499.4792" y="71.8908">nombre: String</text><rect fill="none" height="6.25" style="stroke:#304D6D;stroke-width:1.0416666666666667;" width="6.25" x="482.8125" y="90.1164"/><text fill="#EEEEEE" font-family="Verdana" font-size="11.4583" lengthAdjust="spacing" textLength="89.5833" x="499.4792" y="95.6457">apellido: String</text><rect fill="none" height="6.25" style="stroke:#304D6D;stroke-width:1.0416666666666667;" width="6.25" x="482.8125" y="113.8713"/><text fill="#EEEEEE" font-family="Verdana" font-size="11.4583" lengthAdjust="spacing" textLength="61.4583" x="499.4792" y="119.4005">dni: String</text><line style="stroke:#304D6D;stroke-width:1.0416666666666667;" x1="475.5208" x2="599.4792" y1="131.4779" y2="131.4779"/></g><!--class Socio--><g id="elem_Socio"><rect codeLine="10" fill="url(#gr59xbfcufeba0)" height="217.1224" id="Socio" rx="4.1667" ry="4.1667" style="stroke:#304D6D;stroke-width:1.0416666666666667;" width="192.7083" x="200.5208" y="202.3125"/><rect fill="url(#gr59xbfcufeba1)" height="34.1715" rx="4.1667" ry="4.1667" style="stroke:url(#gr59xbfcufeba1);stroke-width:1.0416666666666667;" width="192.7083" x="200.5208" y="202.3125"/><rect fill="url(#gr59xbfcufeba1)" height="4.1667" style="stroke:url(#gr59xbfcufeba1);stroke-width:1.0416666666666667;" width="192.7083" x="200.5208" y="232.3174"/><rect codeLine="10" fill="none" height="217.1224" id="Socio" rx="4.1667" ry="4.1667" style="stroke:#304D6D;stroke-width:1.0416666666666667;" width="192.7083" x="200.5208" y="202.3125"/><ellipse cx="271.3542" cy="219.3983" fill="none" rx="10.4167" ry="10.4167" style="stroke:#304D6D;stroke-width:1.0416666666666667;"/><path d="M273.2585,223.8254 Q272.8353,224.0369 272.3633,224.1509 Q271.8913,224.2648 271.3867,224.2648 Q269.5313,224.2648 268.5547,223.0604 Q267.5944,221.8397 267.5944,219.5448 Q267.5944,217.2336 268.5547,216.0291 Q269.5313,214.8084 271.3867,214.8084 Q271.8913,214.8084 272.3633,214.9224 Q272.8516,215.02 273.2585,215.2479 L273.2585,217.2498 Q272.8027,216.8267 272.3633,216.6313 Q271.9238,216.4198 271.4681,216.4198 Q270.4753,216.4198 269.9707,217.2173 Q269.4661,217.9985 269.4661,219.5448 Q269.4661,221.0747 269.9707,221.856 Q270.4753,222.6372 271.4681,222.6372 Q271.9238,222.6372 272.3633,222.4419 Q272.8027,222.2466 273.2585,221.8234 L273.2585,223.8254 Z " fill="#FFFFFF"/><text fill="#EEEEEE" font-family="Verdana" font-size="11.4583" lengthAdjust="spacing" textLength="32.2917" x="296.3542" y="223.3651">Socio</text><line style="stroke:#304D6D;stroke-width:1.0416666666666667;" x1="201.5625" x2="392.1875" y1="236.484" y2="236.484"/><rect fill="none" height="6.25" style="stroke:#304D6D;stroke-width:1.0416666666666667;" width="6.25" x="208.8542" y="250.9657"/><text fill="#EEEEEE" font-family="Verdana" font-size="11.4583" lengthAdjust="spacing" textLength="131.25" x="225.5208" y="256.4949">fechaInscripcion: Date</text><rect fill="none" height="6.25" style="stroke:#304D6D;stroke-width:1.0416666666666667;" width="6.25" x="208.8542" y="274.7205"/><text fill="#EEEEEE" font-family="Verdana" font-size="11.4583" lengthAdjust="spacing" textLength="145.8333" x="225.5208" y="280.2498">cuotaDiaVencimiento: Int</text><rect fill="none" height="6.25" style="stroke:#304D6D;stroke-width:1.0416666666666667;" width="6.25" x="208.8542" y="298.4754"/><text fill="#EEEEEE" font-family="Verdana" font-size="11.4583" lengthAdjust="spacing" textLength="156.25" x="225.5208" y="304.0047">cuotaFechaUltimoPago: Int</text><rect fill="none" height="6.25" style="stroke:#304D6D;stroke-width:1.0416666666666667;" width="6.25" x="208.8542" y="322.2303"/><text fill="#EEEEEE" font-family="Verdana" font-size="11.4583" lengthAdjust="spacing" textLength="90.625" x="225.5208" y="327.7596">cuotas: Cuota[]</text><rect fill="none" height="6.25" style="stroke:#304D6D;stroke-width:1.0416666666666667;" width="6.25" x="208.8542" y="345.9852"/><text fill="#EEEEEE" font-family="Verdana" font-size="11.4583" lengthAdjust="spacing" textLength="85.4167" x="225.5208" y="351.5145">carnet: Carnet</text><line style="stroke:#304D6D;stroke-width:1.0416666666666667;" x1="201.5625" x2="392.1875" y1="363.5918" y2="363.5918"/><ellipse cx="211.9792" cy="381.1984" fill="none" rx="3.125" ry="3.125" style="stroke:#304D6D;stroke-width:1.0416666666666667;"/><text fill="#EEEEEE" font-family="Verdana" font-size="11.4583" lengthAdjust="spacing" textLength="101.0417" x="225.5208" y="383.6027">registrar(): Socio</text><ellipse cx="211.9792" cy="404.9533" fill="none" rx="3.125" ry="3.125" style="stroke:#304D6D;stroke-width:1.0416666666666667;"/><text fill="#EEEEEE" font-family="Verdana" font-size="11.4583" lengthAdjust="spacing" textLength="150" x="225.5208" y="407.3576">pagar(cuota: Cuota): void</text></g><!--class Carnet--><g id="elem_Carnet"><rect codeLine="20" fill="url(#gr59xbfcufeba0)" height="122.1029" id="Carnet" rx="4.1667" ry="4.1667" style="stroke:#304D6D;stroke-width:1.0416666666666667;" width="183.3333" x="17.7083" y="505.6875"/><rect fill="url(#gr59xbfcufeba1)" height="34.1715" rx="4.1667" ry="4.1667" style="stroke:url(#gr59xbfcufeba1);stroke-width:1.0416666666666667;" width="183.3333" x="17.7083" y="505.6875"/><rect fill="url(#gr59xbfcufeba1)" height="4.1667" style="stroke:url(#gr59xbfcufeba1);stroke-width:1.0416666666666667;" width="183.3333" x="17.7083" y="535.6924"/><rect codeLine="20" fill="none" height="122.1029" id="Carnet" rx="4.1667" ry="4.1667" style="stroke:#304D6D;stroke-width:1.0416666666666667;" width="183.3333" x="17.7083" y="505.6875"/><ellipse cx="80.2083" cy="522.7733" fill="none" rx="10.4167" ry="10.4167" style="stroke:#304D6D;stroke-width:1.0416666666666667;"/><path d="M82.1126,527.2004 Q81.6895,527.4119 81.2174,527.5259 Q80.7454,527.6398 80.2409,527.6398 Q78.3854,527.6398 77.4089,526.4354 Q76.4486,525.2147 76.4486,522.9198 Q76.4486,520.6086 77.4089,519.4041 Q78.3854,518.1834 80.2409,518.1834 Q80.7454,518.1834 81.2174,518.2974 Q81.7057,518.395 82.1126,518.6229 L82.1126,520.6248 Q81.6569,520.2017 81.2174,520.0063 Q80.778,519.7948 80.3223,519.7948 Q79.3294,519.7948 78.8249,520.5923 Q78.3203,521.3735 78.3203,522.9198 Q78.3203,524.4497 78.8249,525.231 Q79.3294,526.0122 80.3223,526.0122 Q80.778,526.0122 81.2174,525.8169 Q81.6569,525.6216 82.1126,525.1984 L82.1126,527.2004 Z " fill="#FFFFFF"/><text fill="#EEEEEE" font-family="Verdana" font-size="11.4583" lengthAdjust="spacing" textLength="39.5833" x="105.2083" y="526.7401">Carnet</text><line style="stroke:#304D6D;stroke-width:1.0416666666666667;" x1="18.75" x2="200" y1="539.859" y2="539.859"/><rect fill="none" height="6.25" style="stroke:#304D6D;stroke-width:1.0416666666666667;" width="6.25" x="26.0417" y="554.3407"/><text fill="#EEEEEE" font-family="Verdana" font-size="11.4583" lengthAdjust="spacing" textLength="108.3333" x="42.7083" y="559.8699">numeroCarnet: Int</text><rect fill="none" height="6.25" style="stroke:#304D6D;stroke-width:1.0416666666666667;" width="6.25" x="26.0417" y="578.0955"/><text fill="#EEEEEE" font-family="Verdana" font-size="11.4583" lengthAdjust="spacing" textLength="114.5833" x="42.7083" y="583.6248">fechaEmision: Date</text><line style="stroke:#304D6D;stroke-width:1.0416666666666667;" x1="18.75" x2="200" y1="595.7021" y2="595.7021"/><ellipse cx="29.1667" cy="613.3088" fill="none" rx="3.125" ry="3.125" style="stroke:#304D6D;stroke-width:1.0416666666666667;"/><text fill="#EEEEEE" font-family="Verdana" font-size="11.4583" lengthAdjust="spacing" textLength="146.875" x="42.7083" y="615.713">emitir(socio: Socio): void</text></g><!--class NoSocio--><g id="elem_NoSocio"><rect codeLine="29" fill="url(#gr59xbfcufeba0)" height="122.1029" id="NoSocio" rx="4.1667" ry="4.1667" style="stroke:#304D6D;stroke-width:1.0416666666666667;" width="223.9583" x="429.6875" y="249.8229"/><rect fill="url(#gr59xbfcufeba1)" height="34.1715" rx="4.1667" ry="4.1667" style="stroke:url(#gr59xbfcufeba1);stroke-width:1.0416666666666667;" width="223.9583" x="429.6875" y="249.8229"/><rect fill="url(#gr59xbfcufeba1)" height="4.1667" style="stroke:url(#gr59xbfcufeba1);stroke-width:1.0416666666666667;" width="223.9583" x="429.6875" y="279.8278"/><rect codeLine="29" fill="none" height="122.1029" id="NoSocio" rx="4.1667" ry="4.1667" style="stroke:#304D6D;stroke-width:1.0416666666666667;" width="223.9583" x="429.6875" y="249.8229"/><ellipse cx="508.3333" cy="266.9087" fill="none" rx="10.4167" ry="10.4167" style="stroke:#304D6D;stroke-width:1.0416666666666667;"/><path d="M510.2376,271.3358 Q509.8145,271.5474 509.3424,271.6613 Q508.8704,271.7752 508.3659,271.7752 Q506.5104,271.7752 505.5339,270.5708 Q504.5736,269.3501 504.5736,267.0552 Q504.5736,264.744 505.5339,263.5396 Q506.5104,262.3188 508.3659,262.3188 Q508.8704,262.3188 509.3424,262.4328 Q509.8307,262.5304 510.2376,262.7583 L510.2376,264.7603 Q509.7819,264.3371 509.3424,264.1418 Q508.903,263.9302 508.4473,263.9302 Q507.4544,263.9302 506.9499,264.7277 Q506.4453,265.509 506.4453,267.0552 Q506.4453,268.5851 506.9499,269.3664 Q507.4544,270.1476 508.4473,270.1476 Q508.903,270.1476 509.3424,269.9523 Q509.7819,269.757 510.2376,269.3338 L510.2376,271.3358 Z " fill="#FFFFFF"/><text fill="#EEEEEE" font-family="Verdana" font-size="11.4583" lengthAdjust="spacing" textLength="47.9167" x="533.3333" y="270.8755">NoSocio</text><line style="stroke:#304D6D;stroke-width:1.0416666666666667;" x1="430.7292" x2="652.6042" y1="283.9945" y2="283.9945"/><rect fill="none" height="6.25" style="stroke:#304D6D;stroke-width:1.0416666666666667;" width="6.25" x="438.0208" y="298.4761"/><text fill="#EEEEEE" font-family="Verdana" font-size="11.4583" lengthAdjust="spacing" textLength="135.4167" x="454.6875" y="304.0054">actividades: Actividad[]</text><line style="stroke:#304D6D;stroke-width:1.0416666666666667;" x1="430.7292" x2="652.6042" y1="316.0827" y2="316.0827"/><ellipse cx="441.1458" cy="333.6893" fill="none" rx="3.125" ry="3.125" style="stroke:#304D6D;stroke-width:1.0416666666666667;"/><text fill="#EEEEEE" font-family="Verdana" font-size="11.4583" lengthAdjust="spacing" textLength="116.6667" x="454.6875" y="336.0936">registrar(): NoSocio</text><ellipse cx="441.1458" cy="357.4442" fill="none" rx="3.125" ry="3.125" style="stroke:#304D6D;stroke-width:1.0416666666666667;"/><text fill="#EEEEEE" font-family="Verdana" font-size="11.4583" lengthAdjust="spacing" textLength="187.5" x="454.6875" y="359.8484">pagar(actividad: Actividad): void</text></g><!--class Actividad--><g id="elem_Actividad"><rect codeLine="35" fill="url(#gr59xbfcufeba0)" height="98.348" id="Actividad" rx="4.1667" ry="4.1667" style="stroke:#304D6D;stroke-width:1.0416666666666667;" width="131.25" x="476.0417" y="517.5625"/><rect fill="url(#gr59xbfcufeba1)" height="34.1715" rx="4.1667" ry="4.1667" style="stroke:url(#gr59xbfcufeba1);stroke-width:1.0416666666666667;" width="131.25" x="476.0417" y="517.5625"/><rect fill="url(#gr59xbfcufeba1)" height="4.1667" style="stroke:url(#gr59xbfcufeba1);stroke-width:1.0416666666666667;" width="131.25" x="476.0417" y="547.5674"/><rect codeLine="35" fill="none" height="98.348" id="Actividad" rx="4.1667" ry="4.1667" style="stroke:#304D6D;stroke-width:1.0416666666666667;" width="131.25" x="476.0417" y="517.5625"/><ellipse cx="507.5" cy="534.6483" fill="none" rx="10.4167" ry="10.4167" style="stroke:#304D6D;stroke-width:1.0416666666666667;"/><path d="M509.4043,539.0754 Q508.9811,539.2869 508.5091,539.4009 Q508.0371,539.5148 507.5326,539.5148 Q505.6771,539.5148 504.7005,538.3104 Q503.7402,537.0897 503.7402,534.7948 Q503.7402,532.4836 504.7005,531.2791 Q505.6771,530.0584 507.5326,530.0584 Q508.0371,530.0584 508.5091,530.1724 Q508.9974,530.27 509.4043,530.4979 L509.4043,532.4998 Q508.9486,532.0767 508.5091,531.8813 Q508.0697,531.6698 507.6139,531.6698 Q506.6211,531.6698 506.1165,532.4673 Q505.612,533.2485 505.612,534.7948 Q505.612,536.3247 506.1165,537.106 Q506.6211,537.8872 507.6139,537.8872 Q508.0697,537.8872 508.5091,537.6919 Q508.9486,537.4966 509.4043,537.0734 L509.4043,539.0754 Z " fill="#FFFFFF"/><text fill="#EEEEEE" font-family="Verdana" font-size="11.4583" lengthAdjust="spacing" textLength="52.0833" x="530" y="538.6151">Actividad</text><line style="stroke:#304D6D;stroke-width:1.0416666666666667;" x1="477.0833" x2="606.25" y1="551.734" y2="551.734"/><rect fill="none" height="6.25" style="stroke:#304D6D;stroke-width:1.0416666666666667;" width="6.25" x="484.375" y="566.2157"/><text fill="#EEEEEE" font-family="Verdana" font-size="11.4583" lengthAdjust="spacing" textLength="89.5833" x="501.0417" y="571.7449">nombre: String</text><rect fill="none" height="6.25" style="stroke:#304D6D;stroke-width:1.0416666666666667;" width="6.25" x="484.375" y="589.9705"/><text fill="#EEEEEE" font-family="Verdana" font-size="11.4583" lengthAdjust="spacing" textLength="94.7917" x="501.0417" y="595.4998">importe: Double</text><line style="stroke:#304D6D;stroke-width:1.0416666666666667;" x1="477.0833" x2="606.25" y1="607.5771" y2="607.5771"/></g><!--class Cuota--><g id="elem_Cuota"><rect codeLine="45" fill="url(#gr59xbfcufeba0)" height="169.6126" id="Cuota" rx="4.1667" ry="4.1667" style="stroke:#304D6D;stroke-width:1.0416666666666667;" width="176.0417" x="236.9792" y="481.9375"/><rect fill="url(#gr59xbfcufeba1)" height="34.1715" rx="4.1667" ry="4.1667" style="stroke:url(#gr59xbfcufeba1);stroke-width:1.0416666666666667;" width="176.0417" x="236.9792" y="481.9375"/><rect fill="url(#gr59xbfcufeba1)" height="4.1667" style="stroke:url(#gr59xbfcufeba1);stroke-width:1.0416666666666667;" width="176.0417" x="236.9792" y="511.9424"/><rect codeLine="45" fill="none" height="169.6126" id="Cuota" rx="4.1667" ry="4.1667" style="stroke:#304D6D;stroke-width:1.0416666666666667;" width="176.0417" x="236.9792" y="481.9375"/><ellipse cx="298.4375" cy="499.0233" fill="none" rx="10.4167" ry="10.4167" style="stroke:#304D6D;stroke-width:1.0416666666666667;"/><path d="M300.3418,503.4504 Q299.9186,503.6619 299.4466,503.7759 Q298.9746,503.8898 298.4701,503.8898 Q296.6146,503.8898 295.638,502.6854 Q294.6777,501.4647 294.6777,499.1698 Q294.6777,496.8586 295.638,495.6541 Q296.6146,494.4334 298.4701,494.4334 Q298.9746,494.4334 299.4466,494.5474 Q299.9349,494.645 300.3418,494.8729 L300.3418,496.8748 Q299.8861,496.4517 299.4466,496.2563 Q299.0072,496.0448 298.5514,496.0448 Q297.5586,496.0448 297.054,496.8423 Q296.5495,497.6235 296.5495,499.1698 Q296.5495,500.6997 297.054,501.481 Q297.5586,502.2622 298.5514,502.2622 Q299.0072,502.2622 299.4466,502.0669 Q299.8861,501.8716 300.3418,501.4484 L300.3418,503.4504 Z " fill="#FFFFFF"/><text fill="#EEEEEE" font-family="Verdana" font-size="11.4583" lengthAdjust="spacing" textLength="34.375" x="323.4375" y="502.9901">Cuota</text><line style="stroke:#304D6D;stroke-width:1.0416666666666667;" x1="238.0208" x2="411.9792" y1="516.109" y2="516.109"/><rect fill="none" height="6.25" style="stroke:#304D6D;stroke-width:1.0416666666666667;" width="6.25" x="245.3125" y="530.5907"/><text fill="#EEEEEE" font-family="Verdana" font-size="11.4583" lengthAdjust="spacing" textLength="94.7917" x="261.9792" y="536.1199">importe: Double</text><rect fill="none" height="6.25" style="stroke:#304D6D;stroke-width:1.0416666666666667;" width="6.25" x="245.3125" y="554.3455"/><text fill="#EEEEEE" font-family="Verdana" font-size="11.4583" lengthAdjust="spacing" textLength="139.5833" x="261.9792" y="559.8748">fechaVencimiento: Date</text><rect fill="none" height="6.25" style="stroke:#304D6D;stroke-width:1.0416666666666667;" width="6.25" x="245.3125" y="578.1004"/><text fill="#EEEEEE" font-family="Verdana" font-size="11.4583" lengthAdjust="spacing" textLength="114.5833" x="261.9792" y="583.6297">cantidadCuotas: Int</text><rect fill="none" height="6.25" style="stroke:#304D6D;stroke-width:1.0416666666666667;" width="6.25" x="245.3125" y="601.8553"/><text fill="#EEEEEE" font-family="Verdana" font-size="11.4583" lengthAdjust="spacing" textLength="96.875" x="261.9792" y="607.3846">fechaPago: Date</text><rect fill="none" height="6.25" style="stroke:#304D6D;stroke-width:1.0416666666666667;" width="6.25" x="245.3125" y="625.6102"/><text fill="#EEEEEE" font-family="Verdana" font-size="11.4583" lengthAdjust="spacing" textLength="137.5" x="261.9792" y="631.1395">medioPago: MedioPago</text><line style="stroke:#304D6D;stroke-width:1.0416666666666667;" x1="238.0208" x2="411.9792" y1="643.2168" y2="643.2168"/></g><!--class MedioPago--><g id="elem_MedioPago"><rect codeLine="55" fill="url(#gr59xbfcufeba0)" height="98.348" id="MedioPago" rx="4.1667" ry="4.1667" style="stroke:#304D6D;stroke-width:1.0416666666666667;" width="162.5" x="243.75" y="714.0521"/><rect fill="url(#gr59xbfcufeba1)" height="34.1715" rx="4.1667" ry="4.1667" style="stroke:url(#gr59xbfcufeba1);stroke-width:1.0416666666666667;" width="162.5" x="243.75" y="714.0521"/><rect fill="url(#gr59xbfcufeba1)" height="4.1667" style="stroke:url(#gr59xbfcufeba1);stroke-width:1.0416666666666667;" width="162.5" x="243.75" y="744.057"/><rect codeLine="55" fill="none" height="98.348" id="MedioPago" rx="4.1667" ry="4.1667" style="stroke:#304D6D;stroke-width:1.0416666666666667;" width="162.5" x="243.75" y="714.0521"/><ellipse cx="284.1146" cy="731.1379" fill="none" rx="10.4167" ry="10.4167" style="stroke:#304D6D;stroke-width:1.0416666666666667;"/><path d="M286.0189,735.5649 Q285.5957,735.7765 285.1237,735.8905 Q284.6517,736.0044 284.1471,736.0044 Q282.2917,736.0044 281.3151,734.8 Q280.3548,733.5793 280.3548,731.2843 Q280.3548,728.9731 281.3151,727.7687 Q282.2917,726.548 284.1471,726.548 Q284.6517,726.548 285.1237,726.6619 Q285.612,726.7596 286.0189,726.9875 L286.0189,728.9894 Q285.5632,728.5662 285.1237,728.3709 Q284.6842,728.1593 284.2285,728.1593 Q283.2357,728.1593 282.7311,728.9569 Q282.2266,729.7381 282.2266,731.2843 Q282.2266,732.8143 282.7311,733.5955 Q283.2357,734.3768 284.2285,734.3768 Q284.6842,734.3768 285.1237,734.1815 Q285.5632,733.9862 286.0189,733.563 L286.0189,735.5649 Z " fill="#FFFFFF"/><text fill="#EEEEEE" font-family="Verdana" font-size="11.4583" lengthAdjust="spacing" textLength="63.5417" x="308.5938" y="735.1046">MedioPago</text><line style="stroke:#304D6D;stroke-width:1.0416666666666667;" x1="244.7917" x2="405.2083" y1="748.2236" y2="748.2236"/><rect fill="none" height="6.25" style="stroke:#304D6D;stroke-width:1.0416666666666667;" width="6.25" x="252.0833" y="762.7052"/><text fill="#EEEEEE" font-family="Verdana" font-size="11.4583" lengthAdjust="spacing" textLength="126.0417" x="268.75" y="768.2345">cuotasPermitidas: Int</text><rect fill="none" height="6.25" style="stroke:#304D6D;stroke-width:1.0416666666666667;" width="6.25" x="252.0833" y="786.4601"/><text fill="#EEEEEE" font-family="Verdana" font-size="11.4583" lengthAdjust="spacing" textLength="89.5833" x="268.75" y="791.9894">nombre: String</text><line style="stroke:#304D6D;stroke-width:1.0416666666666667;" x1="244.7917" x2="405.2083" y1="804.0667" y2="804.0667"/></g><!--class ReporteVencimientos--><g id="elem_ReporteVencimientos"><rect codeLine="60" fill="url(#gr59xbfcufeba0)" height="74.5931" id="ReporteVencimientos" rx="4.1667" ry="4.1667" style="stroke:#304D6D;stroke-width:1.0416666666666667;" width="276.0417" x="158.8542" y="41.4687"/><rect fill="url(#gr59xbfcufeba1)" height="34.1715" rx="4.1667" ry="4.1667" style="stroke:url(#gr59xbfcufeba1);stroke-width:1.0416666666666667;" width="276.0417" x="158.8542" y="41.4687"/><rect fill="url(#gr59xbfcufeba1)" height="4.1667" style="stroke:url(#gr59xbfcufeba1);stroke-width:1.0416666666666667;" width="276.0417" x="158.8542" y="71.4736"/><rect codeLine="60" fill="none" height="74.5931" id="ReporteVencimientos" rx="4.1667" ry="4.1667" style="stroke:#304D6D;stroke-width:1.0416666666666667;" width="276.0417" x="158.8542" y="41.4687"/><ellipse cx="225" cy="58.5545" fill="none" rx="10.4167" ry="10.4167" style="stroke:#304D6D;stroke-width:1.0416666666666667;"/><path d="M226.9043,62.9816 Q226.4811,63.1932 226.0091,63.3071 Q225.5371,63.4211 225.0326,63.4211 Q223.1771,63.4211 222.2005,62.2166 Q221.2402,60.9959 221.2402,58.701 Q221.2402,56.3898 222.2005,55.1854 Q223.1771,53.9647 225.0326,53.9647 Q225.5371,53.9647 226.0091,54.0786 Q226.4974,54.1763 226.9043,54.4041 L226.9043,56.4061 Q226.4486,55.9829 226.0091,55.7876 Q225.5697,55.576 225.1139,55.576 Q224.1211,55.576 223.6165,56.3735 Q223.112,57.1548 223.112,58.701 Q223.112,60.231 223.6165,61.0122 Q224.1211,61.7935 225.1139,61.7935 Q225.5697,61.7935 226.0091,61.5981 Q226.4486,61.4028 226.9043,60.9797 L226.9043,62.9816 Z " fill="#FFFFFF"/><text fill="#EEEEEE" font-family="Verdana" font-size="11.4583" lengthAdjust="spacing" textLength="125" x="250" y="62.5213">ReporteVencimientos</text><line style="stroke:#304D6D;stroke-width:1.0416666666666667;" x1="159.8958" x2="433.8542" y1="75.6403" y2="75.6403"/><line style="stroke:#304D6D;stroke-width:1.0416666666666667;" x1="159.8958" x2="433.8542" y1="83.9736" y2="83.9736"/><ellipse cx="170.3125" cy="101.5802" fill="none" rx="3.125" ry="3.125" style="stroke:#304D6D;stroke-width:1.0416666666666667;"/><text fill="#EEEEEE" font-family="Verdana" font-size="11.4583" lengthAdjust="spacing" textLength="239.5833" x="183.8542" y="103.9845">generar(fechaVencimiento): List&lt;Socio&gt;</text></g><!--reverse link Socio to Carnet--><g id="link_Socio_Carnet"><path codeLine="26" d="M209.6574,429.9614 C188.0324,459.2426 172.8125,479.8333 153.9063,505.4375 " fill="none" id="Socio-backto-Carnet" style="stroke:#446E9B;stroke-width:3.125;"/><polygon fill="#446E9B" points="217.0833,419.9063,210.0187,422.4585,209.6574,429.9614,216.7221,427.4091,217.0833,419.9063" style="stroke:#446E9B;stroke-width:3.125;"/></g><!--reverse link NoSocio to Actividad--><g id="link_NoSocio_Actividad"><path codeLine="40" d="M541.6667,384.8854 C541.6667,429.1563 541.6667,475.9583 541.6667,517.1563 " fill="none" id="NoSocio-backto-Actividad" style="stroke:#446E9B;stroke-width:3.125;"/><polygon fill="#446E9B" points="541.6667,372.3854,537.5,378.6354,541.6667,384.8854,545.8333,378.6354,541.6667,372.3854" style="stroke:#446E9B;stroke-width:3.125;"/></g><!--reverse link Persona to Socio--><g id="link_Persona_Socio"><path codeLine="42" d="M460.7285,153.1966 C436.0826,176.7591 420.8229,191.3437 393.6771,217.2917 " fill="none" id="Persona-backto-Socio" style="stroke:#446E9B;stroke-width:3.125;"/><polygon fill="none" points="474.2813,140.2396,456.4095,148.679,465.0475,157.7142,474.2813,140.2396" style="stroke:#446E9B;stroke-width:3.125;"/></g><!--reverse link Persona to NoSocio--><g id="link_Persona_NoSocio"><path codeLine="43" d="M538.9359,158.9865 C539.5505,192.6635 539.9583,215.7188 540.5729,249.3958 " fill="none" id="Persona-backto-NoSocio" style="stroke:#446E9B;stroke-width:3.125;"/><polygon fill="none" points="538.5938,140.2396,532.6869,159.1005,545.1848,158.8724,538.5938,140.2396" style="stroke:#446E9B;stroke-width:3.125;"/></g><!--reverse link Socio to Cuota--><g id="link_Socio_Cuota"><path codeLine="53" d="M310.2228,432.3299 C312.5144,452.9758 313.4896,461.875 315.6875,481.6354 " fill="none" id="Socio-backto-Cuota" style="stroke:#446E9B;stroke-width:3.125;"/><polygon fill="#446E9B" points="308.8438,419.9063,305.392,426.5778,310.2228,432.3299,313.6745,425.6584,308.8438,419.9063" style="stroke:#446E9B;stroke-width:3.125;"/></g><!--reverse link Cuota to MedioPago--><g id="link_Cuota_MedioPago"><path codeLine="65" d="M325,664.4167 C325,685.5521 325,695.0313 325,713.75 " fill="none" id="Cuota-backto-MedioPago" style="stroke:#446E9B;stroke-width:3.125;"/><polygon fill="#446E9B" points="325,651.9167,320.8333,658.1667,325,664.4167,329.1667,658.1667,325,651.9167" style="stroke:#446E9B;stroke-width:3.125;"/></g><!--reverse link ReporteVencimientos to Socio--><g id="link_ReporteVencimientos_Socio"><path codeLine="67" d="M296.875,128.75 C296.875,152.0625 296.875,171.1146 296.875,201.9896 " fill="none" id="ReporteVencimientos-backto-Socio" style="stroke:#446E9B;stroke-width:3.125;"/><polygon fill="none" points="296.875,116.25,292.7083,122.5,296.875,128.75,301.0417,122.5,296.875,116.25" style="stroke:#446E9B;stroke-width:3.125;"/></g><!--SRC=[VLBBJiCm4BpdAyAjKEK7eWe9jI1L0bHHmGLns3fBkb9iHxRR2_3lsF4ZSOhe9SriTdPcTg_C4JcMkWU67HoAWdMWTRb3fQM0ygiexQyIaXyKrkNUA1Ajnw37hgD6vcWZA04_aMql6Sd8zOdi25kXcQBUmg8kDs3GrzX96jWGlA5Wn0c5iVHROIRL1zV-sXdYSWVjHLdNvTeztpy224gWiU3m7B2bmfQqKQ0MrxNNvl4UMeiDD875ri-Icj69fqcnd3WgkGuZaf31uJqddRjR8YT3Qg7Tn31uCi27T5DLKMkS-Iop_80PEbC33LglT_4b-CszXSwfkzGzwRrmcIh_xPzuBvMnu4QU3XswxgZKcKWSHH6FQVLjSQyeWwBCcB5BFawUJna3pcvaSa8WZ1kx3jUGRyMVpFWrnuR27Jt5lxDbE9ueBNqJvVcRisxSQfjitYop5EuB3eucydLWMxOeqArkxiykwD5kTJMekdLKXG_92Hnr5tzHovJvBm00]--></g></svg>