<?xml version="1.0" encoding="us-ascii" standalone="no"?><svg xmlns="http://www.w3.org/2000/svg" xmlns:xlink="http://www.w3.org/1999/xlink" contentStyleType="text/css" height="871.875px" preserveAspectRatio="none" style="width:435px;height:871px;" version="1.1" viewBox="0 0 435 871" width="435.4167px" zoomAndPan="magnify"><defs><linearGradient id="gte2hn8d32fvy0" x1="50%" x2="50%" y1="0%" y2="100%"><stop offset="0%" stop-color="#7C9AB9"/><stop offset="100%" stop-color="#304D6D"/></linearGradient><linearGradient id="gte2hn8d32fvy1" x1="50%" x2="50%" y1="0%" y2="100%"><stop offset="0%" stop-color="#7C9AB9"/><stop offset="100%" stop-color="#446E9B"/></linearGradient></defs><g><!--class Registrador--><g id="elem_Registrador"><rect codeLine="4" fill="url(#gte2hn8d32fvy0)" height="122.1029" id="Registrador" rx="4.1667" ry="4.1667" style="stroke:#304D6D;stroke-width:1.0416666666666667;" width="169.7917" x="138.5417" y="17.7083"/><rect fill="url(#gte2hn8d32fvy1)" height="34.1715" rx="4.1667" ry="4.1667" style="stroke:url(#gte2hn8d32fvy1);stroke-width:1.0416666666666667;" width="169.7917" x="138.5417" y="17.7083"/><rect fill="url(#gte2hn8d32fvy1)" height="4.1667" style="stroke:url(#gte2hn8d32fvy1);stroke-width:1.0416666666666667;" width="169.7917" x="138.5417" y="47.7132"/><rect codeLine="4" fill="none" height="122.1029" id="Registrador" rx="4.1667" ry="4.1667" style="stroke:#304D6D;stroke-width:1.0416666666666667;" width="169.7917" x="138.5417" y="17.7083"/><ellipse cx="179.8438" cy="34.7941" fill="none" rx="10.4167" ry="10.4167" style="stroke:#304D6D;stroke-width:1.0416666666666667;"/><path d="M181.748,39.2212 Q181.3249,39.4328 180.8529,39.5467 Q180.3809,39.6606 179.8763,39.6606 Q178.0208,39.6606 177.0443,38.4562 Q176.084,37.2355 176.084,34.9406 Q176.084,32.6294 177.0443,31.425 Q178.0208,30.2043 179.8763,30.2043 Q180.3809,30.2043 180.8529,30.3182 Q181.3411,30.4159 181.748,30.6437 L181.748,32.6457 Q181.2923,32.2225 180.8529,32.0272 Q180.4134,31.8156 179.9577,31.8156 Q178.9648,31.8156 178.4603,32.6131 Q177.9557,33.3944 177.9557,34.9406 Q177.9557,36.4705 178.4603,37.2518 Q178.9648,38.033 179.9577,38.033 Q180.4134,38.033 180.8529,37.8377 Q181.2923,37.6424 181.748,37.2192 L181.748,39.2212 Z " fill="#FFFFFF"/><text fill="#EEEEEE" font-family="Verdana" font-size="11.4583" lengthAdjust="spacing" textLength="68.75" x="204.5313" y="38.7609">Registrador</text><line style="stroke:#304D6D;stroke-width:1.0416666666666667;" x1="139.5833" x2="307.2917" y1="51.8799" y2="51.8799"/><line style="stroke:#304D6D;stroke-width:1.0416666666666667;" x1="139.5833" x2="307.2917" y1="60.2132" y2="60.2132"/><ellipse cx="150" cy="77.8198" fill="none" rx="3.125" ry="3.125" style="stroke:#304D6D;stroke-width:1.0416666666666667;"/><text fill="#EEEEEE" font-family="Verdana" font-size="11.4583" lengthAdjust="spacing" textLength="77.0833" x="163.5417" y="80.2241">IngresarDni()</text><ellipse cx="150" cy="101.5747" fill="none" rx="3.125" ry="3.125" style="stroke:#304D6D;stroke-width:1.0416666666666667;"/><text fill="#EEEEEE" font-family="Verdana" font-size="11.4583" lengthAdjust="spacing" textLength="133.3333" x="163.5417" y="103.979">IngresarDatosCliente()</text><ellipse cx="150" cy="125.3296" fill="none" rx="3.125" ry="3.125" style="stroke:#304D6D;stroke-width:1.0416666666666667;"/><text fill="#EEEEEE" font-family="Verdana" font-size="11.4583" lengthAdjust="spacing" textLength="123.9583" x="163.5417" y="127.7339">IngresarTipoCliente()</text></g><!--class Persona--><g id="elem_Persona"><rect codeLine="14" fill="url(#gte2hn8d32fvy0)" height="122.1029" id="Persona" rx="4.1667" ry="4.1667" style="stroke:#304D6D;stroke-width:1.0416666666666667;" width="126.0417" x="160.4167" y="202.3125"/><rect fill="url(#gte2hn8d32fvy1)" height="34.1715" rx="4.1667" ry="4.1667" style="stroke:url(#gte2hn8d32fvy1);stroke-width:1.0416666666666667;" width="126.0417" x="160.4167" y="202.3125"/><rect fill="url(#gte2hn8d32fvy1)" height="4.1667" style="stroke:url(#gte2hn8d32fvy1);stroke-width:1.0416666666666667;" width="126.0417" x="160.4167" y="232.3174"/><rect codeLine="14" fill="none" height="122.1029" id="Persona" rx="4.1667" ry="4.1667" style="stroke:#304D6D;stroke-width:1.0416666666666667;" width="126.0417" x="160.4167" y="202.3125"/><ellipse cx="190.9375" cy="219.3983" fill="none" rx="10.4167" ry="10.4167" style="stroke:#304D6D;stroke-width:1.0416666666666667;"/><path d="M192.8418,223.8254 Q192.4186,224.0369 191.9466,224.1509 Q191.4746,224.2648 190.9701,224.2648 Q189.1146,224.2648 188.138,223.0604 Q187.1777,221.8397 187.1777,219.5448 Q187.1777,217.2336 188.138,216.0291 Q189.1146,214.8084 190.9701,214.8084 Q191.4746,214.8084 191.9466,214.9224 Q192.4349,215.02 192.8418,215.2479 L192.8418,217.2498 Q192.3861,216.8267 191.9466,216.6313 Q191.5072,216.4198 191.0514,216.4198 Q190.0586,216.4198 189.554,217.2173 Q189.0495,217.9985 189.0495,219.5448 Q189.0495,221.0747 189.554,221.856 Q190.0586,222.6372 191.0514,222.6372 Q191.5072,222.6372 191.9466,222.4419 Q192.3861,222.2466 192.8418,221.8234 L192.8418,223.8254 Z " fill="#FFFFFF"/><text fill="#EEEEEE" font-family="Verdana" font-size="11.4583" lengthAdjust="spacing" textLength="48.9583" x="213.2292" y="223.3651">Persona</text><line style="stroke:#304D6D;stroke-width:1.0416666666666667;" x1="161.4583" x2="285.4167" y1="236.484" y2="236.484"/><rect fill="none" height="6.25" style="stroke:#304D6D;stroke-width:1.0416666666666667;" width="6.25" x="168.75" y="250.9657"/><text fill="#EEEEEE" font-family="Verdana" font-size="11.4583" lengthAdjust="spacing" textLength="89.5833" x="185.4167" y="256.4949">nombre: String</text><rect fill="none" height="6.25" style="stroke:#304D6D;stroke-width:1.0416666666666667;" width="6.25" x="168.75" y="274.7205"/><text fill="#EEEEEE" font-family="Verdana" font-size="11.4583" lengthAdjust="spacing" textLength="89.5833" x="185.4167" y="280.2498">apellido: String</text><rect fill="none" height="6.25" style="stroke:#304D6D;stroke-width:1.0416666666666667;" width="6.25" x="168.75" y="298.4754"/><text fill="#EEEEEE" font-family="Verdana" font-size="11.4583" lengthAdjust="spacing" textLength="61.4583" x="185.4167" y="304.0047">dni: String</text><line style="stroke:#304D6D;stroke-width:1.0416666666666667;" x1="161.4583" x2="285.4167" y1="316.082" y2="316.082"/></g><!--class Socio--><g id="elem_Socio"><rect codeLine="20" fill="url(#gte2hn8d32fvy0)" height="217.1224" id="Socio" rx="4.1667" ry="4.1667" style="stroke:#304D6D;stroke-width:1.0416666666666667;" width="192.7083" x="17.7083" y="386.9167"/><rect fill="url(#gte2hn8d32fvy1)" height="34.1715" rx="4.1667" ry="4.1667" style="stroke:url(#gte2hn8d32fvy1);stroke-width:1.0416666666666667;" width="192.7083" x="17.7083" y="386.9167"/><rect fill="url(#gte2hn8d32fvy1)" height="4.1667" style="stroke:url(#gte2hn8d32fvy1);stroke-width:1.0416666666666667;" width="192.7083" x="17.7083" y="416.9215"/><rect codeLine="20" fill="none" height="217.1224" id="Socio" rx="4.1667" ry="4.1667" style="stroke:#304D6D;stroke-width:1.0416666666666667;" width="192.7083" x="17.7083" y="386.9167"/><ellipse cx="88.5417" cy="404.0024" fill="none" rx="10.4167" ry="10.4167" style="stroke:#304D6D;stroke-width:1.0416666666666667;"/><path d="M90.446,408.4295 Q90.0228,408.6411 89.5508,408.755 Q89.0788,408.869 88.5742,408.869 Q86.7188,408.869 85.7422,407.6646 Q84.7819,406.4438 84.7819,404.1489 Q84.7819,401.8377 85.7422,400.6333 Q86.7188,399.4126 88.5742,399.4126 Q89.0788,399.4126 89.5508,399.5265 Q90.0391,399.6242 90.446,399.8521 L90.446,401.854 Q89.9902,401.4308 89.5508,401.2355 Q89.1113,401.0239 88.6556,401.0239 Q87.6628,401.0239 87.1582,401.8215 Q86.6536,402.6027 86.6536,404.1489 Q86.6536,405.6789 87.1582,406.4601 Q87.6628,407.2414 88.6556,407.2414 Q89.1113,407.2414 89.5508,407.0461 Q89.9902,406.8507 90.446,406.4276 L90.446,408.4295 Z " fill="#FFFFFF"/><text fill="#EEEEEE" font-family="Verdana" font-size="11.4583" lengthAdjust="spacing" textLength="32.2917" x="113.5417" y="407.9692">Socio</text><line style="stroke:#304D6D;stroke-width:1.0416666666666667;" x1="18.75" x2="209.375" y1="421.0882" y2="421.0882"/><rect fill="none" height="6.25" style="stroke:#304D6D;stroke-width:1.0416666666666667;" width="6.25" x="26.0417" y="435.5698"/><text fill="#EEEEEE" font-family="Verdana" font-size="11.4583" lengthAdjust="spacing" textLength="82.2917" x="42.7083" y="441.0991">nroCarnet: int</text><rect fill="none" height="6.25" style="stroke:#304D6D;stroke-width:1.0416666666666667;" width="6.25" x="26.0417" y="459.3247"/><text fill="#EEEEEE" font-family="Verdana" font-size="11.4583" lengthAdjust="spacing" textLength="137.5" x="42.7083" y="464.854">carnetEmitido: Boolean</text><rect fill="none" height="6.25" style="stroke:#304D6D;stroke-width:1.0416666666666667;" width="6.25" x="26.0417" y="483.0796"/><text fill="#EEEEEE" font-family="Verdana" font-size="11.4583" lengthAdjust="spacing" textLength="131.25" x="42.7083" y="488.6089">fechaInscripcion: Date</text><rect fill="none" height="6.25" style="stroke:#304D6D;stroke-width:1.0416666666666667;" width="6.25" x="26.0417" y="506.8345"/><text fill="#EEEEEE" font-family="Verdana" font-size="11.4583" lengthAdjust="spacing" textLength="145.8333" x="42.7083" y="512.3637">cuotaDiaVencimiento: Int</text><rect fill="none" height="6.25" style="stroke:#304D6D;stroke-width:1.0416666666666667;" width="6.25" x="26.0417" y="530.5894"/><text fill="#EEEEEE" font-family="Verdana" font-size="11.4583" lengthAdjust="spacing" textLength="156.25" x="42.7083" y="536.1186">cuotaFechaUltimoPago: Int</text><rect fill="none" height="6.25" style="stroke:#304D6D;stroke-width:1.0416666666666667;" width="6.25" x="26.0417" y="554.3442"/><text fill="#EEEEEE" font-family="Verdana" font-size="11.4583" lengthAdjust="spacing" textLength="90.625" x="42.7083" y="559.8735">cuotas: Cuota[]</text><line style="stroke:#304D6D;stroke-width:1.0416666666666667;" x1="18.75" x2="209.375" y1="571.9508" y2="571.9508"/><ellipse cx="29.1667" cy="589.5575" fill="none" rx="3.125" ry="3.125" style="stroke:#304D6D;stroke-width:1.0416666666666667;"/><text fill="#EEEEEE" font-family="Verdana" font-size="11.4583" lengthAdjust="spacing" textLength="101.0417" x="42.7083" y="591.9617">registrar(): Socio</text></g><!--class NoSocio--><g id="elem_NoSocio"><rect codeLine="31" fill="url(#gte2hn8d32fvy0)" height="98.348" id="NoSocio" rx="4.1667" ry="4.1667" style="stroke:#304D6D;stroke-width:1.0416666666666667;" width="171.875" x="251.0417" y="446.3021"/><rect fill="url(#gte2hn8d32fvy1)" height="34.1715" rx="4.1667" ry="4.1667" style="stroke:url(#gte2hn8d32fvy1);stroke-width:1.0416666666666667;" width="171.875" x="251.0417" y="446.3021"/><rect fill="url(#gte2hn8d32fvy1)" height="4.1667" style="stroke:url(#gte2hn8d32fvy1);stroke-width:1.0416666666666667;" width="171.875" x="251.0417" y="476.307"/><rect codeLine="31" fill="none" height="98.348" id="NoSocio" rx="4.1667" ry="4.1667" style="stroke:#304D6D;stroke-width:1.0416666666666667;" width="171.875" x="251.0417" y="446.3021"/><ellipse cx="303.6458" cy="463.3879" fill="none" rx="10.4167" ry="10.4167" style="stroke:#304D6D;stroke-width:1.0416666666666667;"/><path d="M305.5501,467.8149 Q305.127,468.0265 304.6549,468.1405 Q304.1829,468.2544 303.6784,468.2544 Q301.8229,468.2544 300.8464,467.05 Q299.8861,465.8293 299.8861,463.5343 Q299.8861,461.2231 300.8464,460.0187 Q301.8229,458.798 303.6784,458.798 Q304.1829,458.798 304.6549,458.9119 Q305.1432,459.0096 305.5501,459.2375 L305.5501,461.2394 Q305.0944,460.8162 304.6549,460.6209 Q304.2155,460.4093 303.7598,460.4093 Q302.7669,460.4093 302.2624,461.2069 Q301.7578,461.9881 301.7578,463.5343 Q301.7578,465.0643 302.2624,465.8455 Q302.7669,466.6268 303.7598,466.6268 Q304.2155,466.6268 304.6549,466.4315 Q305.0944,466.2362 305.5501,465.813 L305.5501,467.8149 Z " fill="#FFFFFF"/><text fill="#EEEEEE" font-family="Verdana" font-size="11.4583" lengthAdjust="spacing" textLength="47.9167" x="328.6458" y="467.3546">NoSocio</text><line style="stroke:#304D6D;stroke-width:1.0416666666666667;" x1="252.0833" x2="421.875" y1="480.4736" y2="480.4736"/><rect fill="none" height="6.25" style="stroke:#304D6D;stroke-width:1.0416666666666667;" width="6.25" x="259.375" y="494.9552"/><text fill="#EEEEEE" font-family="Verdana" font-size="11.4583" lengthAdjust="spacing" textLength="135.4167" x="276.0417" y="500.4845">actividades: Actividad[]</text><line style="stroke:#304D6D;stroke-width:1.0416666666666667;" x1="252.0833" x2="421.875" y1="512.5618" y2="512.5618"/><ellipse cx="262.5" cy="530.1685" fill="none" rx="3.125" ry="3.125" style="stroke:#304D6D;stroke-width:1.0416666666666667;"/><text fill="#EEEEEE" font-family="Verdana" font-size="11.4583" lengthAdjust="spacing" textLength="116.6667" x="276.0417" y="532.5727">registrar(): NoSocio</text></g><!--class Actividad--><g id="elem_Actividad"><rect codeLine="36" fill="url(#gte2hn8d32fvy0)" height="122.1029" id="Actividad" rx="4.1667" ry="4.1667" style="stroke:#304D6D;stroke-width:1.0416666666666667;" width="163.5417" x="255.2083" y="702.1667"/><rect fill="url(#gte2hn8d32fvy1)" height="34.1715" rx="4.1667" ry="4.1667" style="stroke:url(#gte2hn8d32fvy1);stroke-width:1.0416666666666667;" width="163.5417" x="255.2083" y="702.1667"/><rect fill="url(#gte2hn8d32fvy1)" height="4.1667" style="stroke:url(#gte2hn8d32fvy1);stroke-width:1.0416666666666667;" width="163.5417" x="255.2083" y="732.1715"/><rect codeLine="36" fill="none" height="122.1029" id="Actividad" rx="4.1667" ry="4.1667" style="stroke:#304D6D;stroke-width:1.0416666666666667;" width="163.5417" x="255.2083" y="702.1667"/><ellipse cx="301.5625" cy="719.2524" fill="none" rx="10.4167" ry="10.4167" style="stroke:#304D6D;stroke-width:1.0416666666666667;"/><path d="M303.4668,723.6795 Q303.0436,723.8911 302.5716,724.005 Q302.0996,724.119 301.5951,724.119 Q299.7396,724.119 298.763,722.9146 Q297.8027,721.6938 297.8027,719.3989 Q297.8027,717.0877 298.763,715.8833 Q299.7396,714.6626 301.5951,714.6626 Q302.0996,714.6626 302.5716,714.7765 Q303.0599,714.8742 303.4668,715.1021 L303.4668,717.104 Q303.0111,716.6808 302.5716,716.4855 Q302.1322,716.2739 301.6764,716.2739 Q300.6836,716.2739 300.179,717.0715 Q299.6745,717.8527 299.6745,719.3989 Q299.6745,720.9289 300.179,721.7101 Q300.6836,722.4914 301.6764,722.4914 Q302.1322,722.4914 302.5716,722.2961 Q303.0111,722.1007 303.4668,721.6776 L303.4668,723.6795 Z " fill="#FFFFFF"/><text fill="#EEEEEE" font-family="Verdana" font-size="11.4583" lengthAdjust="spacing" textLength="52.0833" x="326.5625" y="723.2192">Actividad</text><line style="stroke:#304D6D;stroke-width:1.0416666666666667;" x1="256.25" x2="417.7083" y1="736.3382" y2="736.3382"/><rect fill="none" height="6.25" style="stroke:#304D6D;stroke-width:1.0416666666666667;" width="6.25" x="263.5417" y="750.8198"/><text fill="#EEEEEE" font-family="Verdana" font-size="11.4583" lengthAdjust="spacing" textLength="89.5833" x="280.2083" y="756.3491">nombre: String</text><rect fill="none" height="6.25" style="stroke:#304D6D;stroke-width:1.0416666666666667;" width="6.25" x="263.5417" y="774.5747"/><text fill="#EEEEEE" font-family="Verdana" font-size="11.4583" lengthAdjust="spacing" textLength="94.7917" x="280.2083" y="780.104">importe: Double</text><line style="stroke:#304D6D;stroke-width:1.0416666666666667;" x1="256.25" x2="417.7083" y1="792.1813" y2="792.1813"/><ellipse cx="266.6667" cy="809.7879" fill="none" rx="3.125" ry="3.125" style="stroke:#304D6D;stroke-width:1.0416666666666667;"/><text fill="#EEEEEE" font-family="Verdana" font-size="11.4583" lengthAdjust="spacing" textLength="127.0833" x="280.2083" y="812.1922">cobrar(NoSocio): void</text></g><!--class Cuota--><g id="elem_Cuota"><rect codeLine="47" fill="url(#gte2hn8d32fvy0)" height="193.3675" id="Cuota" rx="4.1667" ry="4.1667" style="stroke:#304D6D;stroke-width:1.0416666666666667;" width="176.0417" x="26.0417" y="666.5417"/><rect fill="url(#gte2hn8d32fvy1)" height="34.1715" rx="4.1667" ry="4.1667" style="stroke:url(#gte2hn8d32fvy1);stroke-width:1.0416666666666667;" width="176.0417" x="26.0417" y="666.5417"/><rect fill="url(#gte2hn8d32fvy1)" height="4.1667" style="stroke:url(#gte2hn8d32fvy1);stroke-width:1.0416666666666667;" width="176.0417" x="26.0417" y="696.5465"/><rect codeLine="47" fill="none" height="193.3675" id="Cuota" rx="4.1667" ry="4.1667" style="stroke:#304D6D;stroke-width:1.0416666666666667;" width="176.0417" x="26.0417" y="666.5417"/><ellipse cx="87.5" cy="683.6274" fill="none" rx="10.4167" ry="10.4167" style="stroke:#304D6D;stroke-width:1.0416666666666667;"/><path d="M89.4043,688.0545 Q88.9811,688.2661 88.5091,688.38 Q88.0371,688.494 87.5326,688.494 Q85.6771,688.494 84.7005,687.2896 Q83.7402,686.0688 83.7402,683.7739 Q83.7402,681.4627 84.7005,680.2583 Q85.6771,679.0376 87.5326,679.0376 Q88.0371,679.0376 88.5091,679.1515 Q88.9974,679.2492 89.4043,679.4771 L89.4043,681.479 Q88.9486,681.0558 88.5091,680.8605 Q88.0697,680.6489 87.6139,680.6489 Q86.6211,680.6489 86.1165,681.4465 Q85.612,682.2277 85.612,683.7739 Q85.612,685.3039 86.1165,686.0851 Q86.6211,686.8664 87.6139,686.8664 Q88.0697,686.8664 88.5091,686.6711 Q88.9486,686.4757 89.4043,686.0526 L89.4043,688.0545 Z " fill="#FFFFFF"/><text fill="#EEEEEE" font-family="Verdana" font-size="11.4583" lengthAdjust="spacing" textLength="34.375" x="112.5" y="687.5942">Cuota</text><line style="stroke:#304D6D;stroke-width:1.0416666666666667;" x1="27.0833" x2="201.0417" y1="700.7132" y2="700.7132"/><rect fill="none" height="6.25" style="stroke:#304D6D;stroke-width:1.0416666666666667;" width="6.25" x="34.375" y="715.1948"/><text fill="#EEEEEE" font-family="Verdana" font-size="11.4583" lengthAdjust="spacing" textLength="94.7917" x="51.0417" y="720.7241">importe: Double</text><rect fill="none" height="6.25" style="stroke:#304D6D;stroke-width:1.0416666666666667;" width="6.25" x="34.375" y="738.9497"/><text fill="#EEEEEE" font-family="Verdana" font-size="11.4583" lengthAdjust="spacing" textLength="139.5833" x="51.0417" y="744.479">fechaVencimiento: Date</text><rect fill="none" height="6.25" style="stroke:#304D6D;stroke-width:1.0416666666666667;" width="6.25" x="34.375" y="762.7046"/><text fill="#EEEEEE" font-family="Verdana" font-size="11.4583" lengthAdjust="spacing" textLength="114.5833" x="51.0417" y="768.2339">cantidadCuotas: Int</text><rect fill="none" height="6.25" style="stroke:#304D6D;stroke-width:1.0416666666666667;" width="6.25" x="34.375" y="786.4595"/><text fill="#EEEEEE" font-family="Verdana" font-size="11.4583" lengthAdjust="spacing" textLength="96.875" x="51.0417" y="791.9887">fechaPago: Date</text><rect fill="none" height="6.25" style="stroke:#304D6D;stroke-width:1.0416666666666667;" width="6.25" x="34.375" y="810.2144"/><text fill="#EEEEEE" font-family="Verdana" font-size="11.4583" lengthAdjust="spacing" textLength="109.375" x="51.0417" y="815.7436">medioPago: String</text><line style="stroke:#304D6D;stroke-width:1.0416666666666667;" x1="27.0833" x2="201.0417" y1="827.821" y2="827.821"/><ellipse cx="37.5" cy="845.4276" fill="none" rx="3.125" ry="3.125" style="stroke:#304D6D;stroke-width:1.0416666666666667;"/><text fill="#EEEEEE" font-family="Verdana" font-size="11.4583" lengthAdjust="spacing" textLength="110.4167" x="51.0417" y="847.8318">cobrar(socio): void</text></g><!--reverse link Registrador to Persona--><g id="link_Registrador_Persona"><path codeLine="10" d="M223.4375,152.5729 C223.4375,172.4063 223.4375,181.9583 223.4375,201.8021 " fill="none" id="Registrador-backto-Persona" style="stroke:#446E9B;stroke-width:3.125;"/><polygon fill="#446E9B" points="223.4375,140.0729,219.2708,146.3229,223.4375,152.5729,227.6042,146.3229,223.4375,140.0729" style="stroke:#446E9B;stroke-width:3.125;"/></g><!--reverse link Registrador to Socio--><g id="link_Registrador_Socio"><path codeLine="11" d="M167.9379,150.5856 C155.1879,169.4502 149.8646,180.6667 142.1875,202.3125 C121.3646,261.0208 114.0208,330.2708 112.0208,386.6146 " fill="none" id="Registrador-backto-Socio" style="stroke:#446E9B;stroke-width:3.125;"/><polygon fill="#446E9B" points="174.9375,140.2292,167.9856,143.0742,167.9379,150.5856,174.8898,147.7406,174.9375,140.2292" style="stroke:#446E9B;stroke-width:3.125;"/></g><!--reverse link Registrador to NoSocio--><g id="link_Registrador_NoSocio"><path codeLine="12" d="M278.743,150.6525 C291.4826,169.5275 296.8542,180.7188 304.6875,202.3125 C334.3438,284.1042 338.8229,386.5208 338.5,445.8125 " fill="none" id="Registrador-backto-NoSocio" style="stroke:#446E9B;stroke-width:3.125;"/><polygon fill="#446E9B" points="271.75,140.2917,271.7929,147.8031,278.743,150.6525,278.7001,143.1411,271.75,140.2917" style="stroke:#446E9B;stroke-width:3.125;"/></g><!--reverse link NoSocio to Actividad--><g id="link_NoSocio_Actividad"><path codeLine="42" d="M336.9792,557.4375 C336.9792,601.5833 336.9792,654.4792 336.9792,701.9792 " fill="none" id="NoSocio-backto-Actividad" style="stroke:#446E9B;stroke-width:3.125;"/><polygon fill="#446E9B" points="336.9792,544.9375,332.8125,551.1875,336.9792,557.4375,341.1458,551.1875,336.9792,544.9375" style="stroke:#446E9B;stroke-width:3.125;"/></g><!--reverse link Persona to Socio--><g id="link_Persona_Socio"><path codeLine="44" d="M186.6442,341.776 C177.5921,360.8072 175.3646,365.5104 165.2396,386.8021 " fill="none" id="Persona-backto-Socio" style="stroke:#446E9B;stroke-width:3.125;"/><polygon fill="none" points="194.6979,324.8438,181.0001,339.0914,192.2883,344.4605,194.6979,324.8438" style="stroke:#446E9B;stroke-width:3.125;"/></g><!--reverse link Persona to NoSocio--><g id="link_Persona_NoSocio"><path codeLine="45" d="M261.5689,341.6576 C280.2251,379.4597 295.6458,410.6979 313.0625,445.9896 " fill="none" id="Persona-backto-NoSocio" style="stroke:#446E9B;stroke-width:3.125;"/><polygon fill="none" points="253.2708,324.8438,255.9643,344.4236,267.1735,338.8916,253.2708,324.8438" style="stroke:#446E9B;stroke-width:3.125;"/></g><!--reverse link Socio to Cuota--><g id="link_Socio_Cuota"><path codeLine="56" d="M114.0625,616.6875 C114.0625,637.2604 114.0625,646.1667 114.0625,666.3333 " fill="none" id="Socio-backto-Cuota" style="stroke:#446E9B;stroke-width:3.125;"/><polygon fill="#446E9B" points="114.0625,604.1875,109.8958,610.4375,114.0625,616.6875,118.2292,610.4375,114.0625,604.1875" style="stroke:#446E9B;stroke-width:3.125;"/></g><!--SRC=[VP71JiCm44Jl-GfpQq7zWOWBf23rWYeAN127ZREaApdUo7PxWVuxTcAxRLgHIvNPxElEp8tROeV2zY1HGLqKKe6ruXLRiiv0mqRy5C8_TolT6hHWbffcyua4Zcsb2BN3wUoDUZwE3aLnYhvTBCGQZMKD5_g69V65-iAZ7k-Co_76XUQkDbYAZJEasr637fMYXi_LHbCM3ease3FBS0L6eoi5QJTgSX2UEd83y95P8UXnzero2ojjfQ7UOtGfV2mOztRiO4dmWLfI5yBmswjC3TFdiFwk77MyXlPYR4jHXT_Fhp5U4tCnitaPe_8seeyOKd82qj6U6cZGKnxIorLIYZT7aZ__BsBgUZREYqlUrMhqV2Uv3j18zEmzKnF0wRfGPyONHQho_ZUNVoPDcX_II4TTEs0iv2pnaq90k_2tLSmsXpqiZGKSl-wmeTZAYUtaq4xy7TqDzE8F]--></g></svg>