<?xml version="1.0" encoding="us-ascii" standalone="no"?><svg xmlns="http://www.w3.org/2000/svg" xmlns:xlink="http://www.w3.org/1999/xlink" contentStyleType="text/css" height="687.5px" preserveAspectRatio="none" style="width:483px;height:687px;" version="1.1" viewBox="0 0 483 687" width="483.3333px" zoomAndPan="magnify"><defs><linearGradient id="g6hymhod50uop0" x1="50%" x2="50%" y1="0%" y2="100%"><stop offset="0%" stop-color="#7C9AB9"/><stop offset="100%" stop-color="#304D6D"/></linearGradient><linearGradient id="g6hymhod50uop1" x1="50%" x2="50%" y1="0%" y2="100%"><stop offset="0%" stop-color="#7C9AB9"/><stop offset="100%" stop-color="#446E9B"/></linearGradient></defs><g><!--class Persona--><g id="elem_Persona"><rect codeLine="4" fill="url(#g6hymhod50uop0)" height="122.1029" id="Persona" rx="4.1667" ry="4.1667" style="stroke:#304D6D;stroke-width:1.0416666666666667;" width="126.0417" x="172.9167" y="17.7083"/><rect fill="url(#g6hymhod50uop1)" height="34.1715" rx="4.1667" ry="4.1667" style="stroke:url(#g6hymhod50uop1);stroke-width:1.0416666666666667;" width="126.0417" x="172.9167" y="17.7083"/><rect fill="url(#g6hymhod50uop1)" height="4.1667" style="stroke:url(#g6hymhod50uop1);stroke-width:1.0416666666666667;" width="126.0417" x="172.9167" y="47.7132"/><rect codeLine="4" fill="none" height="122.1029" id="Persona" rx="4.1667" ry="4.1667" style="stroke:#304D6D;stroke-width:1.0416666666666667;" width="126.0417" x="172.9167" y="17.7083"/><ellipse cx="203.4375" cy="34.7941" fill="none" rx="10.4167" ry="10.4167" style="stroke:#304D6D;stroke-width:1.0416666666666667;"/><path d="M205.3418,39.2212 Q204.9186,39.4328 204.4466,39.5467 Q203.9746,39.6606 203.4701,39.6606 Q201.6146,39.6606 200.638,38.4562 Q199.6777,37.2355 199.6777,34.9406 Q199.6777,32.6294 200.638,31.425 Q201.6146,30.2043 203.4701,30.2043 Q203.9746,30.2043 204.4466,30.3182 Q204.9349,30.4159 205.3418,30.6437 L205.3418,32.6457 Q204.8861,32.2225 204.4466,32.0272 Q204.0072,31.8156 203.5514,31.8156 Q202.5586,31.8156 202.054,32.6131 Q201.5495,33.3944 201.5495,34.9406 Q201.5495,36.4705 202.054,37.2518 Q202.5586,38.033 203.5514,38.033 Q204.0072,38.033 204.4466,37.8377 Q204.8861,37.6424 205.3418,37.2192 L205.3418,39.2212 Z " fill="#FFFFFF"/><text fill="#EEEEEE" font-family="Verdana" font-size="11.4583" lengthAdjust="spacing" textLength="48.9583" x="225.7292" y="38.7609">Persona</text><line style="stroke:#304D6D;stroke-width:1.0416666666666667;" x1="173.9583" x2="297.9167" y1="51.8799" y2="51.8799"/><rect fill="none" height="6.25" style="stroke:#304D6D;stroke-width:1.0416666666666667;" width="6.25" x="181.25" y="66.3615"/><text fill="#EEEEEE" font-family="Verdana" font-size="11.4583" lengthAdjust="spacing" textLength="89.5833" x="197.9167" y="71.8908">nombre: String</text><rect fill="none" height="6.25" style="stroke:#304D6D;stroke-width:1.0416666666666667;" width="6.25" x="181.25" y="90.1164"/><text fill="#EEEEEE" font-family="Verdana" font-size="11.4583" lengthAdjust="spacing" textLength="89.5833" x="197.9167" y="95.6457">apellido: String</text><rect fill="none" height="6.25" style="stroke:#304D6D;stroke-width:1.0416666666666667;" width="6.25" x="181.25" y="113.8713"/><text fill="#EEEEEE" font-family="Verdana" font-size="11.4583" lengthAdjust="spacing" textLength="61.4583" x="197.9167" y="119.4005">dni: String</text><line style="stroke:#304D6D;stroke-width:1.0416666666666667;" x1="173.9583" x2="297.9167" y1="131.4779" y2="131.4779"/></g><!--class Socio--><g id="elem_Socio"><rect codeLine="10" fill="url(#g6hymhod50uop0)" height="240.8773" id="Socio" rx="4.1667" ry="4.1667" style="stroke:#304D6D;stroke-width:1.0416666666666667;" width="192.7083" x="17.7083" y="202.3125"/><rect fill="url(#g6hymhod50uop1)" height="34.1715" rx="4.1667" ry="4.1667" style="stroke:url(#g6hymhod50uop1);stroke-width:1.0416666666666667;" width="192.7083" x="17.7083" y="202.3125"/><rect fill="url(#g6hymhod50uop1)" height="4.1667" style="stroke:url(#g6hymhod50uop1);stroke-width:1.0416666666666667;" width="192.7083" x="17.7083" y="232.3174"/><rect codeLine="10" fill="none" height="240.8773" id="Socio" rx="4.1667" ry="4.1667" style="stroke:#304D6D;stroke-width:1.0416666666666667;" width="192.7083" x="17.7083" y="202.3125"/><ellipse cx="88.5417" cy="219.3983" fill="none" rx="10.4167" ry="10.4167" style="stroke:#304D6D;stroke-width:1.0416666666666667;"/><path d="M90.446,223.8254 Q90.0228,224.0369 89.5508,224.1509 Q89.0788,224.2648 88.5742,224.2648 Q86.7188,224.2648 85.7422,223.0604 Q84.7819,221.8397 84.7819,219.5448 Q84.7819,217.2336 85.7422,216.0291 Q86.7188,214.8084 88.5742,214.8084 Q89.0788,214.8084 89.5508,214.9224 Q90.0391,215.02 90.446,215.2479 L90.446,217.2498 Q89.9902,216.8267 89.5508,216.6313 Q89.1113,216.4198 88.6556,216.4198 Q87.6628,216.4198 87.1582,217.2173 Q86.6536,217.9985 86.6536,219.5448 Q86.6536,221.0747 87.1582,221.856 Q87.6628,222.6372 88.6556,222.6372 Q89.1113,222.6372 89.5508,222.4419 Q89.9902,222.2466 90.446,221.8234 L90.446,223.8254 Z " fill="#FFFFFF"/><text fill="#EEEEEE" font-family="Verdana" font-size="11.4583" lengthAdjust="spacing" textLength="32.2917" x="113.5417" y="223.3651">Socio</text><line style="stroke:#304D6D;stroke-width:1.0416666666666667;" x1="18.75" x2="209.375" y1="236.484" y2="236.484"/><rect fill="none" height="6.25" style="stroke:#304D6D;stroke-width:1.0416666666666667;" width="6.25" x="26.0417" y="250.9657"/><text fill="#EEEEEE" font-family="Verdana" font-size="11.4583" lengthAdjust="spacing" textLength="82.2917" x="42.7083" y="256.4949">nroCarnet: int</text><rect fill="none" height="6.25" style="stroke:#304D6D;stroke-width:1.0416666666666667;" width="6.25" x="26.0417" y="274.7205"/><text fill="#EEEEEE" font-family="Verdana" font-size="11.4583" lengthAdjust="spacing" textLength="137.5" x="42.7083" y="280.2498">carnetEmitido: Boolean</text><rect fill="none" height="6.25" style="stroke:#304D6D;stroke-width:1.0416666666666667;" width="6.25" x="26.0417" y="298.4754"/><text fill="#EEEEEE" font-family="Verdana" font-size="11.4583" lengthAdjust="spacing" textLength="131.25" x="42.7083" y="304.0047">fechaInscripcion: Date</text><rect fill="none" height="6.25" style="stroke:#304D6D;stroke-width:1.0416666666666667;" width="6.25" x="26.0417" y="322.2303"/><text fill="#EEEEEE" font-family="Verdana" font-size="11.4583" lengthAdjust="spacing" textLength="145.8333" x="42.7083" y="327.7596">cuotaDiaVencimiento: Int</text><rect fill="none" height="6.25" style="stroke:#304D6D;stroke-width:1.0416666666666667;" width="6.25" x="26.0417" y="345.9852"/><text fill="#EEEEEE" font-family="Verdana" font-size="11.4583" lengthAdjust="spacing" textLength="156.25" x="42.7083" y="351.5145">cuotaFechaUltimoPago: Int</text><rect fill="none" height="6.25" style="stroke:#304D6D;stroke-width:1.0416666666666667;" width="6.25" x="26.0417" y="369.7401"/><text fill="#EEEEEE" font-family="Verdana" font-size="11.4583" lengthAdjust="spacing" textLength="90.625" x="42.7083" y="375.2693">cuotas: Cuota[]</text><line style="stroke:#304D6D;stroke-width:1.0416666666666667;" x1="18.75" x2="209.375" y1="387.3467" y2="387.3467"/><ellipse cx="29.1667" cy="404.9533" fill="none" rx="3.125" ry="3.125" style="stroke:#304D6D;stroke-width:1.0416666666666667;"/><text fill="#EEEEEE" font-family="Verdana" font-size="11.4583" lengthAdjust="spacing" textLength="101.0417" x="42.7083" y="407.3576">registrar(): Socio</text><ellipse cx="29.1667" cy="428.7082" fill="none" rx="3.125" ry="3.125" style="stroke:#304D6D;stroke-width:1.0416666666666667;"/><text fill="#EEEEEE" font-family="Verdana" font-size="11.4583" lengthAdjust="spacing" textLength="150" x="42.7083" y="431.1124">pagar(cuota: Cuota): void</text></g><!--class NoSocio--><g id="elem_NoSocio"><rect codeLine="22" fill="url(#g6hymhod50uop0)" height="122.1029" id="NoSocio" rx="4.1667" ry="4.1667" style="stroke:#304D6D;stroke-width:1.0416666666666667;" width="223.9583" x="246.875" y="261.6979"/><rect fill="url(#g6hymhod50uop1)" height="34.1715" rx="4.1667" ry="4.1667" style="stroke:url(#g6hymhod50uop1);stroke-width:1.0416666666666667;" width="223.9583" x="246.875" y="261.6979"/><rect fill="url(#g6hymhod50uop1)" height="4.1667" style="stroke:url(#g6hymhod50uop1);stroke-width:1.0416666666666667;" width="223.9583" x="246.875" y="291.7028"/><rect codeLine="22" fill="none" height="122.1029" id="NoSocio" rx="4.1667" ry="4.1667" style="stroke:#304D6D;stroke-width:1.0416666666666667;" width="223.9583" x="246.875" y="261.6979"/><ellipse cx="325.5208" cy="278.7837" fill="none" rx="10.4167" ry="10.4167" style="stroke:#304D6D;stroke-width:1.0416666666666667;"/><path d="M327.4251,283.2108 Q327.002,283.4224 326.5299,283.5363 Q326.0579,283.6502 325.5534,283.6502 Q323.6979,283.6502 322.7214,282.4458 Q321.7611,281.2251 321.7611,278.9302 Q321.7611,276.619 322.7214,275.4146 Q323.6979,274.1938 325.5534,274.1938 Q326.0579,274.1938 326.5299,274.3078 Q327.0182,274.4054 327.4251,274.6333 L327.4251,276.6353 Q326.9694,276.2121 326.5299,276.0168 Q326.0905,275.8052 325.6348,275.8052 Q324.6419,275.8052 324.1374,276.6027 Q323.6328,277.384 323.6328,278.9302 Q323.6328,280.4601 324.1374,281.2414 Q324.6419,282.0226 325.6348,282.0226 Q326.0905,282.0226 326.5299,281.8273 Q326.9694,281.632 327.4251,281.2088 L327.4251,283.2108 Z " fill="#FFFFFF"/><text fill="#EEEEEE" font-family="Verdana" font-size="11.4583" lengthAdjust="spacing" textLength="47.9167" x="350.5208" y="282.7505">NoSocio</text><line style="stroke:#304D6D;stroke-width:1.0416666666666667;" x1="247.9167" x2="469.7917" y1="295.8695" y2="295.8695"/><rect fill="none" height="6.25" style="stroke:#304D6D;stroke-width:1.0416666666666667;" width="6.25" x="255.2083" y="310.3511"/><text fill="#EEEEEE" font-family="Verdana" font-size="11.4583" lengthAdjust="spacing" textLength="135.4167" x="271.875" y="315.8804">actividades: Actividad[]</text><line style="stroke:#304D6D;stroke-width:1.0416666666666667;" x1="247.9167" x2="469.7917" y1="327.9577" y2="327.9577"/><ellipse cx="258.3333" cy="345.5643" fill="none" rx="3.125" ry="3.125" style="stroke:#304D6D;stroke-width:1.0416666666666667;"/><text fill="#EEEEEE" font-family="Verdana" font-size="11.4583" lengthAdjust="spacing" textLength="116.6667" x="271.875" y="347.9686">registrar(): NoSocio</text><ellipse cx="258.3333" cy="369.3192" fill="none" rx="3.125" ry="3.125" style="stroke:#304D6D;stroke-width:1.0416666666666667;"/><text fill="#EEEEEE" font-family="Verdana" font-size="11.4583" lengthAdjust="spacing" textLength="187.5" x="271.875" y="371.7234">pagar(actividad: Actividad): void</text></g><!--class Actividad--><g id="elem_Actividad"><rect codeLine="28" fill="url(#g6hymhod50uop0)" height="98.348" id="Actividad" rx="4.1667" ry="4.1667" style="stroke:#304D6D;stroke-width:1.0416666666666667;" width="131.25" x="293.2292" y="541.3229"/><rect fill="url(#g6hymhod50uop1)" height="34.1715" rx="4.1667" ry="4.1667" style="stroke:url(#g6hymhod50uop1);stroke-width:1.0416666666666667;" width="131.25" x="293.2292" y="541.3229"/><rect fill="url(#g6hymhod50uop1)" height="4.1667" style="stroke:url(#g6hymhod50uop1);stroke-width:1.0416666666666667;" width="131.25" x="293.2292" y="571.3278"/><rect codeLine="28" fill="none" height="98.348" id="Actividad" rx="4.1667" ry="4.1667" style="stroke:#304D6D;stroke-width:1.0416666666666667;" width="131.25" x="293.2292" y="541.3229"/><ellipse cx="324.6875" cy="558.4087" fill="none" rx="10.4167" ry="10.4167" style="stroke:#304D6D;stroke-width:1.0416666666666667;"/><path d="M326.5918,562.8358 Q326.1686,563.0474 325.6966,563.1613 Q325.2246,563.2752 324.7201,563.2752 Q322.8646,563.2752 321.888,562.0708 Q320.9277,560.8501 320.9277,558.5552 Q320.9277,556.244 321.888,555.0396 Q322.8646,553.8188 324.7201,553.8188 Q325.2246,553.8188 325.6966,553.9328 Q326.1849,554.0304 326.5918,554.2583 L326.5918,556.2603 Q326.1361,555.8371 325.6966,555.6418 Q325.2572,555.4302 324.8014,555.4302 Q323.8086,555.4302 323.304,556.2277 Q322.7995,557.009 322.7995,558.5552 Q322.7995,560.0851 323.304,560.8664 Q323.8086,561.6476 324.8014,561.6476 Q325.2572,561.6476 325.6966,561.4523 Q326.1361,561.257 326.5918,560.8338 L326.5918,562.8358 Z " fill="#FFFFFF"/><text fill="#EEEEEE" font-family="Verdana" font-size="11.4583" lengthAdjust="spacing" textLength="52.0833" x="347.1875" y="562.3755">Actividad</text><line style="stroke:#304D6D;stroke-width:1.0416666666666667;" x1="294.2708" x2="423.4375" y1="575.4945" y2="575.4945"/><rect fill="none" height="6.25" style="stroke:#304D6D;stroke-width:1.0416666666666667;" width="6.25" x="301.5625" y="589.9761"/><text fill="#EEEEEE" font-family="Verdana" font-size="11.4583" lengthAdjust="spacing" textLength="89.5833" x="318.2292" y="595.5054">nombre: String</text><rect fill="none" height="6.25" style="stroke:#304D6D;stroke-width:1.0416666666666667;" width="6.25" x="301.5625" y="613.731"/><text fill="#EEEEEE" font-family="Verdana" font-size="11.4583" lengthAdjust="spacing" textLength="94.7917" x="318.2292" y="619.2602">importe: Double</text><line style="stroke:#304D6D;stroke-width:1.0416666666666667;" x1="294.2708" x2="423.4375" y1="631.3376" y2="631.3376"/></g><!--class Cuota--><g id="elem_Cuota"><rect codeLine="38" fill="url(#g6hymhod50uop0)" height="169.6126" id="Cuota" rx="4.1667" ry="4.1667" style="stroke:#304D6D;stroke-width:1.0416666666666667;" width="176.0417" x="26.0417" y="505.6875"/><rect fill="url(#g6hymhod50uop1)" height="34.1715" rx="4.1667" ry="4.1667" style="stroke:url(#g6hymhod50uop1);stroke-width:1.0416666666666667;" width="176.0417" x="26.0417" y="505.6875"/><rect fill="url(#g6hymhod50uop1)" height="4.1667" style="stroke:url(#g6hymhod50uop1);stroke-width:1.0416666666666667;" width="176.0417" x="26.0417" y="535.6924"/><rect codeLine="38" fill="none" height="169.6126" id="Cuota" rx="4.1667" ry="4.1667" style="stroke:#304D6D;stroke-width:1.0416666666666667;" width="176.0417" x="26.0417" y="505.6875"/><ellipse cx="87.5" cy="522.7733" fill="none" rx="10.4167" ry="10.4167" style="stroke:#304D6D;stroke-width:1.0416666666666667;"/><path d="M89.4043,527.2004 Q88.9811,527.4119 88.5091,527.5259 Q88.0371,527.6398 87.5326,527.6398 Q85.6771,527.6398 84.7005,526.4354 Q83.7402,525.2147 83.7402,522.9198 Q83.7402,520.6086 84.7005,519.4041 Q85.6771,518.1834 87.5326,518.1834 Q88.0371,518.1834 88.5091,518.2974 Q88.9974,518.395 89.4043,518.6229 L89.4043,520.6248 Q88.9486,520.2017 88.5091,520.0063 Q88.0697,519.7948 87.6139,519.7948 Q86.6211,519.7948 86.1165,520.5923 Q85.612,521.3735 85.612,522.9198 Q85.612,524.4497 86.1165,525.231 Q86.6211,526.0122 87.6139,526.0122 Q88.0697,526.0122 88.5091,525.8169 Q88.9486,525.6216 89.4043,525.1984 L89.4043,527.2004 Z " fill="#FFFFFF"/><text fill="#EEEEEE" font-family="Verdana" font-size="11.4583" lengthAdjust="spacing" textLength="34.375" x="112.5" y="526.7401">Cuota</text><line style="stroke:#304D6D;stroke-width:1.0416666666666667;" x1="27.0833" x2="201.0417" y1="539.859" y2="539.859"/><rect fill="none" height="6.25" style="stroke:#304D6D;stroke-width:1.0416666666666667;" width="6.25" x="34.375" y="554.3407"/><text fill="#EEEEEE" font-family="Verdana" font-size="11.4583" lengthAdjust="spacing" textLength="94.7917" x="51.0417" y="559.8699">importe: Double</text><rect fill="none" height="6.25" style="stroke:#304D6D;stroke-width:1.0416666666666667;" width="6.25" x="34.375" y="578.0955"/><text fill="#EEEEEE" font-family="Verdana" font-size="11.4583" lengthAdjust="spacing" textLength="139.5833" x="51.0417" y="583.6248">fechaVencimiento: Date</text><rect fill="none" height="6.25" style="stroke:#304D6D;stroke-width:1.0416666666666667;" width="6.25" x="34.375" y="601.8504"/><text fill="#EEEEEE" font-family="Verdana" font-size="11.4583" lengthAdjust="spacing" textLength="114.5833" x="51.0417" y="607.3797">cantidadCuotas: Int</text><rect fill="none" height="6.25" style="stroke:#304D6D;stroke-width:1.0416666666666667;" width="6.25" x="34.375" y="625.6053"/><text fill="#EEEEEE" font-family="Verdana" font-size="11.4583" lengthAdjust="spacing" textLength="96.875" x="51.0417" y="631.1346">fechaPago: Date</text><rect fill="none" height="6.25" style="stroke:#304D6D;stroke-width:1.0416666666666667;" width="6.25" x="34.375" y="649.3602"/><text fill="#EEEEEE" font-family="Verdana" font-size="11.4583" lengthAdjust="spacing" textLength="109.375" x="51.0417" y="654.8895">medioPago: String</text><line style="stroke:#304D6D;stroke-width:1.0416666666666667;" x1="27.0833" x2="201.0417" y1="666.9668" y2="666.9668"/></g><!--reverse link NoSocio to Actividad--><g id="link_NoSocio_Actividad"><path codeLine="33" d="M358.8542,396.5729 C358.8542,444.0313 358.8542,496.8125 358.8542,540.9375 " fill="none" id="NoSocio-backto-Actividad" style="stroke:#446E9B;stroke-width:3.125;"/><polygon fill="#446E9B" points="358.8542,384.0729,354.6875,390.3229,358.8542,396.5729,363.0208,390.3229,358.8542,384.0729" style="stroke:#446E9B;stroke-width:3.125;"/></g><!--reverse link Persona to Socio--><g id="link_Persona_Socio"><path codeLine="35" d="M197.0631,156.9633 C187.5423,175.8592 185.125,180.6562 174.3021,202.1458 " fill="none" id="Persona-backto-Socio" style="stroke:#446E9B;stroke-width:3.125;"/><polygon fill="none" points="205.5,140.2188,191.4816,154.151,202.6446,159.7756,205.5,140.2188" style="stroke:#446E9B;stroke-width:3.125;"/></g><!--reverse link Persona to NoSocio--><g id="link_Persona_NoSocio"><path codeLine="36" d="M275.128,156.9352 C293.8988,193.8831 309.3438,224.2604 328.1146,261.2188 " fill="none" id="Persona-backto-NoSocio" style="stroke:#446E9B;stroke-width:3.125;"/><polygon fill="none" points="266.6354,140.2188,269.5558,159.766,280.7001,154.1043,266.6354,140.2188" style="stroke:#446E9B;stroke-width:3.125;"/></g><!--reverse link Socio to Cuota--><g id="link_Socio_Cuota"><path codeLine="46" d="M114.0625,455.9167 C114.0625,476.8438 114.0625,485.7188 114.0625,505.4271 " fill="none" id="Socio-backto-Cuota" style="stroke:#446E9B;stroke-width:3.125;"/><polygon fill="#446E9B" points="114.0625,443.4167,109.8958,449.6667,114.0625,455.9167,118.2292,449.6667,114.0625,443.4167" style="stroke:#446E9B;stroke-width:3.125;"/></g><!--SRC=[VLBBJiCm4BpdAyoDX_e34HTeGUe5LQhWWZXidILToVP6zhONuDznRES525yYpsHcTZEva2DQLA43ZGOELQKDXA1sw0CxK1-LYcVbs1uyrceldboRCUZG66fuYJQEHk1hSDkp9XwzFA_1EvHQaPECwGGyM99aUCzi45pctb4VOUk2zjH56rUh3GWMtOa5DWGlw3HPGYTHlHrTU_QnbpyR8SixQ7_HeLRh_ldwbi0RZoq5yU0lh-eyTyOxQ2EM94KH-JDJqszPrdpYnQAWXSxKG8Cnv6wu_1bKbFEeKJtJpY9puiZyLnJPZhr4SCEdWy5UFKnwlLfD7bKrj7xx6V4yqG8QnYpfwJCCoJzJfkuMvSow0oTzxBhKCFQIHBchwMsB3PK2fxzhMYAPLDy0]--></g></svg>