<?xml version="1.0" encoding="us-ascii" standalone="no"?><svg xmlns="http://www.w3.org/2000/svg" xmlns:xlink="http://www.w3.org/1999/xlink" contentStyleType="text/css" height="950px" preserveAspectRatio="none" style="width:873px;height:950px;" version="1.1" viewBox="0 0 873 950" width="873.9583px" zoomAndPan="magnify"><defs><linearGradient id="g1hi4pb36zv74y0" x1="50%" x2="50%" y1="0%" y2="100%"><stop offset="0%" stop-color="#7C9AB9"/><stop offset="100%" stop-color="#304D6D"/></linearGradient><linearGradient id="g1hi4pb36zv74y1" x1="50%" x2="50%" y1="0%" y2="100%"><stop offset="0%" stop-color="#7C9AB9"/><stop offset="100%" stop-color="#446E9B"/></linearGradient></defs><g><!--class Socio--><g id="elem_Socio"><rect codeLine="4" fill="url(#g1hi4pb36zv74y0)" height="240.8773" id="Socio" rx="4.1667" ry="4.1667" style="stroke:#304D6D;stroke-width:1.0416666666666667;" width="220.8333" x="273.9583" y="252.1146"/><rect fill="url(#g1hi4pb36zv74y1)" height="34.1715" rx="4.1667" ry="4.1667" style="stroke:url(#g1hi4pb36zv74y1);stroke-width:1.0416666666666667;" width="220.8333" x="273.9583" y="252.1146"/><rect fill="url(#g1hi4pb36zv74y1)" height="4.1667" style="stroke:url(#g1hi4pb36zv74y1);stroke-width:1.0416666666666667;" width="220.8333" x="273.9583" y="282.1195"/><rect codeLine="4" fill="none" height="240.8773" id="Socio" rx="4.1667" ry="4.1667" style="stroke:#304D6D;stroke-width:1.0416666666666667;" width="220.8333" x="273.9583" y="252.1146"/><ellipse cx="358.8542" cy="269.2004" fill="none" rx="10.4167" ry="10.4167" style="stroke:#304D6D;stroke-width:1.0416666666666667;"/><path d="M360.7585,273.6274 Q360.3353,273.839 359.8633,273.953 Q359.3913,274.0669 358.8867,274.0669 Q357.0313,274.0669 356.0547,272.8625 Q355.0944,271.6418 355.0944,269.3468 Q355.0944,267.0356 356.0547,265.8312 Q357.0313,264.6105 358.8867,264.6105 Q359.3913,264.6105 359.8633,264.7244 Q360.3516,264.8221 360.7585,265.05 L360.7585,267.0519 Q360.3027,266.6287 359.8633,266.4334 Q359.4238,266.2218 358.9681,266.2218 Q357.9753,266.2218 357.4707,267.0194 Q356.9661,267.8006 356.9661,269.3468 Q356.9661,270.8768 357.4707,271.658 Q357.9753,272.4393 358.9681,272.4393 Q359.4238,272.4393 359.8633,272.244 Q360.3027,272.0487 360.7585,271.6255 L360.7585,273.6274 Z " fill="#FFFFFF"/><text fill="#EEEEEE" font-family="Verdana" font-size="11.4583" lengthAdjust="spacing" textLength="32.2917" x="383.8542" y="273.1671">Socio</text><line style="stroke:#304D6D;stroke-width:1.0416666666666667;" x1="275" x2="493.75" y1="286.2861" y2="286.2861"/><rect fill="none" height="6.25" style="stroke:#304D6D;stroke-width:1.0416666666666667;" width="6.25" x="282.2917" y="300.7677"/><text fill="#EEEEEE" font-family="Verdana" font-size="11.4583" lengthAdjust="spacing" textLength="89.5833" x="298.9583" y="306.297">nombre: String</text><rect fill="none" height="6.25" style="stroke:#304D6D;stroke-width:1.0416666666666667;" width="6.25" x="282.2917" y="324.5226"/><text fill="#EEEEEE" font-family="Verdana" font-size="11.4583" lengthAdjust="spacing" textLength="89.5833" x="298.9583" y="330.0519">apellido: String</text><rect fill="none" height="6.25" style="stroke:#304D6D;stroke-width:1.0416666666666667;" width="6.25" x="282.2917" y="348.2775"/><text fill="#EEEEEE" font-family="Verdana" font-size="11.4583" lengthAdjust="spacing" textLength="61.4583" x="298.9583" y="353.8068">dni: String</text><rect fill="none" height="6.25" style="stroke:#304D6D;stroke-width:1.0416666666666667;" width="6.25" x="282.2917" y="372.0324"/><text fill="#EEEEEE" font-family="Verdana" font-size="11.4583" lengthAdjust="spacing" textLength="131.25" x="298.9583" y="377.5617">fechaInscripcion: Date</text><rect fill="none" height="6.25" style="stroke:#304D6D;stroke-width:1.0416666666666667;" width="6.25" x="282.2917" y="395.7873"/><text fill="#EEEEEE" font-family="Verdana" font-size="11.4583" lengthAdjust="spacing" textLength="173.9583" x="298.9583" y="401.3165">fechaVencimientoCuota: Date</text><line style="stroke:#304D6D;stroke-width:1.0416666666666667;" x1="275" x2="493.75" y1="413.3939" y2="413.3939"/><rect fill="none" height="6.25" style="stroke:#304D6D;stroke-width:1.0416666666666667;" width="6.25" x="282.2917" y="427.8755"/><text fill="#EEEEEE" font-family="Verdana" font-size="11.4583" lengthAdjust="spacing" textLength="122.9167" x="298.9583" y="433.4048">pagoAlDia(): Boolean</text><ellipse cx="285.4167" cy="454.7554" fill="none" rx="3.125" ry="3.125" style="stroke:#304D6D;stroke-width:1.0416666666666667;"/><text fill="#EEEEEE" font-family="Verdana" font-size="11.4583" lengthAdjust="spacing" textLength="125" x="298.9583" y="457.1596">registrarSocio(): void</text><ellipse cx="285.4167" cy="478.5103" fill="none" rx="3.125" ry="3.125" style="stroke:#304D6D;stroke-width:1.0416666666666667;"/><text fill="#EEEEEE" font-family="Verdana" font-size="11.4583" lengthAdjust="spacing" textLength="184.375" x="298.9583" y="480.9145">pagarCuota(cuota: Cuota): void</text></g><!--class NoSocio--><g id="elem_NoSocio"><rect codeLine="15" fill="url(#g1hi4pb36zv74y0)" height="122.1029" id="NoSocio" rx="4.1667" ry="4.1667" style="stroke:#304D6D;stroke-width:1.0416666666666667;" width="126.0417" x="510.9375" y="29.5833"/><rect fill="url(#g1hi4pb36zv74y1)" height="34.1715" rx="4.1667" ry="4.1667" style="stroke:url(#g1hi4pb36zv74y1);stroke-width:1.0416666666666667;" width="126.0417" x="510.9375" y="29.5833"/><rect fill="url(#g1hi4pb36zv74y1)" height="4.1667" style="stroke:url(#g1hi4pb36zv74y1);stroke-width:1.0416666666666667;" width="126.0417" x="510.9375" y="59.5882"/><rect codeLine="15" fill="none" height="122.1029" id="NoSocio" rx="4.1667" ry="4.1667" style="stroke:#304D6D;stroke-width:1.0416666666666667;" width="126.0417" x="510.9375" y="29.5833"/><ellipse cx="541.9271" cy="46.6691" fill="none" rx="10.4167" ry="10.4167" style="stroke:#304D6D;stroke-width:1.0416666666666667;"/><path d="M543.8314,51.0962 Q543.4082,51.3078 542.9362,51.4217 Q542.4642,51.5356 541.9596,51.5356 Q540.1042,51.5356 539.1276,50.3312 Q538.1673,49.1105 538.1673,46.8156 Q538.1673,44.5044 539.1276,43.3 Q540.1042,42.0793 541.9596,42.0793 Q542.4642,42.0793 542.9362,42.1932 Q543.4245,42.2909 543.8314,42.5187 L543.8314,44.5207 Q543.3757,44.0975 542.9362,43.9022 Q542.4967,43.6906 542.041,43.6906 Q541.0482,43.6906 540.5436,44.4881 Q540.0391,45.2694 540.0391,46.8156 Q540.0391,48.3455 540.5436,49.1268 Q541.0482,49.908 542.041,49.908 Q542.4967,49.908 542.9362,49.7127 Q543.3757,49.5174 543.8314,49.0942 L543.8314,51.0962 Z " fill="#FFFFFF"/><text fill="#EEEEEE" font-family="Verdana" font-size="11.4583" lengthAdjust="spacing" textLength="47.9167" x="564.3229" y="50.6359">NoSocio</text><line style="stroke:#304D6D;stroke-width:1.0416666666666667;" x1="511.9792" x2="635.9375" y1="63.7549" y2="63.7549"/><rect fill="none" height="6.25" style="stroke:#304D6D;stroke-width:1.0416666666666667;" width="6.25" x="519.2708" y="78.2365"/><text fill="#EEEEEE" font-family="Verdana" font-size="11.4583" lengthAdjust="spacing" textLength="89.5833" x="535.9375" y="83.7658">nombre: String</text><rect fill="none" height="6.25" style="stroke:#304D6D;stroke-width:1.0416666666666667;" width="6.25" x="519.2708" y="101.9914"/><text fill="#EEEEEE" font-family="Verdana" font-size="11.4583" lengthAdjust="spacing" textLength="89.5833" x="535.9375" y="107.5207">apellido: String</text><rect fill="none" height="6.25" style="stroke:#304D6D;stroke-width:1.0416666666666667;" width="6.25" x="519.2708" y="125.7463"/><text fill="#EEEEEE" font-family="Verdana" font-size="11.4583" lengthAdjust="spacing" textLength="61.4583" x="535.9375" y="131.2755">dni: String</text><line style="stroke:#304D6D;stroke-width:1.0416666666666667;" x1="511.9792" x2="635.9375" y1="143.3529" y2="143.3529"/></g><!--class Cuota--><g id="elem_Cuota"><rect codeLine="21" fill="url(#g1hi4pb36zv74y0)" height="145.8577" id="Cuota" rx="4.1667" ry="4.1667" style="stroke:#304D6D;stroke-width:1.0416666666666667;" width="348.9583" x="63.0208" y="581.5313"/><rect fill="url(#g1hi4pb36zv74y1)" height="34.1715" rx="4.1667" ry="4.1667" style="stroke:url(#g1hi4pb36zv74y1);stroke-width:1.0416666666666667;" width="348.9583" x="63.0208" y="581.5313"/><rect fill="url(#g1hi4pb36zv74y1)" height="4.1667" style="stroke:url(#g1hi4pb36zv74y1);stroke-width:1.0416666666666667;" width="348.9583" x="63.0208" y="611.5361"/><rect codeLine="21" fill="none" height="145.8577" id="Cuota" rx="4.1667" ry="4.1667" style="stroke:#304D6D;stroke-width:1.0416666666666667;" width="348.9583" x="63.0208" y="581.5313"/><ellipse cx="210.9375" cy="598.617" fill="none" rx="10.4167" ry="10.4167" style="stroke:#304D6D;stroke-width:1.0416666666666667;"/><path d="M212.8418,603.0441 Q212.4186,603.2557 211.9466,603.3696 Q211.4746,603.4836 210.9701,603.4836 Q209.1146,603.4836 208.138,602.2791 Q207.1777,601.0584 207.1777,598.7635 Q207.1777,596.4523 208.138,595.2479 Q209.1146,594.0272 210.9701,594.0272 Q211.4746,594.0272 211.9466,594.1411 Q212.4349,594.2388 212.8418,594.4666 L212.8418,596.4686 Q212.3861,596.0454 211.9466,595.8501 Q211.5072,595.6385 211.0514,595.6385 Q210.0586,595.6385 209.554,596.436 Q209.0495,597.2173 209.0495,598.7635 Q209.0495,600.2935 209.554,601.0747 Q210.0586,601.856 211.0514,601.856 Q211.5072,601.856 211.9466,601.6606 Q212.3861,601.4653 212.8418,601.0422 L212.8418,603.0441 Z " fill="#FFFFFF"/><text fill="#EEEEEE" font-family="Verdana" font-size="11.4583" lengthAdjust="spacing" textLength="34.375" x="235.9375" y="602.5838">Cuota</text><line style="stroke:#304D6D;stroke-width:1.0416666666666667;" x1="64.0625" x2="410.9375" y1="615.7028" y2="615.7028"/><rect fill="none" height="6.25" style="stroke:#304D6D;stroke-width:1.0416666666666667;" width="6.25" x="71.3542" y="630.1844"/><text fill="#EEEEEE" font-family="Verdana" font-size="11.4583" lengthAdjust="spacing" textLength="86.4583" x="88.0208" y="635.7137">monto: Double</text><rect fill="none" height="6.25" style="stroke:#304D6D;stroke-width:1.0416666666666667;" width="6.25" x="71.3542" y="653.9393"/><text fill="#EEEEEE" font-family="Verdana" font-size="11.4583" lengthAdjust="spacing" textLength="139.5833" x="88.0208" y="659.4686">fechaVencimiento: Date</text><rect fill="none" height="6.25" style="stroke:#304D6D;stroke-width:1.0416666666666667;" width="6.25" x="71.3542" y="677.6942"/><text fill="#EEEEEE" font-family="Verdana" font-size="11.4583" lengthAdjust="spacing" textLength="312.5" x="88.0208" y="683.2234">tipoCuota: String &#171;enumeration&#187; { Mensual, Diaria }</text><line style="stroke:#304D6D;stroke-width:1.0416666666666667;" x1="64.0625" x2="410.9375" y1="695.3008" y2="695.3008"/><ellipse cx="74.4792" cy="712.9074" fill="none" rx="3.125" ry="3.125" style="stroke:#304D6D;stroke-width:1.0416666666666667;"/><text fill="#EEEEEE" font-family="Verdana" font-size="11.4583" lengthAdjust="spacing" textLength="113.5417" x="88.0208" y="715.3117">cobrarCuota(): void</text></g><!--class Carnet--><g id="elem_Carnet"><rect codeLine="28" fill="url(#g1hi4pb36zv74y0)" height="145.8577" id="Carnet" rx="4.1667" ry="4.1667" style="stroke:#304D6D;stroke-width:1.0416666666666667;" width="165.625" x="448.4375" y="581.5313"/><rect fill="url(#g1hi4pb36zv74y1)" height="34.1715" rx="4.1667" ry="4.1667" style="stroke:url(#g1hi4pb36zv74y1);stroke-width:1.0416666666666667;" width="165.625" x="448.4375" y="581.5313"/><rect fill="url(#g1hi4pb36zv74y1)" height="4.1667" style="stroke:url(#g1hi4pb36zv74y1);stroke-width:1.0416666666666667;" width="165.625" x="448.4375" y="611.5361"/><rect codeLine="28" fill="none" height="145.8577" id="Carnet" rx="4.1667" ry="4.1667" style="stroke:#304D6D;stroke-width:1.0416666666666667;" width="165.625" x="448.4375" y="581.5313"/><ellipse cx="502.0833" cy="598.617" fill="none" rx="10.4167" ry="10.4167" style="stroke:#304D6D;stroke-width:1.0416666666666667;"/><path d="M503.9876,603.0441 Q503.5645,603.2557 503.0924,603.3696 Q502.6204,603.4836 502.1159,603.4836 Q500.2604,603.4836 499.2839,602.2791 Q498.3236,601.0584 498.3236,598.7635 Q498.3236,596.4523 499.2839,595.2479 Q500.2604,594.0272 502.1159,594.0272 Q502.6204,594.0272 503.0924,594.1411 Q503.5807,594.2388 503.9876,594.4666 L503.9876,596.4686 Q503.5319,596.0454 503.0924,595.8501 Q502.653,595.6385 502.1973,595.6385 Q501.2044,595.6385 500.6999,596.436 Q500.1953,597.2173 500.1953,598.7635 Q500.1953,600.2935 500.6999,601.0747 Q501.2044,601.856 502.1973,601.856 Q502.653,601.856 503.0924,601.6606 Q503.5319,601.4653 503.9876,601.0422 L503.9876,603.0441 Z " fill="#FFFFFF"/><text fill="#EEEEEE" font-family="Verdana" font-size="11.4583" lengthAdjust="spacing" textLength="39.5833" x="527.0833" y="602.5838">Carnet</text><line style="stroke:#304D6D;stroke-width:1.0416666666666667;" x1="449.4792" x2="613.0208" y1="615.7028" y2="615.7028"/><rect fill="none" height="6.25" style="stroke:#304D6D;stroke-width:1.0416666666666667;" width="6.25" x="456.7708" y="630.1844"/><text fill="#EEEEEE" font-family="Verdana" font-size="11.4583" lengthAdjust="spacing" textLength="129.1667" x="473.4375" y="635.7137">numeroCarnet: String</text><rect fill="none" height="6.25" style="stroke:#304D6D;stroke-width:1.0416666666666667;" width="6.25" x="456.7708" y="653.9393"/><text fill="#EEEEEE" font-family="Verdana" font-size="11.4583" lengthAdjust="spacing" textLength="114.5833" x="473.4375" y="659.4686">fechaEmision: Date</text><rect fill="none" height="6.25" style="stroke:#304D6D;stroke-width:1.0416666666666667;" width="6.25" x="456.7708" y="677.6942"/><text fill="#EEEEEE" font-family="Verdana" font-size="11.4583" lengthAdjust="spacing" textLength="71.875" x="473.4375" y="683.2234">socio: Socio</text><line style="stroke:#304D6D;stroke-width:1.0416666666666667;" x1="449.4792" x2="613.0208" y1="695.3008" y2="695.3008"/><ellipse cx="459.8958" cy="712.9074" fill="none" rx="3.125" ry="3.125" style="stroke:#304D6D;stroke-width:1.0416666666666667;"/><text fill="#EEEEEE" font-family="Verdana" font-size="11.4583" lengthAdjust="spacing" textLength="114.5833" x="473.4375" y="715.3117">emitirCarnet(): void</text></g><!--class Profesor--><g id="elem_Profesor"><rect codeLine="35" fill="url(#g1hi4pb36zv74y0)" height="145.8577" id="Profesor" rx="4.1667" ry="4.1667" style="stroke:#304D6D;stroke-width:1.0416666666666667;" width="194.7917" x="667.1875" y="299.625"/><rect fill="url(#g1hi4pb36zv74y1)" height="34.1715" rx="4.1667" ry="4.1667" style="stroke:url(#g1hi4pb36zv74y1);stroke-width:1.0416666666666667;" width="194.7917" x="667.1875" y="299.625"/><rect fill="url(#g1hi4pb36zv74y1)" height="4.1667" style="stroke:url(#g1hi4pb36zv74y1);stroke-width:1.0416666666666667;" width="194.7917" x="667.1875" y="329.6299"/><rect codeLine="35" fill="none" height="145.8577" id="Profesor" rx="4.1667" ry="4.1667" style="stroke:#304D6D;stroke-width:1.0416666666666667;" width="194.7917" x="667.1875" y="299.625"/><ellipse cx="729.6875" cy="316.7108" fill="none" rx="10.4167" ry="10.4167" style="stroke:#304D6D;stroke-width:1.0416666666666667;"/><path d="M731.5918,321.1379 Q731.1686,321.3494 730.6966,321.4634 Q730.2246,321.5773 729.7201,321.5773 Q727.8646,321.5773 726.888,320.3729 Q725.9277,319.1522 725.9277,316.8573 Q725.9277,314.5461 726.888,313.3416 Q727.8646,312.1209 729.7201,312.1209 Q730.2246,312.1209 730.6966,312.2349 Q731.1849,312.3325 731.5918,312.5604 L731.5918,314.5623 Q731.1361,314.1392 730.6966,313.9438 Q730.2572,313.7323 729.8014,313.7323 Q728.8086,313.7323 728.304,314.5298 Q727.7995,315.311 727.7995,316.8573 Q727.7995,318.3872 728.304,319.1685 Q728.8086,319.9497 729.8014,319.9497 Q730.2572,319.9497 730.6966,319.7544 Q731.1361,319.5591 731.5918,319.1359 L731.5918,321.1379 Z " fill="#FFFFFF"/><text fill="#EEEEEE" font-family="Verdana" font-size="11.4583" lengthAdjust="spacing" textLength="51.0417" x="754.6875" y="320.6776">Profesor</text><line style="stroke:#304D6D;stroke-width:1.0416666666666667;" x1="668.2292" x2="860.9375" y1="333.7965" y2="333.7965"/><rect fill="none" height="6.25" style="stroke:#304D6D;stroke-width:1.0416666666666667;" width="6.25" x="675.5208" y="348.2782"/><text fill="#EEEEEE" font-family="Verdana" font-size="11.4583" lengthAdjust="spacing" textLength="89.5833" x="692.1875" y="353.8074">nombre: String</text><rect fill="none" height="6.25" style="stroke:#304D6D;stroke-width:1.0416666666666667;" width="6.25" x="675.5208" y="372.033"/><text fill="#EEEEEE" font-family="Verdana" font-size="11.4583" lengthAdjust="spacing" textLength="89.5833" x="692.1875" y="377.5623">apellido: String</text><rect fill="none" height="6.25" style="stroke:#304D6D;stroke-width:1.0416666666666667;" width="6.25" x="675.5208" y="395.7879"/><text fill="#EEEEEE" font-family="Verdana" font-size="11.4583" lengthAdjust="spacing" textLength="61.4583" x="692.1875" y="401.3172">dni: String</text><line style="stroke:#304D6D;stroke-width:1.0416666666666667;" x1="668.2292" x2="860.9375" y1="413.3945" y2="413.3945"/><ellipse cx="678.6458" cy="431.0011" fill="none" rx="3.125" ry="3.125" style="stroke:#304D6D;stroke-width:1.0416666666666667;"/><text fill="#EEEEEE" font-family="Verdana" font-size="11.4583" lengthAdjust="spacing" textLength="158.3333" x="692.1875" y="433.4054">reemplazarProfesor(): void</text></g><!--class AusenciaProfesor--><g id="elem_AusenciaProfesor"><rect codeLine="42" fill="url(#g1hi4pb36zv74y0)" height="145.8577" id="AusenciaProfesor" rx="4.1667" ry="4.1667" style="stroke:#304D6D;stroke-width:1.0416666666666667;" width="182.2917" x="673.4375" y="17.7083"/><rect fill="url(#g1hi4pb36zv74y1)" height="34.1715" rx="4.1667" ry="4.1667" style="stroke:url(#g1hi4pb36zv74y1);stroke-width:1.0416666666666667;" width="182.2917" x="673.4375" y="17.7083"/><rect fill="url(#g1hi4pb36zv74y1)" height="4.1667" style="stroke:url(#g1hi4pb36zv74y1);stroke-width:1.0416666666666667;" width="182.2917" x="673.4375" y="47.7132"/><rect codeLine="42" fill="none" height="145.8577" id="AusenciaProfesor" rx="4.1667" ry="4.1667" style="stroke:#304D6D;stroke-width:1.0416666666666667;" width="182.2917" x="673.4375" y="17.7083"/><ellipse cx="704.4271" cy="34.7941" fill="none" rx="10.4167" ry="10.4167" style="stroke:#304D6D;stroke-width:1.0416666666666667;"/><path d="M706.3314,39.2212 Q705.9082,39.4328 705.4362,39.5467 Q704.9642,39.6606 704.4596,39.6606 Q702.6042,39.6606 701.6276,38.4562 Q700.6673,37.2355 700.6673,34.9406 Q700.6673,32.6294 701.6276,31.425 Q702.6042,30.2043 704.4596,30.2043 Q704.9642,30.2043 705.4362,30.3182 Q705.9245,30.4159 706.3314,30.6437 L706.3314,32.6457 Q705.8757,32.2225 705.4362,32.0272 Q704.9967,31.8156 704.541,31.8156 Q703.5482,31.8156 703.0436,32.6131 Q702.5391,33.3944 702.5391,34.9406 Q702.5391,36.4705 703.0436,37.2518 Q703.5482,38.033 704.541,38.033 Q704.9967,38.033 705.4362,37.8377 Q705.8757,37.6424 706.3314,37.2192 L706.3314,39.2212 Z " fill="#FFFFFF"/><text fill="#EEEEEE" font-family="Verdana" font-size="11.4583" lengthAdjust="spacing" textLength="104.1667" x="726.8229" y="38.7609">AusenciaProfesor</text><line style="stroke:#304D6D;stroke-width:1.0416666666666667;" x1="674.4792" x2="854.6875" y1="51.8799" y2="51.8799"/><rect fill="none" height="6.25" style="stroke:#304D6D;stroke-width:1.0416666666666667;" width="6.25" x="681.7708" y="66.3615"/><text fill="#EEEEEE" font-family="Verdana" font-size="11.4583" lengthAdjust="spacing" textLength="120.8333" x="698.4375" y="71.8908">fechaAusencia: Date</text><rect fill="none" height="6.25" style="stroke:#304D6D;stroke-width:1.0416666666666667;" width="6.25" x="681.7708" y="90.1164"/><text fill="#EEEEEE" font-family="Verdana" font-size="11.4583" lengthAdjust="spacing" textLength="110.4167" x="698.4375" y="95.6457">profesor: Profesor</text><line style="stroke:#304D6D;stroke-width:1.0416666666666667;" x1="674.4792" x2="854.6875" y1="107.723" y2="107.723"/><ellipse cx="684.8958" cy="125.3296" fill="none" rx="3.125" ry="3.125" style="stroke:#304D6D;stroke-width:1.0416666666666667;"/><text fill="#EEEEEE" font-family="Verdana" font-size="11.4583" lengthAdjust="spacing" textLength="145.8333" x="698.4375" y="127.7339">registrarAusencia(): void</text><ellipse cx="684.8958" cy="149.0845" fill="none" rx="3.125" ry="3.125" style="stroke:#304D6D;stroke-width:1.0416666666666667;"/><text fill="#EEEEEE" font-family="Verdana" font-size="11.4583" lengthAdjust="spacing" textLength="137.5" x="698.4375" y="151.4887">asignarSuplente(): void</text></g><!--class PromocionPago--><g id="elem_PromocionPago"><rect codeLine="49" fill="url(#g1hi4pb36zv74y0)" height="122.1029" id="PromocionPago" rx="4.1667" ry="4.1667" style="stroke:#304D6D;stroke-width:1.0416666666666667;" width="439.5833" x="17.7083" y="815.9271"/><rect fill="url(#g1hi4pb36zv74y1)" height="34.1715" rx="4.1667" ry="4.1667" style="stroke:url(#g1hi4pb36zv74y1);stroke-width:1.0416666666666667;" width="439.5833" x="17.7083" y="815.9271"/><rect fill="url(#g1hi4pb36zv74y1)" height="4.1667" style="stroke:url(#g1hi4pb36zv74y1);stroke-width:1.0416666666666667;" width="439.5833" x="17.7083" y="845.932"/><rect codeLine="49" fill="none" height="122.1029" id="PromocionPago" rx="4.1667" ry="4.1667" style="stroke:#304D6D;stroke-width:1.0416666666666667;" width="439.5833" x="17.7083" y="815.9271"/><ellipse cx="182.2917" cy="833.0129" fill="none" rx="10.4167" ry="10.4167" style="stroke:#304D6D;stroke-width:1.0416666666666667;"/><path d="M184.196,837.4399 Q183.7728,837.6515 183.3008,837.7655 Q182.8288,837.8794 182.3242,837.8794 Q180.4688,837.8794 179.4922,836.675 Q178.5319,835.4543 178.5319,833.1593 Q178.5319,830.8481 179.4922,829.6437 Q180.4688,828.423 182.3242,828.423 Q182.8288,828.423 183.3008,828.5369 Q183.7891,828.6346 184.196,828.8625 L184.196,830.8644 Q183.7402,830.4412 183.3008,830.2459 Q182.8613,830.0343 182.4056,830.0343 Q181.4128,830.0343 180.9082,830.8319 Q180.4036,831.6131 180.4036,833.1593 Q180.4036,834.6893 180.9082,835.4705 Q181.4128,836.2518 182.4056,836.2518 Q182.8613,836.2518 183.3008,836.0565 Q183.7402,835.8612 184.196,835.438 L184.196,837.4399 Z " fill="#FFFFFF"/><text fill="#EEEEEE" font-family="Verdana" font-size="11.4583" lengthAdjust="spacing" textLength="91.6667" x="207.2917" y="836.9796">PromocionPago</text><line style="stroke:#304D6D;stroke-width:1.0416666666666667;" x1="18.75" x2="456.25" y1="850.0986" y2="850.0986"/><rect fill="none" height="6.25" style="stroke:#304D6D;stroke-width:1.0416666666666667;" width="6.25" x="26.0417" y="864.5802"/><text fill="#EEEEEE" font-family="Verdana" font-size="11.4583" lengthAdjust="spacing" textLength="403.125" x="42.7083" y="870.1095">numeroCuotas: Integer &#171;enumeration&#187; { TresCuotas, SeisCuotas }</text><rect fill="none" height="6.25" style="stroke:#304D6D;stroke-width:1.0416666666666667;" width="6.25" x="26.0417" y="888.3351"/><text fill="#EEEEEE" font-family="Verdana" font-size="11.4583" lengthAdjust="spacing" textLength="110.4167" x="42.7083" y="893.8644">descuento: Double</text><line style="stroke:#304D6D;stroke-width:1.0416666666666667;" x1="18.75" x2="456.25" y1="905.9417" y2="905.9417"/><ellipse cx="29.1667" cy="923.5483" fill="none" rx="3.125" ry="3.125" style="stroke:#304D6D;stroke-width:1.0416666666666667;"/><text fill="#EEEEEE" font-family="Verdana" font-size="11.4583" lengthAdjust="spacing" textLength="142.7083" x="42.7083" y="925.9526">aplicarPromocion(): void</text></g><!--class ListadoCuotasVencidas--><g id="elem_ListadoCuotasVencidas"><rect codeLine="55" fill="url(#g1hi4pb36zv74y0)" height="98.348" id="ListadoCuotasVencidas" rx="4.1667" ry="4.1667" style="stroke:#304D6D;stroke-width:1.0416666666666667;" width="179.1667" x="294.7917" y="41.4687"/><rect fill="url(#g1hi4pb36zv74y1)" height="34.1715" rx="4.1667" ry="4.1667" style="stroke:url(#g1hi4pb36zv74y1);stroke-width:1.0416666666666667;" width="179.1667" x="294.7917" y="41.4687"/><rect fill="url(#g1hi4pb36zv74y1)" height="4.1667" style="stroke:url(#g1hi4pb36zv74y1);stroke-width:1.0416666666666667;" width="179.1667" x="294.7917" y="71.4736"/><rect codeLine="55" fill="none" height="98.348" id="ListadoCuotasVencidas" rx="4.1667" ry="4.1667" style="stroke:#304D6D;stroke-width:1.0416666666666667;" width="179.1667" x="294.7917" y="41.4687"/><ellipse cx="309.375" cy="58.5545" fill="none" rx="10.4167" ry="10.4167" style="stroke:#304D6D;stroke-width:1.0416666666666667;"/><path d="M311.2793,62.9816 Q310.8561,63.1932 310.3841,63.3071 Q309.9121,63.4211 309.4076,63.4211 Q307.5521,63.4211 306.5755,62.2166 Q305.6152,60.9959 305.6152,58.701 Q305.6152,56.3898 306.5755,55.1854 Q307.5521,53.9647 309.4076,53.9647 Q309.9121,53.9647 310.3841,54.0786 Q310.8724,54.1763 311.2793,54.4041 L311.2793,56.4061 Q310.8236,55.9829 310.3841,55.7876 Q309.9447,55.576 309.4889,55.576 Q308.4961,55.576 307.9915,56.3735 Q307.487,57.1548 307.487,58.701 Q307.487,60.231 307.9915,61.0122 Q308.4961,61.7935 309.4889,61.7935 Q309.9447,61.7935 310.3841,61.5981 Q310.8236,61.4028 311.2793,60.9797 L311.2793,62.9816 Z " fill="#FFFFFF"/><text fill="#EEEEEE" font-family="Verdana" font-size="11.4583" lengthAdjust="spacing" textLength="137.5" x="328.125" y="62.5213">ListadoCuotasVencidas</text><line style="stroke:#304D6D;stroke-width:1.0416666666666667;" x1="295.8333" x2="472.9167" y1="75.6403" y2="75.6403"/><rect fill="none" height="6.25" style="stroke:#304D6D;stroke-width:1.0416666666666667;" width="6.25" x="303.125" y="90.1219"/><text fill="#EEEEEE" font-family="Verdana" font-size="11.4583" lengthAdjust="spacing" textLength="110.4167" x="319.7917" y="95.6512">fechaListado: Date</text><line style="stroke:#304D6D;stroke-width:1.0416666666666667;" x1="295.8333" x2="472.9167" y1="107.7285" y2="107.7285"/><ellipse cx="306.25" cy="125.3351" fill="none" rx="3.125" ry="3.125" style="stroke:#304D6D;stroke-width:1.0416666666666667;"/><text fill="#EEEEEE" font-family="Verdana" font-size="11.4583" lengthAdjust="spacing" textLength="130.2083" x="319.7917" y="127.7394">generarListado(): void</text></g><!--link Socio to Carnet--><g id="link_Socio_Carnet"><path codeLine="60" d="M447.3021,493.4792 C462.9479,523.2917 479.25,554.3542 493.2813,581.0729 " fill="none" id="Socio-Carnet" style="stroke:#446E9B;stroke-width:3.125;"/><text fill="#FFFFFF" font-family="Verdana" font-size="12.5" lengthAdjust="spacing" textLength="40.625" x="482.2917" y="542.0924">recibe</text><text fill="#FFFFFF" font-family="Verdana" font-size="12.5" lengthAdjust="spacing" textLength="8.3333" x="436.8564" y="518.003">1</text><text fill="#FFFFFF" font-family="Verdana" font-size="12.5" lengthAdjust="spacing" textLength="8.3333" x="474.8573" y="565.1743">1</text></g><!--link Socio to Cuota--><g id="link_Socio_Cuota"><path codeLine="61" d="M321.4479,493.4792 C305.8021,523.2917 289.5,554.3542 275.4688,581.0729 " fill="none" id="Socio-Cuota" style="stroke:#446E9B;stroke-width:3.125;"/><text fill="#FFFFFF" font-family="Verdana" font-size="12.5" lengthAdjust="spacing" textLength="33.3333" x="309.375" y="542.0924">paga</text><text fill="#FFFFFF" font-family="Verdana" font-size="12.5" lengthAdjust="spacing" textLength="8.3333" x="303.7263" y="518.003">1</text><text fill="#FFFFFF" font-family="Verdana" font-size="12.5" lengthAdjust="spacing" textLength="22.9167" x="249.5405" y="565.1743">1..*</text></g><!--link Cuota to PromocionPago--><g id="link_Cuota_PromocionPago"><path codeLine="62" d="M237.5,727.6771 C237.5,756.1875 237.5,788.5521 237.5,815.7604 " fill="none" id="Cuota-PromocionPago" style="stroke:#446E9B;stroke-width:3.125;"/><text fill="#FFFFFF" font-family="Verdana" font-size="12.5" lengthAdjust="spacing" textLength="44.7917" x="243.75" y="776.4882">incluye</text><text fill="#FFFFFF" font-family="Verdana" font-size="12.5" lengthAdjust="spacing" textLength="22.9167" x="207.7865" y="752.6565">0..*</text><text fill="#FFFFFF" font-family="Verdana" font-size="12.5" lengthAdjust="spacing" textLength="8.3333" x="222.7572" y="799.2994">1</text></g><!--link AusenciaProfesor to Profesor--><g id="link_AusenciaProfesor_Profesor"><path codeLine="63" d="M764.5833,163.7396 C764.5833,205.3646 764.5833,257.5417 764.5833,299.2083 " fill="none" id="AusenciaProfesor-Profesor" style="stroke:#446E9B;stroke-width:3.125;"/><text fill="#FFFFFF" font-family="Verdana" font-size="12.5" lengthAdjust="spacing" textLength="57.2917" x="770.8333" y="212.6757">gestiona</text><text fill="#FFFFFF" font-family="Verdana" font-size="12.5" lengthAdjust="spacing" textLength="8.3333" x="750.1481" y="188.7081">1</text><text fill="#FFFFFF" font-family="Verdana" font-size="12.5" lengthAdjust="spacing" textLength="8.3333" x="750.0749" y="283.314">1</text></g><!--link ListadoCuotasVencidas to Socio--><g id="link_ListadoCuotasVencidas_Socio"><path codeLine="65" d="M384.375,140.1042 C384.375,171 384.375,212.4896 384.375,251.8021 " fill="none" id="ListadoCuotasVencidas-Socio" style="stroke:#446E9B;stroke-width:3.125;"/><text fill="#FFFFFF" font-family="Verdana" font-size="12.5" lengthAdjust="spacing" textLength="56.25" x="390.625" y="212.6757">consulta</text></g><!--SRC=[hLFBRjmm3BpxAzWzfTriq5w5842Qz12WBG9iqJijCmu1FGnABj06-VVAahtmOtDgVR5DKaFESFGkFfCb21rgCbXNbJOO0XozPWyl5QJduBojXHGSex1hImmxCeORlumsZfU19zBF-E225kuIebDmZv5ckP_aD5ic5_rTxoFE2pfi_QsvPxnuh-2pzuRGvSnUgEKG1INFEQH_UMvABfr2oLWNkY3cdwdcTQButVy7aYUqt6F2iZxHIKnyNvitoCvvHkucyWKMhg_9zPO4OzBivWPUu1kvqAEvX2I7CC9h8QjzBHFR3SCx54VnH700z2LsPabVB8VLWiAWZofUAEt8ScGf6Dj-Z-AVA7ZvTz-a1PFj3Fv1cK2txMxxCEY9wxQPpfHS-6aiLAT9LswQ3YqDXO5RbwpMToPjZixojeD6xZ4PTYNti9cWu24TR4dEBFQ7K2XLbt0a7h_7_HuQ2hgdjPlss1dMMPlIU3lJryG8cx5_zbsJKESAZHKpWVOjkJIQZ9avQBagkqyxE1poQ_IM0Y7DDQqBhgu-xCOxeM2uaLNvsNtCcH5aAPm2TjhqlwdQR7RM-1HJq58OPCIgEiysdIXZAT0-NHyJiVeB]--></g></svg>