<?xml version="1.0" encoding="us-ascii" standalone="no"?><svg xmlns="http://www.w3.org/2000/svg" xmlns:xlink="http://www.w3.org/1999/xlink" contentStyleType="text/css" height="131.25px" preserveAspectRatio="none" style="width:430px;height:131px;" version="1.1" viewBox="0 0 430 131" width="430.2083px" zoomAndPan="magnify"><defs><linearGradient id="g1io6f36fbpg7z0" x1="50%" x2="50%" y1="0%" y2="100%"><stop offset="0%" stop-color="#B8B8B8"/><stop offset="100%" stop-color="#6B6B6B"/></linearGradient><linearGradient id="g1io6f36fbpg7z1" x1="50%" x2="50%" y1="0%" y2="100%"><stop offset="0%" stop-color="#7C9AB9"/><stop offset="100%" stop-color="#304D6D"/></linearGradient></defs><g><g id="cluster_##3"><rect fill="url(#g1io6f36fbpg7z0)" height="102.4167" rx="4.1667" ry="4.1667" style="stroke:#446E9B;stroke-width:2.0833333333333335;" width="285.4167" x="133.3333" y="17.7083"/></g><g id="elem_vendia"><ellipse cx="276.0405" cy="75.6873" fill="url(#g1io6f36fbpg7z1)" rx="126.353" ry="27.7706" style="stroke:#304D6D;stroke-width:2.0833333333333335;"/><text fill="#FFFFFF" font-family="Verdana" font-size="12.5" lengthAdjust="spacing" textLength="189.5833" x="181.2489" y="77.9313">Reporte vencimientos del dia</text></g><!--entity adm--><g id="elem_adm"><ellipse cx="62.5" cy="40.8125" fill="url(#g1io6f36fbpg7z1)" rx="8.3333" ry="8.3333" style="stroke:#304D6D;stroke-width:1.0416666666666667;"/><path d="M62.5,49.1458 L62.5,77.2708 M48.9583,57.4792 L76.0417,57.4792 M62.5,77.2708 L48.9583,92.8958 M62.5,77.2708 L76.0417,92.8958 " fill="none" style="stroke:#304D6D;stroke-width:1.0416666666666667;"/><text fill="#FFFFFF" font-family="Verdana" font-size="12.5" lengthAdjust="spacing" textLength="91.6667" x="16.6667" y="111.7903">Administrativo</text></g><!--link adm to vendia--><g id="link_adm_vendia"><path d="M113.8021,75.6875 C125.625,75.6875 131.2083,75.6875 143.0417,75.6875 " fill="none" id="adm-to-vendia" style="stroke:#446E9B;stroke-width:3.125;"/><polygon fill="#446E9B" points="149.2917,75.6875,139.9167,71.5208,144.0833,75.6875,139.9167,79.8542,149.2917,75.6875" style="stroke:#446E9B;stroke-width:3.125;"/></g><!--SRC=[HOox3SCm44FxcuBfxC8Bk0YG5Rp1MIAI0_Gnf8ER8Bj7Hegm8lX8tlp5JFH30vFk8kiZPYlMlQdRMLTeXyOiqXXSopCHRy7GjF6epOcJ9LWs5gyTaGdHTBvcqo2N_zN7oOobBVT__f4l]--></g></svg>