<svg aria-roledescription="er" role="graphics-document document" viewBox="-5.910055160522461 0 654.0745849609375 726" height="726" xmlns="http://www.w3.org/2000/svg" width="654.0745849609375" id="container"><style>#container{font-family:"trebuchet ms",verdana,arial,sans-serif;font-size:16px;fill:#333;}#container .error-icon{fill:#552222;}#container .error-text{fill:#552222;stroke:#552222;}#container .edge-thickness-normal{stroke-width:2px;}#container .edge-thickness-thick{stroke-width:3.5px;}#container .edge-pattern-solid{stroke-dasharray:0;}#container .edge-pattern-dashed{stroke-dasharray:3;}#container .edge-pattern-dotted{stroke-dasharray:2;}#container .marker{fill:#333333;stroke:#333333;}#container .marker.cross{stroke:#333333;}#container svg{font-family:"trebuchet ms",verdana,arial,sans-serif;font-size:16px;}#container .entityBox{fill:#ECECFF;stroke:#9370DB;}#container .attributeBoxOdd{fill:#ffffff;stroke:#9370DB;}#container .attributeBoxEven{fill:#f2f2f2;stroke:#9370DB;}#container .relationshipLabelBox{fill:hsl(80, 100%, 96.2745098039%);opacity:0.7;background-color:hsl(80, 100%, 96.2745098039%);}#container .relationshipLabelBox rect{opacity:0.5;}#container .relationshipLine{stroke:#333333;}#container .entityTitleText{text-anchor:middle;font-size:18px;fill:#333;}#container #MD_PARENT_START{fill:#f5f5f5!important;stroke:#333333!important;stroke-width:1;}#container #MD_PARENT_END{fill:#f5f5f5!important;stroke:#333333!important;stroke-width:1;}#container :root{--mermaid-font-family:"trebuchet ms",verdana,arial,sans-serif;}</style><g></g><defs><marker orient="auto" markerHeight="240" markerWidth="190" refY="7" refX="0" id="MD_PARENT_START"><path d="M 18,7 L9,13 L1,7 L9,1 Z"></path></marker></defs><defs><marker orient="auto" markerHeight="28" markerWidth="20" refY="7" refX="19" id="MD_PARENT_END"><path d="M 18,7 L9,13 L1,7 L9,1 Z"></path></marker></defs><defs><marker orient="auto" markerHeight="18" markerWidth="18" refY="9" refX="0" id="ONLY_ONE_START"><path d="M9,0 L9,18 M15,0 L15,18" fill="none" stroke="gray"></path></marker></defs><defs><marker orient="auto" markerHeight="18" markerWidth="18" refY="9" refX="18" id="ONLY_ONE_END"><path d="M3,0 L3,18 M9,0 L9,18" fill="none" stroke="gray"></path></marker></defs><defs><marker orient="auto" markerHeight="18" markerWidth="30" refY="9" refX="0" id="ZERO_OR_ONE_START"><circle r="6" cy="9" cx="21" fill="white" stroke="gray"></circle><path d="M9,0 L9,18" fill="none" stroke="gray"></path></marker></defs><defs><marker orient="auto" markerHeight="18" markerWidth="30" refY="9" refX="30" id="ZERO_OR_ONE_END"><circle r="6" cy="9" cx="9" fill="white" stroke="gray"></circle><path d="M21,0 L21,18" fill="none" stroke="gray"></path></marker></defs><defs><marker orient="auto" markerHeight="36" markerWidth="45" refY="18" refX="18" id="ONE_OR_MORE_START"><path d="M0,18 Q 18,0 36,18 Q 18,36 0,18 M42,9 L42,27" fill="none" stroke="gray"></path></marker></defs><defs><marker orient="auto" markerHeight="36" markerWidth="45" refY="18" refX="27" id="ONE_OR_MORE_END"><path d="M3,9 L3,27 M9,18 Q27,0 45,18 Q27,36 9,18" fill="none" stroke="gray"></path></marker></defs><defs><marker orient="auto" markerHeight="36" markerWidth="57" refY="18" refX="18" id="ZERO_OR_MORE_START"><circle r="6" cy="18" cx="48" fill="white" stroke="gray"></circle><path d="M0,18 Q18,0 36,18 Q18,36 0,18" fill="none" stroke="gray"></path></marker></defs><defs><marker orient="auto" markerHeight="36" markerWidth="57" refY="18" refX="39" id="ZERO_OR_MORE_END"><circle r="6" cy="18" cx="9" fill="white" stroke="gray"></circle><path d="M21,18 Q39,0 57,18 Q39,36 21,18" fill="none" stroke="gray"></path></marker></defs><path style="stroke: gray; fill: none;" marker-start="url(#ONLY_ONE_START)" marker-end="url(#ZERO_OR_MORE_END)" d="M249.215,168.785L258.251,179.321C267.288,189.857,285.36,210.928,294.396,229.798C303.432,248.667,303.432,265.333,303.432,273.667L303.432,282" class="er relationshipLine"></path><path style="stroke: gray; fill: none;" marker-start="url(#ONLY_ONE_START)" marker-end="url(#ONLY_ONE_END)" d="M132.943,147.909L115.573,161.924C98.204,175.939,63.465,203.97,46.095,239.818C28.726,275.667,28.726,319.333,28.726,363C28.726,406.667,28.726,450.333,34.101,486.25C39.477,522.167,50.227,550.333,55.603,564.417L60.978,578.5" class="er relationshipLine"></path><path style="stroke: gray; fill: none;" marker-start="url(#ONLY_ONE_START)" marker-end="url(#ZERO_OR_MORE_END)" d="M217.28,432.515L204.58,442.762C191.88,453.01,166.479,473.505,147.076,497.836C127.672,522.167,114.266,550.333,107.562,564.417L100.859,578.5" class="er relationshipLine"></path><path style="stroke: gray; fill: none;" marker-start="url(#ZERO_OR_MORE_START)" marker-end="url(#ONLY_ONE_END)" d="M303.432,444L303.432,452.333C303.432,460.667,303.432,477.333,303.432,494C303.432,510.667,303.432,527.333,303.432,535.667L303.432,544" class="er relationshipLine"></path><path style="stroke: gray; fill: none;" marker-start="url(#ONLY_ONE_START)" marker-end="url(#ZERO_OR_MORE_END)" d="M389.584,408.998L416.118,423.165C442.652,437.332,495.72,465.666,522.254,490.083C548.788,514.5,548.788,535,548.788,545.25L548.788,555.5" class="er relationshipLine"></path><g transform="translate(132.9427375793457,20 )" id="entity-CLIENTE-8b97428f-cd26-5bb8-b585-f77366c59df3"><rect height="162" width="116.27262878417969" y="0" x="0" class="er entityBox"></rect><text style="dominant-baseline: middle; text-anchor: middle; font-size: 12px;" transform="translate(58.136314392089844,12)" y="0" x="0" id="text-entity-CLIENTE-8b97428f-cd26-5bb8-b585-f77366c59df3" class="er entityLabel">CLIENTE</text><rect height="23" width="37.21012878417969" y="24" x="0" class="er attributeBoxOdd"></rect><text style="dominant-baseline: middle; font-size: 10.2px;" transform="translate(5,35.5)" y="0" x="0" id="text-entity-CLIENTE-8b97428f-cd26-5bb8-b585-f77366c59df3-attr-1-type" class="er entityLabel">int</text><rect height="23" width="57.140625" y="24" x="37.21012878417969" class="er attributeBoxOdd"></rect><text style="dominant-baseline: middle; font-size: 10.2px;" transform="translate(42.21012878417969,35.5)" y="0" x="0" id="text-entity-CLIENTE-8b97428f-cd26-5bb8-b585-f77366c59df3-attr-1-name" class="er entityLabel">ID</text><rect height="23" width="21.921875" y="24" x="94.35075378417969" class="er attributeBoxOdd"></rect><text style="dominant-baseline: middle; font-size: 10.2px;" transform="translate(99.35075378417969,35.5)" y="0" x="0" id="text-entity-CLIENTE-8b97428f-cd26-5bb8-b585-f77366c59df3-attr-1-key" class="er entityLabel">PK</text><rect height="23" width="37.21012878417969" y="47" x="0" class="er attributeBoxEven"></rect><text style="dominant-baseline: middle; font-size: 10.2px;" transform="translate(5,58.5)" y="0" x="0" id="text-entity-CLIENTE-8b97428f-cd26-5bb8-b585-f77366c59df3-attr-2-type" class="er entityLabel">string</text><rect height="23" width="57.140625" y="47" x="37.21012878417969" class="er attributeBoxEven"></rect><text style="dominant-baseline: middle; font-size: 10.2px;" transform="translate(42.21012878417969,58.5)" y="0" x="0" id="text-entity-CLIENTE-8b97428f-cd26-5bb8-b585-f77366c59df3-attr-2-name" class="er entityLabel">NOMBRE</text><rect height="23" width="21.921875" y="47" x="94.35075378417969" class="er attributeBoxEven"></rect><text style="dominant-baseline: middle; font-size: 10.2px;" transform="translate(99.35075378417969,58.5)" y="0" x="0" id="text-entity-CLIENTE-8b97428f-cd26-5bb8-b585-f77366c59df3-attr-2-key" class="er entityLabel"></text><rect height="23" width="37.21012878417969" y="70" x="0" class="er attributeBoxOdd"></rect><text style="dominant-baseline: middle; font-size: 10.2px;" transform="translate(5,81.5)" y="0" x="0" id="text-entity-CLIENTE-8b97428f-cd26-5bb8-b585-f77366c59df3-attr-3-type" class="er entityLabel">string</text><rect height="23" width="57.140625" y="70" x="37.21012878417969" class="er attributeBoxOdd"></rect><text style="dominant-baseline: middle; font-size: 10.2px;" transform="translate(42.21012878417969,81.5)" y="0" x="0" id="text-entity-CLIENTE-8b97428f-cd26-5bb8-b585-f77366c59df3-attr-3-name" class="er entityLabel">APELLIDO</text><rect height="23" width="21.921875" y="70" x="94.35075378417969" class="er attributeBoxOdd"></rect><text style="dominant-baseline: middle; font-size: 10.2px;" transform="translate(99.35075378417969,81.5)" y="0" x="0" id="text-entity-CLIENTE-8b97428f-cd26-5bb8-b585-f77366c59df3-attr-3-key" class="er entityLabel"></text><rect height="23" width="37.21012878417969" y="93" x="0" class="er attributeBoxEven"></rect><text style="dominant-baseline: middle; font-size: 10.2px;" transform="translate(5,104.5)" y="0" x="0" id="text-entity-CLIENTE-8b97428f-cd26-5bb8-b585-f77366c59df3-attr-4-type" class="er entityLabel">string</text><rect height="23" width="57.140625" y="93" x="37.21012878417969" class="er attributeBoxEven"></rect><text style="dominant-baseline: middle; font-size: 10.2px;" transform="translate(42.21012878417969,104.5)" y="0" x="0" id="text-entity-CLIENTE-8b97428f-cd26-5bb8-b585-f77366c59df3-attr-4-name" class="er entityLabel">DNI</text><rect height="23" width="21.921875" y="93" x="94.35075378417969" class="er attributeBoxEven"></rect><text style="dominant-baseline: middle; font-size: 10.2px;" transform="translate(99.35075378417969,104.5)" y="0" x="0" id="text-entity-CLIENTE-8b97428f-cd26-5bb8-b585-f77366c59df3-attr-4-key" class="er entityLabel"></text><rect height="23" width="37.21012878417969" y="116" x="0" class="er attributeBoxOdd"></rect><text style="dominant-baseline: middle; font-size: 10.2px;" transform="translate(5,127.5)" y="0" x="0" id="text-entity-CLIENTE-8b97428f-cd26-5bb8-b585-f77366c59df3-attr-5-type" class="er entityLabel">string</text><rect height="23" width="57.140625" y="116" x="37.21012878417969" class="er attributeBoxOdd"></rect><text style="dominant-baseline: middle; font-size: 10.2px;" transform="translate(42.21012878417969,127.5)" y="0" x="0" id="text-entity-CLIENTE-8b97428f-cd26-5bb8-b585-f77366c59df3-attr-5-name" class="er entityLabel">EMAIL</text><rect height="23" width="21.921875" y="116" x="94.35075378417969" class="er attributeBoxOdd"></rect><text style="dominant-baseline: middle; font-size: 10.2px;" transform="translate(99.35075378417969,127.5)" y="0" x="0" id="text-entity-CLIENTE-8b97428f-cd26-5bb8-b585-f77366c59df3-attr-5-key" class="er entityLabel"></text><rect height="23" width="37.21012878417969" y="139" x="0" class="er attributeBoxEven"></rect><text style="dominant-baseline: middle; font-size: 10.2px;" transform="translate(5,150.5)" y="0" x="0" id="text-entity-CLIENTE-8b97428f-cd26-5bb8-b585-f77366c59df3-attr-6-type" class="er entityLabel">string</text><rect height="23" width="57.140625" y="139" x="37.21012878417969" class="er attributeBoxEven"></rect><text style="dominant-baseline: middle; font-size: 10.2px;" transform="translate(42.21012878417969,150.5)" y="0" x="0" id="text-entity-CLIENTE-8b97428f-cd26-5bb8-b585-f77366c59df3-attr-6-name" class="er entityLabel">TELEFONO</text><rect height="23" width="21.921875" y="139" x="94.35075378417969" class="er attributeBoxEven"></rect><text style="dominant-baseline: middle; font-size: 10.2px;" transform="translate(99.35075378417969,150.5)" y="0" x="0" id="text-entity-CLIENTE-8b97428f-cd26-5bb8-b585-f77366c59df3-attr-6-key" class="er entityLabel"></text></g><g transform="translate(20,578.5 )" id="entity-PASAJERO-1cdd0366-790a-5e0c-a119-b919639d0568"><rect height="93" width="117.4520263671875" y="0" x="0" class="er entityBox"></rect><text style="dominant-baseline: middle; text-anchor: middle; font-size: 12px;" transform="translate(58.72601318359375,12)" y="0" x="0" id="text-entity-PASAJERO-1cdd0366-790a-5e0c-a119-b919639d0568" class="er entityLabel">PASAJERO</text><rect height="23" width="22.8426513671875" y="24" x="0" class="er attributeBoxOdd"></rect><text style="dominant-baseline: middle; font-size: 10.2px;" transform="translate(5,35.5)" y="0" x="0" id="text-entity-PASAJERO-1cdd0366-790a-5e0c-a119-b919639d0568-attr-1-type" class="er entityLabel">int</text><rect height="23" width="72.6875" y="24" x="22.8426513671875" class="er attributeBoxOdd"></rect><text style="dominant-baseline: middle; font-size: 10.2px;" transform="translate(27.8426513671875,35.5)" y="0" x="0" id="text-entity-PASAJERO-1cdd0366-790a-5e0c-a119-b919639d0568-attr-1-name" class="er entityLabel">ID</text><rect height="23" width="21.921875" y="24" x="95.5301513671875" class="er attributeBoxOdd"></rect><text style="dominant-baseline: middle; font-size: 10.2px;" transform="translate(100.5301513671875,35.5)" y="0" x="0" id="text-entity-PASAJERO-1cdd0366-790a-5e0c-a119-b919639d0568-attr-1-key" class="er entityLabel">PK</text><rect height="23" width="22.8426513671875" y="47" x="0" class="er attributeBoxEven"></rect><text style="dominant-baseline: middle; font-size: 10.2px;" transform="translate(5,58.5)" y="0" x="0" id="text-entity-PASAJERO-1cdd0366-790a-5e0c-a119-b919639d0568-attr-2-type" class="er entityLabel">int</text><rect height="23" width="72.6875" y="47" x="22.8426513671875" class="er attributeBoxEven"></rect><text style="dominant-baseline: middle; font-size: 10.2px;" transform="translate(27.8426513671875,58.5)" y="0" x="0" id="text-entity-PASAJERO-1cdd0366-790a-5e0c-a119-b919639d0568-attr-2-name" class="er entityLabel">CLIENTE_ID</text><rect height="23" width="21.921875" y="47" x="95.5301513671875" class="er attributeBoxEven"></rect><text style="dominant-baseline: middle; font-size: 10.2px;" transform="translate(100.5301513671875,58.5)" y="0" x="0" id="text-entity-PASAJERO-1cdd0366-790a-5e0c-a119-b919639d0568-attr-2-key" class="er entityLabel">FK</text><rect height="23" width="22.8426513671875" y="70" x="0" class="er attributeBoxOdd"></rect><text style="dominant-baseline: middle; font-size: 10.2px;" transform="translate(5,81.5)" y="0" x="0" id="text-entity-PASAJERO-1cdd0366-790a-5e0c-a119-b919639d0568-attr-3-type" class="er entityLabel">int</text><rect height="23" width="72.6875" y="70" x="22.8426513671875" class="er attributeBoxOdd"></rect><text style="dominant-baseline: middle; font-size: 10.2px;" transform="translate(27.8426513671875,81.5)" y="0" x="0" id="text-entity-PASAJERO-1cdd0366-790a-5e0c-a119-b919639d0568-attr-3-name" class="er entityLabel">CONTRATO_ID</text><rect height="23" width="21.921875" y="70" x="95.5301513671875" class="er attributeBoxOdd"></rect><text style="dominant-baseline: middle; font-size: 10.2px;" transform="translate(100.5301513671875,81.5)" y="0" x="0" id="text-entity-PASAJERO-1cdd0366-790a-5e0c-a119-b919639d0568-attr-3-key" class="er entityLabel">FK</text></g><g transform="translate(217.2801513671875,282 )" id="entity-CONTRATO-f6945aa1-658c-543d-b6ef-cb746241d0c9"><rect height="162" width="172.3038787841797" y="0" x="0" class="er entityBox"></rect><text style="dominant-baseline: middle; text-anchor: middle; font-size: 12px;" transform="translate(86.15193939208984,12)" y="0" x="0" id="text-entity-CONTRATO-f6945aa1-658c-543d-b6ef-cb746241d0c9" class="er entityLabel">CONTRATO</text><rect height="23" width="37.21012878417969" y="24" x="0" class="er attributeBoxOdd"></rect><text style="dominant-baseline: middle; font-size: 10.2px;" transform="translate(5,35.5)" y="0" x="0" id="text-entity-CONTRATO-f6945aa1-658c-543d-b6ef-cb746241d0c9-attr-1-type" class="er entityLabel">int</text><rect height="23" width="113.171875" y="24" x="37.21012878417969" class="er attributeBoxOdd"></rect><text style="dominant-baseline: middle; font-size: 10.2px;" transform="translate(42.21012878417969,35.5)" y="0" x="0" id="text-entity-CONTRATO-f6945aa1-658c-543d-b6ef-cb746241d0c9-attr-1-name" class="er entityLabel">ID</text><rect height="23" width="21.921875" y="24" x="150.3820037841797" class="er attributeBoxOdd"></rect><text style="dominant-baseline: middle; font-size: 10.2px;" transform="translate(155.3820037841797,35.5)" y="0" x="0" id="text-entity-CONTRATO-f6945aa1-658c-543d-b6ef-cb746241d0c9-attr-1-key" class="er entityLabel">PK</text><rect height="23" width="37.21012878417969" y="47" x="0" class="er attributeBoxEven"></rect><text style="dominant-baseline: middle; font-size: 10.2px;" transform="translate(5,58.5)" y="0" x="0" id="text-entity-CONTRATO-f6945aa1-658c-543d-b6ef-cb746241d0c9-attr-2-type" class="er entityLabel">int</text><rect height="23" width="113.171875" y="47" x="37.21012878417969" class="er attributeBoxEven"></rect><text style="dominant-baseline: middle; font-size: 10.2px;" transform="translate(42.21012878417969,58.5)" y="0" x="0" id="text-entity-CONTRATO-f6945aa1-658c-543d-b6ef-cb746241d0c9-attr-2-name" class="er entityLabel">CLIENTE_ID</text><rect height="23" width="21.921875" y="47" x="150.3820037841797" class="er attributeBoxEven"></rect><text style="dominant-baseline: middle; font-size: 10.2px;" transform="translate(155.3820037841797,58.5)" y="0" x="0" id="text-entity-CONTRATO-f6945aa1-658c-543d-b6ef-cb746241d0c9-attr-2-key" class="er entityLabel">FK</text><rect height="23" width="37.21012878417969" y="70" x="0" class="er attributeBoxOdd"></rect><text style="dominant-baseline: middle; font-size: 10.2px;" transform="translate(5,81.5)" y="0" x="0" id="text-entity-CONTRATO-f6945aa1-658c-543d-b6ef-cb746241d0c9-attr-3-type" class="er entityLabel">int</text><rect height="23" width="113.171875" y="70" x="37.21012878417969" class="er attributeBoxOdd"></rect><text style="dominant-baseline: middle; font-size: 10.2px;" transform="translate(42.21012878417969,81.5)" y="0" x="0" id="text-entity-CONTRATO-f6945aa1-658c-543d-b6ef-cb746241d0c9-attr-3-name" class="er entityLabel">TOUR_ID</text><rect height="23" width="21.921875" y="70" x="150.3820037841797" class="er attributeBoxOdd"></rect><text style="dominant-baseline: middle; font-size: 10.2px;" transform="translate(155.3820037841797,81.5)" y="0" x="0" id="text-entity-CONTRATO-f6945aa1-658c-543d-b6ef-cb746241d0c9-attr-3-key" class="er entityLabel">FK</text><rect height="23" width="37.21012878417969" y="93" x="0" class="er attributeBoxEven"></rect><text style="dominant-baseline: middle; font-size: 10.2px;" transform="translate(5,104.5)" y="0" x="0" id="text-entity-CONTRATO-f6945aa1-658c-543d-b6ef-cb746241d0c9-attr-4-type" class="er entityLabel">date</text><rect height="23" width="113.171875" y="93" x="37.21012878417969" class="er attributeBoxEven"></rect><text style="dominant-baseline: middle; font-size: 10.2px;" transform="translate(42.21012878417969,104.5)" y="0" x="0" id="text-entity-CONTRATO-f6945aa1-658c-543d-b6ef-cb746241d0c9-attr-4-name" class="er entityLabel">FECHA_CONTRATACION</text><rect height="23" width="21.921875" y="93" x="150.3820037841797" class="er attributeBoxEven"></rect><text style="dominant-baseline: middle; font-size: 10.2px;" transform="translate(155.3820037841797,104.5)" y="0" x="0" id="text-entity-CONTRATO-f6945aa1-658c-543d-b6ef-cb746241d0c9-attr-4-key" class="er entityLabel"></text><rect height="23" width="37.21012878417969" y="116" x="0" class="er attributeBoxOdd"></rect><text style="dominant-baseline: middle; font-size: 10.2px;" transform="translate(5,127.5)" y="0" x="0" id="text-entity-CONTRATO-f6945aa1-658c-543d-b6ef-cb746241d0c9-attr-5-type" class="er entityLabel">string</text><rect height="23" width="113.171875" y="116" x="37.21012878417969" class="er attributeBoxOdd"></rect><text style="dominant-baseline: middle; font-size: 10.2px;" transform="translate(42.21012878417969,127.5)" y="0" x="0" id="text-entity-CONTRATO-f6945aa1-658c-543d-b6ef-cb746241d0c9-attr-5-name" class="er entityLabel">ESTADO</text><rect height="23" width="21.921875" y="116" x="150.3820037841797" class="er attributeBoxOdd"></rect><text style="dominant-baseline: middle; font-size: 10.2px;" transform="translate(155.3820037841797,127.5)" y="0" x="0" id="text-entity-CONTRATO-f6945aa1-658c-543d-b6ef-cb746241d0c9-attr-5-key" class="er entityLabel"></text><rect height="23" width="37.21012878417969" y="139" x="0" class="er attributeBoxEven"></rect><text style="dominant-baseline: middle; font-size: 10.2px;" transform="translate(5,150.5)" y="0" x="0" id="text-entity-CONTRATO-f6945aa1-658c-543d-b6ef-cb746241d0c9-attr-6-type" class="er entityLabel">int</text><rect height="23" width="113.171875" y="139" x="37.21012878417969" class="er attributeBoxEven"></rect><text style="dominant-baseline: middle; font-size: 10.2px;" transform="translate(42.21012878417969,150.5)" y="0" x="0" id="text-entity-CONTRATO-f6945aa1-658c-543d-b6ef-cb746241d0c9-attr-6-name" class="er entityLabel">CANTIDAD_CUOTAS</text><rect height="23" width="21.921875" y="139" x="150.3820037841797" class="er attributeBoxEven"></rect><text style="dominant-baseline: middle; font-size: 10.2px;" transform="translate(155.3820037841797,150.5)" y="0" x="0" id="text-entity-CONTRATO-f6945aa1-658c-543d-b6ef-cb746241d0c9-attr-6-key" class="er entityLabel"></text></g><g transform="translate(237.4520263671875,544 )" id="entity-TOUR-4b3cad13-2098-537d-91dd-5f08f627139d"><rect height="162" width="131.9601287841797" y="0" x="0" class="er entityBox"></rect><text style="dominant-baseline: middle; text-anchor: middle; font-size: 12px;" transform="translate(65.98006439208984,12)" y="0" x="0" id="text-entity-TOUR-4b3cad13-2098-537d-91dd-5f08f627139d" class="er entityLabel">TOUR</text><rect height="23" width="37.21012878417969" y="24" x="0" class="er attributeBoxOdd"></rect><text style="dominant-baseline: middle; font-size: 10.2px;" transform="translate(5,35.5)" y="0" x="0" id="text-entity-TOUR-4b3cad13-2098-537d-91dd-5f08f627139d-attr-1-type" class="er entityLabel">int</text><rect height="23" width="72.828125" y="24" x="37.21012878417969" class="er attributeBoxOdd"></rect><text style="dominant-baseline: middle; font-size: 10.2px;" transform="translate(42.21012878417969,35.5)" y="0" x="0" id="text-entity-TOUR-4b3cad13-2098-537d-91dd-5f08f627139d-attr-1-name" class="er entityLabel">ID</text><rect height="23" width="21.921875" y="24" x="110.03825378417969" class="er attributeBoxOdd"></rect><text style="dominant-baseline: middle; font-size: 10.2px;" transform="translate(115.03825378417969,35.5)" y="0" x="0" id="text-entity-TOUR-4b3cad13-2098-537d-91dd-5f08f627139d-attr-1-key" class="er entityLabel">PK</text><rect height="23" width="37.21012878417969" y="47" x="0" class="er attributeBoxEven"></rect><text style="dominant-baseline: middle; font-size: 10.2px;" transform="translate(5,58.5)" y="0" x="0" id="text-entity-TOUR-4b3cad13-2098-537d-91dd-5f08f627139d-attr-2-type" class="er entityLabel">string</text><rect height="23" width="72.828125" y="47" x="37.21012878417969" class="er attributeBoxEven"></rect><text style="dominant-baseline: middle; font-size: 10.2px;" transform="translate(42.21012878417969,58.5)" y="0" x="0" id="text-entity-TOUR-4b3cad13-2098-537d-91dd-5f08f627139d-attr-2-name" class="er entityLabel">DESTINO</text><rect height="23" width="21.921875" y="47" x="110.03825378417969" class="er attributeBoxEven"></rect><text style="dominant-baseline: middle; font-size: 10.2px;" transform="translate(115.03825378417969,58.5)" y="0" x="0" id="text-entity-TOUR-4b3cad13-2098-537d-91dd-5f08f627139d-attr-2-key" class="er entityLabel"></text><rect height="23" width="37.21012878417969" y="70" x="0" class="er attributeBoxOdd"></rect><text style="dominant-baseline: middle; font-size: 10.2px;" transform="translate(5,81.5)" y="0" x="0" id="text-entity-TOUR-4b3cad13-2098-537d-91dd-5f08f627139d-attr-3-type" class="er entityLabel">date</text><rect height="23" width="72.828125" y="70" x="37.21012878417969" class="er attributeBoxOdd"></rect><text style="dominant-baseline: middle; font-size: 10.2px;" transform="translate(42.21012878417969,81.5)" y="0" x="0" id="text-entity-TOUR-4b3cad13-2098-537d-91dd-5f08f627139d-attr-3-name" class="er entityLabel">FECHA_INICIO</text><rect height="23" width="21.921875" y="70" x="110.03825378417969" class="er attributeBoxOdd"></rect><text style="dominant-baseline: middle; font-size: 10.2px;" transform="translate(115.03825378417969,81.5)" y="0" x="0" id="text-entity-TOUR-4b3cad13-2098-537d-91dd-5f08f627139d-attr-3-key" class="er entityLabel"></text><rect height="23" width="37.21012878417969" y="93" x="0" class="er attributeBoxEven"></rect><text style="dominant-baseline: middle; font-size: 10.2px;" transform="translate(5,104.5)" y="0" x="0" id="text-entity-TOUR-4b3cad13-2098-537d-91dd-5f08f627139d-attr-4-type" class="er entityLabel">date</text><rect height="23" width="72.828125" y="93" x="37.21012878417969" class="er attributeBoxEven"></rect><text style="dominant-baseline: middle; font-size: 10.2px;" transform="translate(42.21012878417969,104.5)" y="0" x="0" id="text-entity-TOUR-4b3cad13-2098-537d-91dd-5f08f627139d-attr-4-name" class="er entityLabel">FECHA_FIN</text><rect height="23" width="21.921875" y="93" x="110.03825378417969" class="er attributeBoxEven"></rect><text style="dominant-baseline: middle; font-size: 10.2px;" transform="translate(115.03825378417969,104.5)" y="0" x="0" id="text-entity-TOUR-4b3cad13-2098-537d-91dd-5f08f627139d-attr-4-key" class="er entityLabel"></text><rect height="23" width="37.21012878417969" y="116" x="0" class="er attributeBoxOdd"></rect><text style="dominant-baseline: middle; font-size: 10.2px;" transform="translate(5,127.5)" y="0" x="0" id="text-entity-TOUR-4b3cad13-2098-537d-91dd-5f08f627139d-attr-5-type" class="er entityLabel">float</text><rect height="23" width="72.828125" y="116" x="37.21012878417969" class="er attributeBoxOdd"></rect><text style="dominant-baseline: middle; font-size: 10.2px;" transform="translate(42.21012878417969,127.5)" y="0" x="0" id="text-entity-TOUR-4b3cad13-2098-537d-91dd-5f08f627139d-attr-5-name" class="er entityLabel">IMPORTE</text><rect height="23" width="21.921875" y="116" x="110.03825378417969" class="er attributeBoxOdd"></rect><text style="dominant-baseline: middle; font-size: 10.2px;" transform="translate(115.03825378417969,127.5)" y="0" x="0" id="text-entity-TOUR-4b3cad13-2098-537d-91dd-5f08f627139d-attr-5-key" class="er entityLabel"></text><rect height="23" width="37.21012878417969" y="139" x="0" class="er attributeBoxEven"></rect><text style="dominant-baseline: middle; font-size: 10.2px;" transform="translate(5,150.5)" y="0" x="0" id="text-entity-TOUR-4b3cad13-2098-537d-91dd-5f08f627139d-attr-6-type" class="er entityLabel">int</text><rect height="23" width="72.828125" y="139" x="37.21012878417969" class="er attributeBoxEven"></rect><text style="dominant-baseline: middle; font-size: 10.2px;" transform="translate(42.21012878417969,150.5)" y="0" x="0" id="text-entity-TOUR-4b3cad13-2098-537d-91dd-5f08f627139d-attr-6-name" class="er entityLabel">CUPO</text><rect height="23" width="21.921875" y="139" x="110.03825378417969" class="er attributeBoxEven"></rect><text style="dominant-baseline: middle; font-size: 10.2px;" transform="translate(115.03825378417969,150.5)" y="0" x="0" id="text-entity-TOUR-4b3cad13-2098-537d-91dd-5f08f627139d-attr-6-key" class="er entityLabel"></text></g><g transform="translate(469.4121551513672,555.5 )" id="entity-CUOTAS-3e9c65be-32c8-557d-9c83-4982d72c4bbe"><rect height="139" width="158.7523956298828" y="0" x="0" class="er entityBox"></rect><text style="dominant-baseline: middle; text-anchor: middle; font-size: 12px;" transform="translate(79.3761978149414,12)" y="0" x="0" id="text-entity-CUOTAS-3e9c65be-32c8-557d-9c83-4982d72c4bbe" class="er entityLabel">CUOTAS</text><rect height="23" width="31.158645629882812" y="24" x="0" class="er attributeBoxOdd"></rect><text style="dominant-baseline: middle; font-size: 10.2px;" transform="translate(5,35.5)" y="0" x="0" id="text-entity-CUOTAS-3e9c65be-32c8-557d-9c83-4982d72c4bbe-attr-1-type" class="er entityLabel">int</text><rect height="23" width="105.671875" y="24" x="31.158645629882812" class="er attributeBoxOdd"></rect><text style="dominant-baseline: middle; font-size: 10.2px;" transform="translate(36.15864562988281,35.5)" y="0" x="0" id="text-entity-CUOTAS-3e9c65be-32c8-557d-9c83-4982d72c4bbe-attr-1-name" class="er entityLabel">ID</text><rect height="23" width="21.921875" y="24" x="136.8305206298828" class="er attributeBoxOdd"></rect><text style="dominant-baseline: middle; font-size: 10.2px;" transform="translate(141.8305206298828,35.5)" y="0" x="0" id="text-entity-CUOTAS-3e9c65be-32c8-557d-9c83-4982d72c4bbe-attr-1-key" class="er entityLabel">PK</text><rect height="23" width="31.158645629882812" y="47" x="0" class="er attributeBoxEven"></rect><text style="dominant-baseline: middle; font-size: 10.2px;" transform="translate(5,58.5)" y="0" x="0" id="text-entity-CUOTAS-3e9c65be-32c8-557d-9c83-4982d72c4bbe-attr-2-type" class="er entityLabel">int</text><rect height="23" width="105.671875" y="47" x="31.158645629882812" class="er attributeBoxEven"></rect><text style="dominant-baseline: middle; font-size: 10.2px;" transform="translate(36.15864562988281,58.5)" y="0" x="0" id="text-entity-CUOTAS-3e9c65be-32c8-557d-9c83-4982d72c4bbe-attr-2-name" class="er entityLabel">CONTRATO_ID</text><rect height="23" width="21.921875" y="47" x="136.8305206298828" class="er attributeBoxEven"></rect><text style="dominant-baseline: middle; font-size: 10.2px;" transform="translate(141.8305206298828,58.5)" y="0" x="0" id="text-entity-CUOTAS-3e9c65be-32c8-557d-9c83-4982d72c4bbe-attr-2-key" class="er entityLabel">FK</text><rect height="23" width="31.158645629882812" y="70" x="0" class="er attributeBoxOdd"></rect><text style="dominant-baseline: middle; font-size: 10.2px;" transform="translate(5,81.5)" y="0" x="0" id="text-entity-CUOTAS-3e9c65be-32c8-557d-9c83-4982d72c4bbe-attr-3-type" class="er entityLabel">int</text><rect height="23" width="105.671875" y="70" x="31.158645629882812" class="er attributeBoxOdd"></rect><text style="dominant-baseline: middle; font-size: 10.2px;" transform="translate(36.15864562988281,81.5)" y="0" x="0" id="text-entity-CUOTAS-3e9c65be-32c8-557d-9c83-4982d72c4bbe-attr-3-name" class="er entityLabel">NUMERO_CUOTA</text><rect height="23" width="21.921875" y="70" x="136.8305206298828" class="er attributeBoxOdd"></rect><text style="dominant-baseline: middle; font-size: 10.2px;" transform="translate(141.8305206298828,81.5)" y="0" x="0" id="text-entity-CUOTAS-3e9c65be-32c8-557d-9c83-4982d72c4bbe-attr-3-key" class="er entityLabel"></text><rect height="23" width="31.158645629882812" y="93" x="0" class="er attributeBoxEven"></rect><text style="dominant-baseline: middle; font-size: 10.2px;" transform="translate(5,104.5)" y="0" x="0" id="text-entity-CUOTAS-3e9c65be-32c8-557d-9c83-4982d72c4bbe-attr-4-type" class="er entityLabel">date</text><rect height="23" width="105.671875" y="93" x="31.158645629882812" class="er attributeBoxEven"></rect><text style="dominant-baseline: middle; font-size: 10.2px;" transform="translate(36.15864562988281,104.5)" y="0" x="0" id="text-entity-CUOTAS-3e9c65be-32c8-557d-9c83-4982d72c4bbe-attr-4-name" class="er entityLabel">FECHA_VENCIMIENTO</text><rect height="23" width="21.921875" y="93" x="136.8305206298828" class="er attributeBoxEven"></rect><text style="dominant-baseline: middle; font-size: 10.2px;" transform="translate(141.8305206298828,104.5)" y="0" x="0" id="text-entity-CUOTAS-3e9c65be-32c8-557d-9c83-4982d72c4bbe-attr-4-key" class="er entityLabel"></text><rect height="23" width="31.158645629882812" y="116" x="0" class="er attributeBoxOdd"></rect><text style="dominant-baseline: middle; font-size: 10.2px;" transform="translate(5,127.5)" y="0" x="0" id="text-entity-CUOTAS-3e9c65be-32c8-557d-9c83-4982d72c4bbe-attr-5-type" class="er entityLabel">date</text><rect height="23" width="105.671875" y="116" x="31.158645629882812" class="er attributeBoxOdd"></rect><text style="dominant-baseline: middle; font-size: 10.2px;" transform="translate(36.15864562988281,127.5)" y="0" x="0" id="text-entity-CUOTAS-3e9c65be-32c8-557d-9c83-4982d72c4bbe-attr-5-name" class="er entityLabel">FECHA_PAGO</text><rect height="23" width="21.921875" y="116" x="136.8305206298828" class="er attributeBoxOdd"></rect><text style="dominant-baseline: middle; font-size: 10.2px;" transform="translate(141.8305206298828,127.5)" y="0" x="0" id="text-entity-CUOTAS-3e9c65be-32c8-557d-9c83-4982d72c4bbe-attr-5-key" class="er entityLabel"></text></g><rect height="14" width="28.359375" y="212.88229370117188" x="274.8144836425781" class="er relationshipLabelBox"></rect><text style="text-anchor: middle; dominant-baseline: middle; font-size: 12px;" y="219.88229370117188" x="288.9941711425781" id="rel1" class="er relationshipLabel">firma</text><rect height="14" width="29.34375" y="339.3709411621094" x="14.089944839477539" class="er relationshipLabelBox"></rect><text style="text-anchor: middle; dominant-baseline: middle; font-size: 12px;" y="346.3709411621094" x="28.76181983947754" id="rel2" class="er relationshipLabel">es un</text><rect height="14" width="53.90625" y="489.702392578125" x="121.03341674804688" class="er relationshipLabelBox"></rect><text style="text-anchor: middle; dominant-baseline: middle; font-size: 12px;" y="496.702392578125" x="147.98654174804688" id="rel3" class="er relationshipLabel">conetiene</text><rect height="14" width="78.15625" y="487" x="264.3538818359375" class="er relationshipLabelBox"></rect><text style="text-anchor: middle; dominant-baseline: middle; font-size: 12px;" y="494" x="303.4320068359375" id="rel4" class="er relationshipLabel">corresponde a</text><rect height="14" width="27.84375" y="458.39862060546875" x="475.4825439453125" class="er relationshipLabelBox"></rect><text style="text-anchor: middle; dominant-baseline: middle; font-size: 12px;" y="465.39862060546875" x="489.4044189453125" id="rel5" class="er relationshipLabel">tiene</text></svg>