<svg aria-roledescription="er" role="graphics-document document" viewBox="0 0 219.2257537841797 772" height="772" xmlns="http://www.w3.org/2000/svg" width="219.2257537841797" id="container"><style>#container{font-family:"trebuchet ms",verdana,arial,sans-serif;font-size:16px;fill:#333;}#container .error-icon{fill:#552222;}#container .error-text{fill:#552222;stroke:#552222;}#container .edge-thickness-normal{stroke-width:2px;}#container .edge-thickness-thick{stroke-width:3.5px;}#container .edge-pattern-solid{stroke-dasharray:0;}#container .edge-pattern-dashed{stroke-dasharray:3;}#container .edge-pattern-dotted{stroke-dasharray:2;}#container .marker{fill:#333333;stroke:#333333;}#container .marker.cross{stroke:#333333;}#container svg{font-family:"trebuchet ms",verdana,arial,sans-serif;font-size:16px;}#container .entityBox{fill:#ECECFF;stroke:#9370DB;}#container .attributeBoxOdd{fill:#ffffff;stroke:#9370DB;}#container .attributeBoxEven{fill:#f2f2f2;stroke:#9370DB;}#container .relationshipLabelBox{fill:hsl(80, 100%, 96.2745098039%);opacity:0.7;background-color:hsl(80, 100%, 96.2745098039%);}#container .relationshipLabelBox rect{opacity:0.5;}#container .relationshipLine{stroke:#333333;}#container .entityTitleText{text-anchor:middle;font-size:18px;fill:#333;}#container #MD_PARENT_START{fill:#f5f5f5!important;stroke:#333333!important;stroke-width:1;}#container #MD_PARENT_END{fill:#f5f5f5!important;stroke:#333333!important;stroke-width:1;}#container :root{--mermaid-font-family:"trebuchet ms",verdana,arial,sans-serif;}</style><g></g><defs><marker orient="auto" markerHeight="240" markerWidth="190" refY="7" refX="0" id="MD_PARENT_START"><path d="M 18,7 L9,13 L1,7 L9,1 Z"></path></marker></defs><defs><marker orient="auto" markerHeight="28" markerWidth="20" refY="7" refX="19" id="MD_PARENT_END"><path d="M 18,7 L9,13 L1,7 L9,1 Z"></path></marker></defs><defs><marker orient="auto" markerHeight="18" markerWidth="18" refY="9" refX="0" id="ONLY_ONE_START"><path d="M9,0 L9,18 M15,0 L15,18" fill="none" stroke="gray"></path></marker></defs><defs><marker orient="auto" markerHeight="18" markerWidth="18" refY="9" refX="18" id="ONLY_ONE_END"><path d="M3,0 L3,18 M9,0 L9,18" fill="none" stroke="gray"></path></marker></defs><defs><marker orient="auto" markerHeight="18" markerWidth="30" refY="9" refX="0" id="ZERO_OR_ONE_START"><circle r="6" cy="9" cx="21" fill="white" stroke="gray"></circle><path d="M9,0 L9,18" fill="none" stroke="gray"></path></marker></defs><defs><marker orient="auto" markerHeight="18" markerWidth="30" refY="9" refX="30" id="ZERO_OR_ONE_END"><circle r="6" cy="9" cx="9" fill="white" stroke="gray"></circle><path d="M21,0 L21,18" fill="none" stroke="gray"></path></marker></defs><defs><marker orient="auto" markerHeight="36" markerWidth="45" refY="18" refX="18" id="ONE_OR_MORE_START"><path d="M0,18 Q 18,0 36,18 Q 18,36 0,18 M42,9 L42,27" fill="none" stroke="gray"></path></marker></defs><defs><marker orient="auto" markerHeight="36" markerWidth="45" refY="18" refX="27" id="ONE_OR_MORE_END"><path d="M3,9 L3,27 M9,18 Q27,0 45,18 Q27,36 9,18" fill="none" stroke="gray"></path></marker></defs><defs><marker orient="auto" markerHeight="36" markerWidth="57" refY="18" refX="18" id="ZERO_OR_MORE_START"><circle r="6" cy="18" cx="48" fill="white" stroke="gray"></circle><path d="M0,18 Q18,0 36,18 Q18,36 0,18" fill="none" stroke="gray"></path></marker></defs><defs><marker orient="auto" markerHeight="36" markerWidth="57" refY="18" refX="39" id="ZERO_OR_MORE_END"><circle r="6" cy="18" cx="9" fill="white" stroke="gray"></circle><path d="M21,18 Q39,0 57,18 Q39,36 21,18" fill="none" stroke="gray"></path></marker></defs><path style="stroke: gray; fill: none;" marker-start="url(#ONLY_ONE_START)" marker-end="url(#ZERO_OR_MORE_END)" d="M109.613,182L109.613,190.333C109.613,198.667,109.613,215.333,109.613,232C109.613,248.667,109.613,265.333,109.613,273.667L109.613,282" class="er relationshipLine"></path><path style="stroke: gray; fill: none;" marker-start="url(#ZERO_OR_MORE_START)" marker-end="url(#ONLY_ONE_END)" d="M109.613,490L109.613,498.333C109.613,506.667,109.613,523.333,109.613,540C109.613,556.667,109.613,573.333,109.613,581.667L109.613,590" class="er relationshipLine"></path><g transform="translate(51.4765625,20 )" id="entity-CLIENTE-8b97428f-cd26-5bb8-b585-f77366c59df3"><rect height="162" width="116.27262878417969" y="0" x="0" class="er entityBox"></rect><text style="dominant-baseline: middle; text-anchor: middle; font-size: 12px;" transform="translate(58.136314392089844,12)" y="0" x="0" id="text-entity-CLIENTE-8b97428f-cd26-5bb8-b585-f77366c59df3" class="er entityLabel">CLIENTE</text><rect height="23" width="37.21012878417969" y="24" x="0" class="er attributeBoxOdd"></rect><text style="dominant-baseline: middle; font-size: 10.2px;" transform="translate(5,35.5)" y="0" x="0" id="text-entity-CLIENTE-8b97428f-cd26-5bb8-b585-f77366c59df3-attr-1-type" class="er entityLabel">int</text><rect height="23" width="57.140625" y="24" x="37.21012878417969" class="er attributeBoxOdd"></rect><text style="dominant-baseline: middle; font-size: 10.2px;" transform="translate(42.21012878417969,35.5)" y="0" x="0" id="text-entity-CLIENTE-8b97428f-cd26-5bb8-b585-f77366c59df3-attr-1-name" class="er entityLabel">ID</text><rect height="23" width="21.921875" y="24" x="94.35075378417969" class="er attributeBoxOdd"></rect><text style="dominant-baseline: middle; font-size: 10.2px;" transform="translate(99.35075378417969,35.5)" y="0" x="0" id="text-entity-CLIENTE-8b97428f-cd26-5bb8-b585-f77366c59df3-attr-1-key" class="er entityLabel">PK</text><rect height="23" width="37.21012878417969" y="47" x="0" class="er attributeBoxEven"></rect><text style="dominant-baseline: middle; font-size: 10.2px;" transform="translate(5,58.5)" y="0" x="0" id="text-entity-CLIENTE-8b97428f-cd26-5bb8-b585-f77366c59df3-attr-2-type" class="er entityLabel">string</text><rect height="23" width="57.140625" y="47" x="37.21012878417969" class="er attributeBoxEven"></rect><text style="dominant-baseline: middle; font-size: 10.2px;" transform="translate(42.21012878417969,58.5)" y="0" x="0" id="text-entity-CLIENTE-8b97428f-cd26-5bb8-b585-f77366c59df3-attr-2-name" class="er entityLabel">NOMBRE</text><rect height="23" width="21.921875" y="47" x="94.35075378417969" class="er attributeBoxEven"></rect><text style="dominant-baseline: middle; font-size: 10.2px;" transform="translate(99.35075378417969,58.5)" y="0" x="0" id="text-entity-CLIENTE-8b97428f-cd26-5bb8-b585-f77366c59df3-attr-2-key" class="er entityLabel"></text><rect height="23" width="37.21012878417969" y="70" x="0" class="er attributeBoxOdd"></rect><text style="dominant-baseline: middle; font-size: 10.2px;" transform="translate(5,81.5)" y="0" x="0" id="text-entity-CLIENTE-8b97428f-cd26-5bb8-b585-f77366c59df3-attr-3-type" class="er entityLabel">string</text><rect height="23" width="57.140625" y="70" x="37.21012878417969" class="er attributeBoxOdd"></rect><text style="dominant-baseline: middle; font-size: 10.2px;" transform="translate(42.21012878417969,81.5)" y="0" x="0" id="text-entity-CLIENTE-8b97428f-cd26-5bb8-b585-f77366c59df3-attr-3-name" class="er entityLabel">APELLIDO</text><rect height="23" width="21.921875" y="70" x="94.35075378417969" class="er attributeBoxOdd"></rect><text style="dominant-baseline: middle; font-size: 10.2px;" transform="translate(99.35075378417969,81.5)" y="0" x="0" id="text-entity-CLIENTE-8b97428f-cd26-5bb8-b585-f77366c59df3-attr-3-key" class="er entityLabel"></text><rect height="23" width="37.21012878417969" y="93" x="0" class="er attributeBoxEven"></rect><text style="dominant-baseline: middle; font-size: 10.2px;" transform="translate(5,104.5)" y="0" x="0" id="text-entity-CLIENTE-8b97428f-cd26-5bb8-b585-f77366c59df3-attr-4-type" class="er entityLabel">string</text><rect height="23" width="57.140625" y="93" x="37.21012878417969" class="er attributeBoxEven"></rect><text style="dominant-baseline: middle; font-size: 10.2px;" transform="translate(42.21012878417969,104.5)" y="0" x="0" id="text-entity-CLIENTE-8b97428f-cd26-5bb8-b585-f77366c59df3-attr-4-name" class="er entityLabel">DNI</text><rect height="23" width="21.921875" y="93" x="94.35075378417969" class="er attributeBoxEven"></rect><text style="dominant-baseline: middle; font-size: 10.2px;" transform="translate(99.35075378417969,104.5)" y="0" x="0" id="text-entity-CLIENTE-8b97428f-cd26-5bb8-b585-f77366c59df3-attr-4-key" class="er entityLabel"></text><rect height="23" width="37.21012878417969" y="116" x="0" class="er attributeBoxOdd"></rect><text style="dominant-baseline: middle; font-size: 10.2px;" transform="translate(5,127.5)" y="0" x="0" id="text-entity-CLIENTE-8b97428f-cd26-5bb8-b585-f77366c59df3-attr-5-type" class="er entityLabel">string</text><rect height="23" width="57.140625" y="116" x="37.21012878417969" class="er attributeBoxOdd"></rect><text style="dominant-baseline: middle; font-size: 10.2px;" transform="translate(42.21012878417969,127.5)" y="0" x="0" id="text-entity-CLIENTE-8b97428f-cd26-5bb8-b585-f77366c59df3-attr-5-name" class="er entityLabel">EMAIL</text><rect height="23" width="21.921875" y="116" x="94.35075378417969" class="er attributeBoxOdd"></rect><text style="dominant-baseline: middle; font-size: 10.2px;" transform="translate(99.35075378417969,127.5)" y="0" x="0" id="text-entity-CLIENTE-8b97428f-cd26-5bb8-b585-f77366c59df3-attr-5-key" class="er entityLabel"></text><rect height="23" width="37.21012878417969" y="139" x="0" class="er attributeBoxEven"></rect><text style="dominant-baseline: middle; font-size: 10.2px;" transform="translate(5,150.5)" y="0" x="0" id="text-entity-CLIENTE-8b97428f-cd26-5bb8-b585-f77366c59df3-attr-6-type" class="er entityLabel">string</text><rect height="23" width="57.140625" y="139" x="37.21012878417969" class="er attributeBoxEven"></rect><text style="dominant-baseline: middle; font-size: 10.2px;" transform="translate(42.21012878417969,150.5)" y="0" x="0" id="text-entity-CLIENTE-8b97428f-cd26-5bb8-b585-f77366c59df3-attr-6-name" class="er entityLabel">TELEFONO</text><rect height="23" width="21.921875" y="139" x="94.35075378417969" class="er attributeBoxEven"></rect><text style="dominant-baseline: middle; font-size: 10.2px;" transform="translate(99.35075378417969,150.5)" y="0" x="0" id="text-entity-CLIENTE-8b97428f-cd26-5bb8-b585-f77366c59df3-attr-6-key" class="er entityLabel"></text></g><g transform="translate(20,282 )" id="entity-CONTRATO-f6945aa1-658c-543d-b6ef-cb746241d0c9"><rect height="208" width="179.2257537841797" y="0" x="0" class="er entityBox"></rect><text style="dominant-baseline: middle; text-anchor: middle; font-size: 12px;" transform="translate(89.61287689208984,12)" y="0" x="0" id="text-entity-CONTRATO-f6945aa1-658c-543d-b6ef-cb746241d0c9" class="er entityLabel">CONTRATO</text><rect height="23" width="37.21012878417969" y="24" x="0" class="er attributeBoxOdd"></rect><text style="dominant-baseline: middle; font-size: 10.2px;" transform="translate(5,35.5)" y="0" x="0" id="text-entity-CONTRATO-f6945aa1-658c-543d-b6ef-cb746241d0c9-attr-1-type" class="er entityLabel">int</text><rect height="23" width="120.09375" y="24" x="37.21012878417969" class="er attributeBoxOdd"></rect><text style="dominant-baseline: middle; font-size: 10.2px;" transform="translate(42.21012878417969,35.5)" y="0" x="0" id="text-entity-CONTRATO-f6945aa1-658c-543d-b6ef-cb746241d0c9-attr-1-name" class="er entityLabel">ID</text><rect height="23" width="21.921875" y="24" x="157.3038787841797" class="er attributeBoxOdd"></rect><text style="dominant-baseline: middle; font-size: 10.2px;" transform="translate(162.3038787841797,35.5)" y="0" x="0" id="text-entity-CONTRATO-f6945aa1-658c-543d-b6ef-cb746241d0c9-attr-1-key" class="er entityLabel">PK</text><rect height="23" width="37.21012878417969" y="47" x="0" class="er attributeBoxEven"></rect><text style="dominant-baseline: middle; font-size: 10.2px;" transform="translate(5,58.5)" y="0" x="0" id="text-entity-CONTRATO-f6945aa1-658c-543d-b6ef-cb746241d0c9-attr-2-type" class="er entityLabel">int</text><rect height="23" width="120.09375" y="47" x="37.21012878417969" class="er attributeBoxEven"></rect><text style="dominant-baseline: middle; font-size: 10.2px;" transform="translate(42.21012878417969,58.5)" y="0" x="0" id="text-entity-CONTRATO-f6945aa1-658c-543d-b6ef-cb746241d0c9-attr-2-name" class="er entityLabel">CLIENTE_ID</text><rect height="23" width="21.921875" y="47" x="157.3038787841797" class="er attributeBoxEven"></rect><text style="dominant-baseline: middle; font-size: 10.2px;" transform="translate(162.3038787841797,58.5)" y="0" x="0" id="text-entity-CONTRATO-f6945aa1-658c-543d-b6ef-cb746241d0c9-attr-2-key" class="er entityLabel">FK</text><rect height="23" width="37.21012878417969" y="70" x="0" class="er attributeBoxOdd"></rect><text style="dominant-baseline: middle; font-size: 10.2px;" transform="translate(5,81.5)" y="0" x="0" id="text-entity-CONTRATO-f6945aa1-658c-543d-b6ef-cb746241d0c9-attr-3-type" class="er entityLabel">int</text><rect height="23" width="120.09375" y="70" x="37.21012878417969" class="er attributeBoxOdd"></rect><text style="dominant-baseline: middle; font-size: 10.2px;" transform="translate(42.21012878417969,81.5)" y="0" x="0" id="text-entity-CONTRATO-f6945aa1-658c-543d-b6ef-cb746241d0c9-attr-3-name" class="er entityLabel">TOUR_ID</text><rect height="23" width="21.921875" y="70" x="157.3038787841797" class="er attributeBoxOdd"></rect><text style="dominant-baseline: middle; font-size: 10.2px;" transform="translate(162.3038787841797,81.5)" y="0" x="0" id="text-entity-CONTRATO-f6945aa1-658c-543d-b6ef-cb746241d0c9-attr-3-key" class="er entityLabel">FK</text><rect height="23" width="37.21012878417969" y="93" x="0" class="er attributeBoxEven"></rect><text style="dominant-baseline: middle; font-size: 10.2px;" transform="translate(5,104.5)" y="0" x="0" id="text-entity-CONTRATO-f6945aa1-658c-543d-b6ef-cb746241d0c9-attr-4-type" class="er entityLabel">date</text><rect height="23" width="120.09375" y="93" x="37.21012878417969" class="er attributeBoxEven"></rect><text style="dominant-baseline: middle; font-size: 10.2px;" transform="translate(42.21012878417969,104.5)" y="0" x="0" id="text-entity-CONTRATO-f6945aa1-658c-543d-b6ef-cb746241d0c9-attr-4-name" class="er entityLabel">FECHA_CONTRATACION</text><rect height="23" width="21.921875" y="93" x="157.3038787841797" class="er attributeBoxEven"></rect><text style="dominant-baseline: middle; font-size: 10.2px;" transform="translate(162.3038787841797,104.5)" y="0" x="0" id="text-entity-CONTRATO-f6945aa1-658c-543d-b6ef-cb746241d0c9-attr-4-key" class="er entityLabel"></text><rect height="23" width="37.21012878417969" y="116" x="0" class="er attributeBoxOdd"></rect><text style="dominant-baseline: middle; font-size: 10.2px;" transform="translate(5,127.5)" y="0" x="0" id="text-entity-CONTRATO-f6945aa1-658c-543d-b6ef-cb746241d0c9-attr-5-type" class="er entityLabel">int</text><rect height="23" width="120.09375" y="116" x="37.21012878417969" class="er attributeBoxOdd"></rect><text style="dominant-baseline: middle; font-size: 10.2px;" transform="translate(42.21012878417969,127.5)" y="0" x="0" id="text-entity-CONTRATO-f6945aa1-658c-543d-b6ef-cb746241d0c9-attr-5-name" class="er entityLabel">CUPO_UTILIZADO</text><rect height="23" width="21.921875" y="116" x="157.3038787841797" class="er attributeBoxOdd"></rect><text style="dominant-baseline: middle; font-size: 10.2px;" transform="translate(162.3038787841797,127.5)" y="0" x="0" id="text-entity-CONTRATO-f6945aa1-658c-543d-b6ef-cb746241d0c9-attr-5-key" class="er entityLabel"></text><rect height="23" width="37.21012878417969" y="139" x="0" class="er attributeBoxEven"></rect><text style="dominant-baseline: middle; font-size: 10.2px;" transform="translate(5,150.5)" y="0" x="0" id="text-entity-CONTRATO-f6945aa1-658c-543d-b6ef-cb746241d0c9-attr-6-type" class="er entityLabel">string</text><rect height="23" width="120.09375" y="139" x="37.21012878417969" class="er attributeBoxEven"></rect><text style="dominant-baseline: middle; font-size: 10.2px;" transform="translate(42.21012878417969,150.5)" y="0" x="0" id="text-entity-CONTRATO-f6945aa1-658c-543d-b6ef-cb746241d0c9-attr-6-name" class="er entityLabel">ESTADO</text><rect height="23" width="21.921875" y="139" x="157.3038787841797" class="er attributeBoxEven"></rect><text style="dominant-baseline: middle; font-size: 10.2px;" transform="translate(162.3038787841797,150.5)" y="0" x="0" id="text-entity-CONTRATO-f6945aa1-658c-543d-b6ef-cb746241d0c9-attr-6-key" class="er entityLabel"></text><rect height="23" width="37.21012878417969" y="162" x="0" class="er attributeBoxOdd"></rect><text style="dominant-baseline: middle; font-size: 10.2px;" transform="translate(5,173.5)" y="0" x="0" id="text-entity-CONTRATO-f6945aa1-658c-543d-b6ef-cb746241d0c9-attr-7-type" class="er entityLabel">float</text><rect height="23" width="120.09375" y="162" x="37.21012878417969" class="er attributeBoxOdd"></rect><text style="dominant-baseline: middle; font-size: 10.2px;" transform="translate(42.21012878417969,173.5)" y="0" x="0" id="text-entity-CONTRATO-f6945aa1-658c-543d-b6ef-cb746241d0c9-attr-7-name" class="er entityLabel">IMPORTE_ABONADO</text><rect height="23" width="21.921875" y="162" x="157.3038787841797" class="er attributeBoxOdd"></rect><text style="dominant-baseline: middle; font-size: 10.2px;" transform="translate(162.3038787841797,173.5)" y="0" x="0" id="text-entity-CONTRATO-f6945aa1-658c-543d-b6ef-cb746241d0c9-attr-7-key" class="er entityLabel"></text><rect height="23" width="37.21012878417969" y="185" x="0" class="er attributeBoxEven"></rect><text style="dominant-baseline: middle; font-size: 10.2px;" transform="translate(5,196.5)" y="0" x="0" id="text-entity-CONTRATO-f6945aa1-658c-543d-b6ef-cb746241d0c9-attr-8-type" class="er entityLabel">float</text><rect height="23" width="120.09375" y="185" x="37.21012878417969" class="er attributeBoxEven"></rect><text style="dominant-baseline: middle; font-size: 10.2px;" transform="translate(42.21012878417969,196.5)" y="0" x="0" id="text-entity-CONTRATO-f6945aa1-658c-543d-b6ef-cb746241d0c9-attr-8-name" class="er entityLabel">IMPORTE_REINTEGRADO</text><rect height="23" width="21.921875" y="185" x="157.3038787841797" class="er attributeBoxEven"></rect><text style="dominant-baseline: middle; font-size: 10.2px;" transform="translate(162.3038787841797,196.5)" y="0" x="0" id="text-entity-CONTRATO-f6945aa1-658c-543d-b6ef-cb746241d0c9-attr-8-key" class="er entityLabel"></text></g><g transform="translate(43.6328125,590 )" id="entity-TOUR-4b3cad13-2098-537d-91dd-5f08f627139d"><rect height="162" width="131.9601287841797" y="0" x="0" class="er entityBox"></rect><text style="dominant-baseline: middle; text-anchor: middle; font-size: 12px;" transform="translate(65.98006439208984,12)" y="0" x="0" id="text-entity-TOUR-4b3cad13-2098-537d-91dd-5f08f627139d" class="er entityLabel">TOUR</text><rect height="23" width="37.21012878417969" y="24" x="0" class="er attributeBoxOdd"></rect><text style="dominant-baseline: middle; font-size: 10.2px;" transform="translate(5,35.5)" y="0" x="0" id="text-entity-TOUR-4b3cad13-2098-537d-91dd-5f08f627139d-attr-1-type" class="er entityLabel">int</text><rect height="23" width="72.828125" y="24" x="37.21012878417969" class="er attributeBoxOdd"></rect><text style="dominant-baseline: middle; font-size: 10.2px;" transform="translate(42.21012878417969,35.5)" y="0" x="0" id="text-entity-TOUR-4b3cad13-2098-537d-91dd-5f08f627139d-attr-1-name" class="er entityLabel">ID</text><rect height="23" width="21.921875" y="24" x="110.03825378417969" class="er attributeBoxOdd"></rect><text style="dominant-baseline: middle; font-size: 10.2px;" transform="translate(115.03825378417969,35.5)" y="0" x="0" id="text-entity-TOUR-4b3cad13-2098-537d-91dd-5f08f627139d-attr-1-key" class="er entityLabel">PK</text><rect height="23" width="37.21012878417969" y="47" x="0" class="er attributeBoxEven"></rect><text style="dominant-baseline: middle; font-size: 10.2px;" transform="translate(5,58.5)" y="0" x="0" id="text-entity-TOUR-4b3cad13-2098-537d-91dd-5f08f627139d-attr-2-type" class="er entityLabel">string</text><rect height="23" width="72.828125" y="47" x="37.21012878417969" class="er attributeBoxEven"></rect><text style="dominant-baseline: middle; font-size: 10.2px;" transform="translate(42.21012878417969,58.5)" y="0" x="0" id="text-entity-TOUR-4b3cad13-2098-537d-91dd-5f08f627139d-attr-2-name" class="er entityLabel">DESTINO</text><rect height="23" width="21.921875" y="47" x="110.03825378417969" class="er attributeBoxEven"></rect><text style="dominant-baseline: middle; font-size: 10.2px;" transform="translate(115.03825378417969,58.5)" y="0" x="0" id="text-entity-TOUR-4b3cad13-2098-537d-91dd-5f08f627139d-attr-2-key" class="er entityLabel"></text><rect height="23" width="37.21012878417969" y="70" x="0" class="er attributeBoxOdd"></rect><text style="dominant-baseline: middle; font-size: 10.2px;" transform="translate(5,81.5)" y="0" x="0" id="text-entity-TOUR-4b3cad13-2098-537d-91dd-5f08f627139d-attr-3-type" class="er entityLabel">date</text><rect height="23" width="72.828125" y="70" x="37.21012878417969" class="er attributeBoxOdd"></rect><text style="dominant-baseline: middle; font-size: 10.2px;" transform="translate(42.21012878417969,81.5)" y="0" x="0" id="text-entity-TOUR-4b3cad13-2098-537d-91dd-5f08f627139d-attr-3-name" class="er entityLabel">FECHA_INICIO</text><rect height="23" width="21.921875" y="70" x="110.03825378417969" class="er attributeBoxOdd"></rect><text style="dominant-baseline: middle; font-size: 10.2px;" transform="translate(115.03825378417969,81.5)" y="0" x="0" id="text-entity-TOUR-4b3cad13-2098-537d-91dd-5f08f627139d-attr-3-key" class="er entityLabel"></text><rect height="23" width="37.21012878417969" y="93" x="0" class="er attributeBoxEven"></rect><text style="dominant-baseline: middle; font-size: 10.2px;" transform="translate(5,104.5)" y="0" x="0" id="text-entity-TOUR-4b3cad13-2098-537d-91dd-5f08f627139d-attr-4-type" class="er entityLabel">date</text><rect height="23" width="72.828125" y="93" x="37.21012878417969" class="er attributeBoxEven"></rect><text style="dominant-baseline: middle; font-size: 10.2px;" transform="translate(42.21012878417969,104.5)" y="0" x="0" id="text-entity-TOUR-4b3cad13-2098-537d-91dd-5f08f627139d-attr-4-name" class="er entityLabel">FECHA_FIN</text><rect height="23" width="21.921875" y="93" x="110.03825378417969" class="er attributeBoxEven"></rect><text style="dominant-baseline: middle; font-size: 10.2px;" transform="translate(115.03825378417969,104.5)" y="0" x="0" id="text-entity-TOUR-4b3cad13-2098-537d-91dd-5f08f627139d-attr-4-key" class="er entityLabel"></text><rect height="23" width="37.21012878417969" y="116" x="0" class="er attributeBoxOdd"></rect><text style="dominant-baseline: middle; font-size: 10.2px;" transform="translate(5,127.5)" y="0" x="0" id="text-entity-TOUR-4b3cad13-2098-537d-91dd-5f08f627139d-attr-5-type" class="er entityLabel">float</text><rect height="23" width="72.828125" y="116" x="37.21012878417969" class="er attributeBoxOdd"></rect><text style="dominant-baseline: middle; font-size: 10.2px;" transform="translate(42.21012878417969,127.5)" y="0" x="0" id="text-entity-TOUR-4b3cad13-2098-537d-91dd-5f08f627139d-attr-5-name" class="er entityLabel">IMPORTE</text><rect height="23" width="21.921875" y="116" x="110.03825378417969" class="er attributeBoxOdd"></rect><text style="dominant-baseline: middle; font-size: 10.2px;" transform="translate(115.03825378417969,127.5)" y="0" x="0" id="text-entity-TOUR-4b3cad13-2098-537d-91dd-5f08f627139d-attr-5-key" class="er entityLabel"></text><rect height="23" width="37.21012878417969" y="139" x="0" class="er attributeBoxEven"></rect><text style="dominant-baseline: middle; font-size: 10.2px;" transform="translate(5,150.5)" y="0" x="0" id="text-entity-TOUR-4b3cad13-2098-537d-91dd-5f08f627139d-attr-6-type" class="er entityLabel">int</text><rect height="23" width="72.828125" y="139" x="37.21012878417969" class="er attributeBoxEven"></rect><text style="dominant-baseline: middle; font-size: 10.2px;" transform="translate(42.21012878417969,150.5)" y="0" x="0" id="text-entity-TOUR-4b3cad13-2098-537d-91dd-5f08f627139d-attr-6-name" class="er entityLabel">CUPO</text><rect height="23" width="21.921875" y="139" x="110.03825378417969" class="er attributeBoxEven"></rect><text style="dominant-baseline: middle; font-size: 10.2px;" transform="translate(115.03825378417969,150.5)" y="0" x="0" id="text-entity-TOUR-4b3cad13-2098-537d-91dd-5f08f627139d-attr-6-key" class="er entityLabel"></text></g><rect height="14" width="28.359375" y="225" x="95.43331146240234" class="er relationshipLabelBox"></rect><text style="text-anchor: middle; dominant-baseline: middle; font-size: 12px;" y="232" x="109.61299896240234" id="rel1" class="er relationshipLabel">firma</text><rect height="14" width="78.15625" y="533" x="70.53487396240234" class="er relationshipLabelBox"></rect><text style="text-anchor: middle; dominant-baseline: middle; font-size: 12px;" y="540" x="109.61299896240234" id="rel2" class="er relationshipLabel">corresponde a</text></svg>